<?xml version="1.0" encoding="UTF-8"?>
<svg id="Capa_2" data-name="Capa 2" xmlns="http://www.w3.org/2000/svg" viewBox="0 0 170.07 241.64">
  <defs>
    <style>
      .cls-1 {
        fill: #3b82f6;
        stroke-width: 0px;
      }
    </style>
  </defs>
  <g id="Capa_1-2" data-name="Capa 1">
    <path class="cls-1" d="M85.03,0C38.11,0,0,54.19,0,120.82s38.11,120.82,85.03,120.82,85.03-54.19,85.03-120.82C170.24,54.19,131.96,0,85.03,0ZM166.36,120.82c0,64.5-36.34,116.91-81.15,116.91S4.06,185.31,4.06,120.82,40.58,3.91,85.21,3.91s81.15,52.41,81.15,116.91Z"/>
    <path class="cls-1" d="M50.45,204.86l-10.76,4.09-.18.18v.18l.71.71s.18.18.35,0l7.06-2.67-2.65,7.28v.36l1.23,1.24h.18s.18,0,.18-.18l4.23-11.19v-.36c-.18.36-.35.36-.35.36Z"/>
    <path class="cls-1" d="M114.49,209.66h-.35s-.18.18,0,.36l3,11.55s0,.18.18.18h.18l.88-.71s.18-.18,0-.36l-2.12-7.64,6.88,3.38h.35l1.41-1.07.18-.18s0-.18-.18-.18l-10.41-5.33Z"/>
    <path class="cls-1" d="M9.88,122.6l10.76-4.62c.18,0,.18-.18.18-.18q0-.18-.18-.18l-10.41-5.15h-.18l-.18.18v1.07q0,.18.18.18l6.7,3.38-7.06,3.02c-.18,0-.18.18-.18.18v1.78q0,.18.35.36-.18,0,0,0Z"/>
    <path class="cls-1" d="M63.33,215.52c-.18,0-.35,0-.35.18l-1.94,3.55c-.35-.18-.53-.36-.88-.36l-.18-.53c-.35-1.78-.71-3.55-1.23-4.44-.35-.71-.71-1.24-1.41-1.78-.18-.18-.35-.18-.71-.36-.35-.18-1.06-.18-1.06-.18q-.18,0-.18.18t.18.36s.35.18.53.53c.35.36.71,1.07.88,1.78.35.89.71,2.49,1.06,3.91-1.06,0-2.12.53-2.65,1.42-.53.89-.53,1.6-.35,2.49.35.89,1.06,1.6,2.29,2.31l2.12,1.24h.18s.18,0,.18-.18l5.12-8.88v-.18s0-.18-.18-.18l-1.41-.89ZM58.57,223.51c-.71-.36-1.94-1.42-1.23-3.02.18-.53.53-.71,1.06-.89h.35c.53,0,1.06.18,1.59.53l-1.76,3.38Z"/>
    <path class="cls-1" d="M103.38,25.23l8.99-7.82s.18-.18,0-.18c0,0,0-.18-.18-.18l-.88-.53h-.35l-5.82,4.97.18-7.82q0-.18-.18-.18l-1.59-.71h-.18l-.18.18v11.9q0,.18.18.36Z"/>
    <path class="cls-1" d="M114.67,31.63q.18.18.35,0l5.29-5.86.53,11.55v.18l.35.36h.35l6.88-7.64v-.36l-.71-.71q-.18-.18-.35,0l-4.76,5.33-.35-10.31v-.18l-1.06-1.07q-.18-.18-.35,0l-6.88,7.64v.36l.71.71Z"/>
    <path class="cls-1" d="M126.84,44.24v.18l.88,1.24.18.18h.18l7.94-6.4c.18,0,.18-.18,0-.36l-.88-1.24-.18-.18h-.18l-7.94,6.57Z"/>
    <path class="cls-1" d="M133.9,56.32l.18.18,11.47-.89s.18,0,.18-.18v-.18l-.53-.89c0-.18-.18-.18-.18-.18l-7.59.53,4.59-6.22v-.36l-.88-1.6-.18-.18s-.18,0-.18.18l-7.06,9.42c.18,0,0,.18.18.36Z"/>
    <path class="cls-1" d="M144.48,66.98l.88,2.31c0,.18.18.18.35.18l.88-.36c.18,0,.18-.18.18-.36l-.88-2.31,3-1.24,1.23,3.38s0,.18.18.18h.18l.88-.36c.18,0,.18-.18.18-.36l-1.94-4.97s0-.18-.18-.18h-.18l-9.35,3.73c-.18,0-.18.18-.18.36l1.94,4.97s0,.18.18.18h.35l.88-.36c.18,0,.18-.18.18-.36l-1.23-3.38,2.47-1.07Z"/>
    <path class="cls-1" d="M152.6,96.3c-.35,1.07-.71,2.13-1.59,2.31h-.35c-.53,0-.88-.53-1.06-.89v-.71c0-.71.53-1.78,1.06-2.31l.35-.36s.18-.18,0-.36c0-.18-.18-.18-.18-.18l-1.76.36s-.18,0-.18.18c-.53.71-.71,1.95-.53,2.84.18,1.6,1.41,3.38,3.18,3.38h.35c1.94-.36,2.47-2.13,3-3.55.35-1.07.71-2.13,1.59-2.13h.35c.35,0,.71.36.88.89v.53c0,.53-.35,1.42-.88,1.95l-.35.36v.36c0,.18.18.18.18.18l1.76-.36s.18,0,.18-.18v-.18c.35-.89.53-1.6.35-2.49-.18-.71-.53-1.6-1.06-2.13-.53-.53-1.23-1.07-2.29-.89-1.94.36-2.65,1.95-3,3.38Z"/>
    <path class="cls-1" d="M149.42,108.2l.18,1.6v.18h.18l10.06-.71c.18,0,.18-.18.18-.36l-.18-1.6v-.18h-.18l-10.06.71c-.18.18-.18.36-.18.36Z"/>
    <path class="cls-1" d="M160.36,116.91h-1.06c-.18,0-.18.18-.18.18v3.55l-9-.18h-.18v1.78c0,.18.18.18.18.18l9,.18v3.73h1.06c.18,0,.18-.18.18-.18l.18-9.24c-.18.18-.18,0-.18,0Z"/>
    <path class="cls-1" d="M155.07,149.25c-1.76-.36-2.82.89-3.88,2.13-.71.89-1.41,1.78-2.29,1.6q-.18,0-.35-.18c-.53-.18-.71-.71-.71-1.24v-.18c0-.18,0-.36.18-.53.18-.71,1.06-1.42,1.76-1.78l.53-.18c.18,0,.18-.18.18-.18,0-.18-.18-.18-.18-.18l-1.76-.36h-.18c-.71.53-1.24,1.42-1.41,2.49-.35,1.78.35,3.91,2.29,4.26,1.94.36,3-1.07,4.06-2.13.88-1.07,1.41-1.6,2.12-1.6q.18,0,.35.18c.35.18.53.71.53,1.07v.18q0,.18-.18.36c-.18.53-.71,1.07-1.59,1.6l-.35.18c-.18,0-.18.18-.18.18,0,.18.18.18.18.18l1.76.36h.18c.71-.71,1.06-1.42,1.23-2.31.18-.71,0-1.6-.18-2.31-.35-.53-.88-1.24-2.12-1.6Z"/>
    <path class="cls-1" d="M141.13,189.75c-1.59-.89-3,0-4.23.71-1.06.53-1.94,1.07-2.65.71-.18,0-.18-.18-.35-.18-.35-.36-.35-.89-.18-1.42v-.18c0-.18.18-.18.18-.36.53-.53,1.41-.89,2.12-1.07h.53c.18,0,.18-.18.18-.18,0,0,0-.18-.18-.36l-1.59-1.07h-.18c-.71.18-1.76.89-2.12,1.78-.53.89-.71,1.78-.71,2.67s.53,1.78,1.23,2.13c1.76,1.07,3.18,0,4.59-.71,1.06-.71,1.76-1.07,2.47-.71.18.18.35.18.35.36.18.36.18.71.18,1.07,0,0,0,.18-.18.18,0,.18-.18.18-.18.36-.35.36-1.06.71-1.94.89h-.53c-.18,0-.18.18-.18.18q0,.18.18.36l1.59.89h.53c.71-.36,1.41-.89,1.94-1.78.35-.71.53-1.42.53-2.13-.18-.71-.53-1.6-1.41-2.13Z"/>
    <path class="cls-1" d="M135.13,202.01h-.18s-.18,0-.18.18l-2.12,2.66-6.88-5.86c-.18-.18-.35,0-.35,0l-1.06,1.24v.18s0,.18.18.18l6.88,5.86-2.12,2.66v.18s0,.18.18.18l.71.53h.18s.18,0,.18-.18l5.65-7.11c.18-.18,0-.36,0-.36l-1.06-.36Z"/>
    <path class="cls-1" d="M105.5,216.76c0-.18-.18-.18-.35-.18l-2.12.89c-2.12.89-3.53,2.13-4.41,3.38-.88,1.42-1.06,3.2-.35,4.97.88,1.95,2.29,3.02,4.41,3.02,1.59,0,3.18-.71,4.41-1.24l2.12-.89s.18,0,.18-.18v-.18l-3.88-9.59ZM106.38,226.35c-3.35,1.42-5.47.71-6.53-1.95-.35-.89-.35-1.6-.18-2.49.18-.36.35-.71.53-.89.71-.71,1.59-1.42,3.18-2.13l.35-.18,3,7.46-.35.18Z"/>
    <path class="cls-1" d="M90.32,221.38h-.18l-1.59.18c-.18,0-.18.18-.18.36l.88,10.31s0,.18.18.18h.18l1.59-.18c.18,0,.18-.18.18-.36l-1.06-10.48q.18,0,0,0Z"/>
    <path class="cls-1" d="M76.21,220.31c-2.82-.53-6.17.89-6.88,4.44-.35,1.6,0,3.02.88,4.26.88,1.24,2.12,1.95,3.88,2.31.35,0,.88.18,1.23.18,2.29,0,4.94-1.42,5.65-4.44.35-1.6,0-3.02-.88-4.26-.88-1.24-2.12-2.13-3.88-2.49ZM78.86,226.53c-.18,1.07-.53,1.78-1.06,2.31-.53.53-1.06.89-1.76,1.07h-1.23c-1.59-.36-2.47-1.24-2.82-1.95-.53-.89-.71-1.95-.53-2.84.18-1.07.53-1.78,1.06-2.31.53-.53,1.06-.89,1.76-1.07h1.23c1.59.36,2.47,1.24,2.82,1.95.53.89.71,1.95.53,2.84Z"/>
    <path class="cls-1" d="M42.52,196.33l-.53-.89-.18-.18h-.18l-5.82,3.91,3.88-7.46v-.18l-.18-.36-.18-.18-7.76.18,5.47-3.55.18-.18v-.18l-.88-1.42c0-.18-.18-.18-.35,0l-8.47,5.51c-.18,0-.18.18,0,.36l.53.89.18.18,8.82-.18-4.06,8v.18l.71,1.24.18.18h.18l8.47-5.51v-.36Z"/>
    <path class="cls-1" d="M23.46,152.45l-7.59,1.42,6.35-9.59v-.71c0-.18-.18-.18-.35-.18l-9.88,1.95s-.18,0-.18.18v.18l.18.89c0,.18.18.18.35.18l6.88-1.24-5.82,8.53v.18l.18,1.42s0,.18.18.18h.18l9.88-1.95s.18,0,.18-.18v-.18l-.35-.71c0-.18-.18-.36-.18-.36Z"/>
    <path class="cls-1" d="M24.35,81.73q-.18,0-.18.18s-.18.36-.35.71c-.35.53-.88,1.07-1.41,1.42-.71.53-2.12,1.6-3.35,2.31-.35-1.07-1.23-1.95-2.12-2.13-.88-.18-1.76,0-2.29.36-.71.53-1.23,1.6-1.59,3.02l-.53,2.31c0,.18,0,.36.18.36l9.88,2.31h.18l.18-.18.35-1.6c0-.18,0-.36-.18-.36l-3.88-.89c0-.36.18-.71.18-1.07l.35-.18c1.59-.89,3-1.78,3.7-2.49.53-.53.88-1.07,1.06-1.95,0-.18.18-.53.18-.71,0-.53-.18-1.07-.18-1.07.18-.36,0-.36-.18-.36ZM17.99,89.19l-3.7-.89v-.18c.18-.53.71-2.13,2.29-1.78.53.18.88.36,1.06.71.53.53.53,1.24.35,2.13Z"/>
    <path class="cls-1" d="M147.13,89.01q.18.18,0,0h.35c.18,0,.18-.18.18-.36v-.71c0-.53.35-1.24.53-1.95.35-.89,1.41-2.84,1.94-3.55.88.89,1.94,1.07,2.82.89.88-.18,1.59-.71,1.94-1.42.35-.89.35-1.95,0-3.38l-.71-2.31s0-.18-.18-.18h-.18l-9.7,2.84s-.18,0-.18.18v.18l.35,1.6s0,.18.18.18h.18l3.7-1.07c.18.36.18.71.35.89l-.18.36c-.88,1.6-1.94,3.02-2.12,4.09-.18.71-.35,1.42-.18,2.31,0,.36.18.53.18.71.35.36.71.71.71.71ZM153.31,78.35v.18c.18.53.35,2.31-1.23,2.84-.53.18-.88.18-1.24-.18-.53-.36-.88-.89-1.23-1.78l3.7-1.07Z"/>
    <path class="cls-1" d="M31.4,64.14h.18s.18,0,.18-.18l2.29-4.97v-.18s0-.18-.18-.18l-.71-.36c-.18,0-.35,0-.35.18l-1.41,3.2-3-1.24,1.06-2.31c0-.18,0-.36-.18-.36l-.71-.36c-.18,0-.35,0-.35.18l-1.06,2.31-3-1.42,1.41-3.2c0-.18,0-.36-.18-.36l-.71-.36h-.18s-.18,0-.18.18l-2.29,4.97c0,.18,0,.36.18.36l9.17,4.09Z"/>
    <path class="cls-1" d="M37.05,53.12h.18s.18,0,.18-.18l.53-.89v-.36l-6.53-4.44,11.11-2.31s.18,0,.18-.18l.18-.36v-.36l-8.47-5.69h-.18s-.18,0-.18.18l-.53.89v.36l5.82,3.91-9.88,1.95s-.18,0-.18.18l-.88,1.24v.18s0,.18.18.18l8.47,5.69Z"/>
    <path class="cls-1" d="M45.87,34.29c1.06-.36,2.12-.53,2.65,0,.18.18.18.36.35.36.18.36.18.89-.18,1.24l-.18.18q-.18.18-.35.36c-.53.36-1.59.53-2.29.36h-.53q-.18,0-.18.18v.36l1.23,1.42h.35c.71,0,1.94-.53,2.47-1.24.71-.71,1.06-1.6,1.23-2.31.18-.89-.18-1.78-.71-2.49-1.41-1.42-3.18-.89-4.59-.53-1.06.36-2.12.53-2.65,0,0-.18-.18-.18-.18-.36-.18-.36-.18-.89.18-1.24,0,0,0-.18.18-.18,0,0,.18-.18.35-.18.53-.36,1.23-.53,2.12-.36h.53q.18,0,.18-.18v-.36l-1.23-1.24s-.18-.18-.18,0h-.18c-.88.18-1.59.53-2.29,1.24-.53.53-.88,1.24-1.06,1.95-.18.71,0,1.6.71,2.49,1.24,1.42,2.82.89,4.23.53Z"/>
    <path class="cls-1" d="M56.1,30.56l.18.18h.18l1.23-.89.18-.18v-.18l-5.82-8.35c0-.18-.18-.18-.35,0l-1.23.89-.18.18v.18l5.82,8.17Z"/>
    <path class="cls-1" d="M63.68,20.61c1.23.18,2.12.18,2.47,1.07,0,.18.18.36.18.53,0,.53-.18,1.07-.71,1.24h-.18c-.18,0-.35.18-.35.18-.71.18-1.76,0-2.29-.36l-.53-.36h-.35s-.18.18,0,.36l.71,1.78s0,.18.18.18c.35.18.71.18,1.06.18.53,0,1.23-.18,1.76-.36,1.59-.71,3-2.49,2.12-4.44-.88-1.78-2.65-1.95-4.06-2.13-1.23-.18-2.12-.18-2.47-.89q0-.18-.18-.36c0-.53.18-.89.53-1.07,0,0,.18,0,.18-.18.18,0,.18-.18.35-.18.53-.18,1.41,0,2.12.36l.53.18h.35s.18-.18,0-.36l-.71-1.78-.18-.18h-.18c-.88-.18-1.59,0-2.47.36-.71.36-1.23.89-1.59,1.42-.35.53-.71,1.42-.18,2.49.71,1.95,2.47,2.31,3.88,2.31Z"/>
    <path class="cls-1" d="M26.82,76.05l-3.7-1.24c.18-.36.18-.71.18-1.07l.53-.18c1.59-.71,3.18-1.42,4.06-2.13.53-.53,1.06-.89,1.41-1.78,0-.18.18-.53.18-.71v-1.07c0-.18-.18-.18-.18-.18q-.18,0-.18.18s-.18.36-.35.71c-.35.53-.88.89-1.59,1.24-.71.53-2.29,1.24-3.53,1.95-.18-1.07-.88-1.95-1.94-2.31-.88-.36-1.59-.18-2.29.18-.71.53-1.41,1.42-1.76,2.67l-.71,2.31c0,.18,0,.36.18.36l9.53,3.38h.18s.18,0,.18-.18l.53-1.6c-.53-.36-.53-.53-.71-.53ZM21.88,74.27l-3.53-1.24v-.18c.18-.53.88-2.13,2.47-1.6.53.18.88.53,1.06.89.35.53.35,1.24,0,2.13Z"/>
    <path class="cls-1" d="M74.8,53.66c-.18.18-.35.53-.35.89s.18.71.35.89.53.36.88.36.71-.18.88-.36.35-.53.35-.89-.18-.71-.35-.89c-.71-.53-1.41-.53-1.76,0Z"/>
    <path class="cls-1" d="M82.74,92.39c-.35-1.6-.88-3.2-1.23-4.62-.53-1.78-1.06-3.2-1.59-4.44,0-.18-.18-.18-.35-.18q-.18.18-.18.36c0,1.42.18,2.84.53,4.8.18,1.42.53,2.84.88,4.62.35,1.6.88,3.2,1.23,4.62.53,1.78,1.06,3.2,1.59,4.44,0,.18.18.18.35.18s.18-.18.18-.36c0-1.42-.18-2.84-.53-4.8-.18-1.42-.53-3.02-.88-4.62Z"/>
    <path class="cls-1" d="M90.85,108.2c-.18,0-.35.18-.35.36-.35,2.49-.53,4.97-.71,7.28,0,.53-.18,1.24-.18,1.78v.36c-.18,2.84-.53,5.86-.88,8.71-.53,2.84-1.06,5.69-2.47,8.35-.35.71-.71,1.24-1.23,1.6-.35.53-.88.89-1.59,1.24-1.06.53-2.47.89-4.06.89-.18,0-.35.18-.35.18,0,.18,0,.36.18.36.88.36,1.76.36,2.47.36s1.59-.18,2.29-.36c1.41-.53,2.82-1.6,3.88-3.2.88-1.24,1.59-2.66,2.12-4.44.53-1.42.88-2.84,1.06-4.62.35-2.84.53-5.86.53-9.42,0-3.2-.35-6.22-.71-9.24.35,0,.18-.18,0-.18Z"/>
    <path class="cls-1" d="M91.03,102.69c.18,0,.35-.18.35-.36.35-2.31.71-4.62.88-6.93l.18-1.07c.18-2.31.53-4.8.71-7.28.35-2.84.53-5.33.71-7.64.18-2.49.35-4.97.35-7.64,0-.18-.18-.36-.18-.36-.18,0-.35,0-.35.18-.71,2.13-1.41,4.62-1.94,7.46-.53,2.49-.88,5.15-1.06,7.64-.35,2.67-.35,5.33-.35,7.82,0,3.02.18,5.51.71,7.82-.35.18-.18.36,0,.36Z"/>
    <path class="cls-1" d="M83.09,103.58c-.18,0-.35,0-.35.18-.18.18,0,.36,0,.36.71.89,1.76,1.42,3,1.95,1.06.36,2.29.71,3.53.89.71,0,1.41.18,2.12.18,1.59,0,3.18-.18,4.94-.53,2.29-.53,4.59-1.24,6.7-2.13,2.47-1.24,4.41-2.49,5.82-3.91.18-.18.18-.36,0-.36,0-.18-.18-.18-.35-.18-1.94.89-3.88,1.78-6.17,2.49-2.12.71-4.23,1.24-6.35,1.6-2.47.53-4.59.71-6.53.71-1.76,0-4.23-.18-6.35-1.24Z"/>
    <path class="cls-1" d="M46.75,130.41c-.35,0-.71.18-1.41.36-.18,0-.18.18-.18.36.18.71.53,1.07.71,1.24.35.36.53.53.88.71.53.18.88.18,1.23.18h.18c.53,0,.88-.18,1.41-.36.18,0,.18-.18.18-.36-.18-.71-.53-1.07-.71-1.24-.35-.36-.53-.53-.88-.71-.53-.18-.88-.18-1.41-.18Z"/>
    <path class="cls-1" d="M114.14,183.53c.53-1.42.88-3.02,1.23-4.97.18-.71.35-1.6.35-2.49v-.18c.18-.71.18-1.42.35-2.31.71-3.38,1.76-6.22,3.53-8.35,1.06-1.24,2.12-2.31,3.35-3.02.88-.71,1.94-1.24,3.53-1.78l.35,1.24c.18.89.53,1.78.71,2.84.18.36.35.71.71.89.71.36,1.41,0,1.76-.71.53-1.42,1.06-2.84,1.59-4.44.35.36.53.89.71,1.24.35.89.53,1.78.53,2.84,0,.89-.35,1.78-.71,2.66-.53.89-1.06,1.78-1.59,2.31-.53.53-1.23.89-1.94,1.42-.18.18-.35.18-.53.36-1.06.71-1.94,1.42-2.65,2.13l-.18.18-.35.36c-.18.18-.35.53-.53.71-.35.53-.53,1.07-.88,1.6-.53,1.07-.88,2.13-1.23,3.2-.18.71.18,1.42.71,1.6l1.59.71c-.18.18-.35.36-.53.53l-2.12,1.95c-.88.71-1.76,1.6-2.47,2.31v-2.84c0-1.95,0-3.55-.18-5.33,0-.18-.18-.36-.35-.36s-.35.18-.35.36c-.18,1.6-.53,3.38-.71,5.33-.18.89-.18,1.78-.35,2.67l-.35,2.66c0,.36,0,.53.18.71.35.36.88.53,1.41.18.53-.36,1.06-.89,1.59-1.24.88-.71,1.94-1.6,2.82-2.31l2.12-1.78c.53-.36,1.06-.89,1.41-1.24l.71-.53c.18-.18.35-.36.35-.53.18-.36.18-.71,0-1.07-.18-.36-.35-.53-.71-.71l-2.29-1.07c.18-.53.53-1.24.71-1.6.18-.53.53-.89.71-1.24.18-.18.18-.36.35-.53l.53-.53c.53-.71,1.23-1.24,2.12-1.95l.35-.36c.35-.18.53-.53.88-.71.53-.53.88-.89,1.23-1.24.71-.89,1.41-1.95,1.76-3.2.35-1.24.71-2.49.53-3.55-.18-1.24-.53-2.49-1.06-3.38-.35-.71-.88-1.24-1.41-1.6.53-1.6,1.06-3.2,1.59-5.33.18-.53.35-1.07.53-1.78.53-.18.88-.53,1.23-.89.53-.71.88-1.6.88-2.49s-.35-1.6-.88-2.31c.35-1.42.53-2.49.71-3.55,1.41-7.46,2.29-14.92,2.65-22.21,0-1.6.18-3.38.18-5.33,1.24-.53,1.94-1.78,1.94-3.2,0-1.24-.71-2.49-1.94-3.02-.18-3.38-.35-6.93-.71-10.84-.35-2.84-.71-5.86-1.23-8.71,1.06-.53,1.76-1.78,1.76-3.02,0-1.78-1.41-3.2-3-3.38-.53-2.31-1.06-4.62-1.76-6.75v-.18c-.18-.18-.18-.36-.53-.53h-.71c-1.59.71-3.53,1.6-6,2.49-1.59.53-3.35,1.07-5.29,1.6-.88-4.62-2.12-9.42-3.53-14.75-.71-2.49-1.41-4.97-2.29-7.28-.88-2.67-1.76-4.97-2.82-7.28-.88-1.95-2.12-4.62-4.06-6.93-.53-.53-1.06-1.07-1.59-1.42-.53-.36-1.23-.89-2.29-1.07-.53,0-1.06,0-1.41.18-.35.18-.88.36-1.23.71-.35.36-.71.71-.71.89-.18.36-.35.53-.53.89-1.41,2.13-2.47,4.44-3.35,7.11-.88,2.84-1.23,5.33-1.23,7.64,0,.18.18.36.35.36s.35-.18.35-.18c.35-2.49,1.23-4.8,2.12-7.28.53-1.24,1.06-2.31,1.59-3.38.71-1.24,1.23-2.13,1.94-3.02.18-.18.35-.53.53-.71.18-.18.35-.36.53-.53.35-.18.53-.36.88-.36s.53.18,1.06.53c.35.36.71.71,1.06,1.24.71.89,1.41,1.95,1.94,3.02.71,1.07,1.24,2.31,1.59,3.38,1.06,2.49,1.94,4.97,2.82,7.11.53,1.6,1.23,3.2,1.76,4.8.35.71.53,1.6.88,2.31l.88,2.67c1.41,3.73,2.65,7.64,4.06,11.55h-.18c-1.76.53-3.7.89-5.82,1.42-.53-1.07-1.23-2.13-2.12-3.38-.53-.89-1.06-1.6-1.59-2.49l-.71-1.07c-.53-.89-1.06-1.6-1.59-2.49l-1.76-2.66-.53-1.24s0-.18-.18-.18c-1.41-2.13-3.35-3.73-5.65-4.8-1.06-.53-2.29-.89-3.53-1.24-1.06-.18-1.94-.71-2.65-1.24-.71-.53-1.41-1.24-1.76-2.13-.18-.36-.35-.89-.53-1.42v-.36l-.35-1.42c-.53-2.49-1.06-4.62-1.76-6.93-.18-.53-.35-1.07-.71-1.78-.18-.71-.53-1.24-.88-1.78-.71-1.24-1.76-2.31-2.82-3.02-1.06-.71-2.47-1.07-3.88-1.07-1.24,0-2.47.18-3.7.53-.18,0-.35.18-.53.18-.35.18-.71.18-1.06.36-.53.18-1.23.53-1.59.89-1.06.71-1.94,1.42-2.82,2.49-.35.53-.71,1.07-1.06,1.6-.35.53-.53,1.24-.71,1.78-.35,1.24-.35,2.49-.18,3.73,0,.53.18,1.07.18,1.42.18.53.35,1.07.35,1.42,0,.18.18.36.35.53l.18.18,1.59,1.07c.18.71.18,1.42.35,1.95,0,.36.18.71.18,1.07l.18.71c.18.53.71.89,1.23.71l1.41-.36c.71.71,1.41,1.42,2.12,1.95,1.23.71,2.29,1.07,3.18,1.07h.18c.18,0,.53-.18.53-.36.71-.71,1.23-1.78,1.59-2.84.35-.89.53-1.95.53-3.02,0-.18-.18-.36-.18-.36-.18,0-.35,0-.35.18-.71,1.95-1.59,3.38-2.47,4.44-.71-.18-1.41-.53-2.12-1.07-.71-.53-1.41-1.24-1.94-1.95l-.18-.18c-.18-.36-.71-.53-1.06-.36l-1.06.18c0-.18-.18-.53-.18-.71-.18-.71-.35-1.24-.53-1.95l-.18-.36c0-.18-.18-.36-.35-.53l-1.23-.71-.53.53-.71-1.24c-.18-.36-.35-.53-.35-.89.88-.18,1.76-.36,2.82-.71.53-.18,1.06-.36,1.59-.36h.18c.18,0,.35-.18.53-.18h.71c1.06,0,1.94.18,2.65.71.35.18.71.53,1.06.89.18.18.53.36.71.18.18,0,.35,0,.53-.18l1.41-.71.35-.18.88,2.31c0,.18.18.36.35.53.35.18.53.36.88.53,1.59,1.07,2.82,1.95,4.23,2.67.18.53.35,1.24.71,1.78.71,1.24,1.59,2.31,2.65,3.02.18.18.35.36.71.36v.36c-.35,1.42-.71,2.84-1.59,3.91-.88,1.24-2.12,1.6-3.18,1.78h-1.94c-.53,0-1.24-.18-1.59-.53-1.06-.53-1.76-1.6-1.94-2.66q0-.18-.18-.36c-.35-.71-1.23-.71-1.76-.36-1.41.89-2.65,1.6-3.88,2.31-1.59,1.07-2.65,1.95-3.7,3.02-.53.53-1.23,1.24-1.59,2.13-.18.18-.18.36-.18.53v.36c0,.18-.18.36-.18.36q0,.18-.18.36c0,.18-.18.53-.18.71-.35,1.42-.53,2.84-.71,4.62s-.35,3.38-.35,4.62v.36c-1.76-2.31-3.53-5.15-5.12-8.53-1.59-3.2-3-6.93-4.23-10.84,0-.18-.18-.36-.18-.53-.18-.36-.18-.53-.35-.89l-.35-1.42c0-.36-.18-.53-.18-.89-.18-.71-.35-1.42-.53-1.95l-.71-2.84v-.36c-.18-.89-.35-1.78-.53-2.67l-.35-1.42c0-.36,0-.53.18-.89.18-.36.35-.53.53-.71.18,0,.18-.18.35-.18h.71c.88,0,1.76,0,2.82.18.71.18,1.59.36,2.47.53.18,1.6.53,3.38,1.06,4.97.88,2.66,2.47,4.8,4.41,6.4.18.18.35,0,.35,0,.18-.18.18-.36,0-.36-1.59-1.78-2.65-3.91-3.18-6.4-.53-2.31-.71-4.8-.35-6.93l.18-.89c0-.18.18-.36.18-.53s0-.18.18-.36c.18-.36.18-.71.35-1.24,0-.18.18-.36.18-.53s.18-.36.18-.53.18-.18.18-.36.18-.18.18-.36.18-.36.18-.53.18-.18.18-.36c.18-.36.53-.71.71-1.07.53-.71,1.24-1.6,2.29-2.49.18-.18.35-.18.53-.36.35-.18.53-.36.88-.53l.71-.36.71-.36c4.06-1.95,9-1.6,12.88.71.18.18.35.18.53.36l.18.18c.18.18.35.18.35.36l.88.71.18.18.88.89.88,1.07.71,1.07c1.23,1.95,1.94,4.26,2.12,6.75,0,.18.18.36.35.36s.35-.18.35-.36c.18-2.49-.35-5.15-1.41-7.64-1.23-2.49-3-4.62-5.12-6.04-4.41-3.2-10.23-3.55-15.17-1.24s-8.29,7.28-8.82,12.61c0,.71-.18,1.24,0,1.95-.71-.36-1.41-.71-2.12-.89-.88-.36-1.94-.53-3-.71h-.71c-.35,0-.71.18-1.06.18-.53.36-1.06.71-1.41,1.42-.35.53-.53,1.24-.35,1.95,0,.36,0,.71.18,1.07v.71c.18.89.18,1.78.35,2.84l.53,3.02c.18.71.35,1.42.53,2.13,0,.36.18.53.18.89l.35,1.42c.18.36.18.71.35.89,0,.18.18.36.18.53,1.23,3.91,2.82,7.64,4.94,11.02,2.29,3.73,4.59,6.57,7.06,8.71,0,.89-.18,1.95-.18,3.2,0,2.31,0,4.62.18,6.93-.18-.36-.35-.71-.71-1.07-1.41-2.13-2.82-4.09-4.06-5.69-1.24-1.78-2.65-3.55-4.23-5.51-.35-.36-.71-.53-1.24-.36-.18-.36-.35-.89-.53-1.24-.18-.18-.18-.53-.35-.71-.18-.36-.35-.89-.53-1.24-.18-.18-.18-.53-.35-.71-.18-.36-.35-.89-.53-1.24-.35-.53-.53-1.24-.88-1.78v-.18c-.18-.36-.53-.53-1.06-.53h-.18c-1.23,0-2.65,0-4.06.18-.88-3.02-1.76-5.86-2.82-8.71-.88-2.49-1.94-5.69-3.18-8.71,0-.18-.18-.18-.35-.18s-.18.18-.18.36c.53,3.38,1.41,6.75,1.94,9.06.71,2.66,1.41,5.51,2.29,8.35-.53,0-1.06.53-1.06,1.24-.18,1.24-.35,2.49-.53,3.55,0,.18,0,.53.18.71.35.71.88,1.6,1.41,2.49.53.71.88,1.6,1.41,2.49v.18c.18.18.35.36.53.36l1.06.18c3.53,12.08,7.41,24.87,10.23,34.11,3,9.77,5.29,17.23,7.59,24.34,0,.18.35.36.53.36h.18c.18,0,.35-.36.35-.53v-5.86s0-.18-.18-.18c0,0-.18-.18-.35-.18h-.18l-1.06.36c-1.59-5.69-3.18-11.55-5.29-18.83-2.65-9.42-8.64-29.49-9.7-33.05h.18c.18,0,.53,0,.71.18,1.06,4.09,2.12,8.35,3.35,12.44.71,1.95,1.41,4.09,2.29,6.22.88,1.95,1.76,3.91,3.18,5.86l.18.36c.53.89,1.24,1.6,1.94,2.31.53.53.88.89,1.41,1.07.71.36,1.23.71,1.76.71h1.06c.35,0,.53-.18.88-.18.53-.18,1.06-.36,1.59-.71.88-.53,1.76-1.24,2.65-2.13,1.41-1.6,2.65-3.55,3.53-5.69.35-.89.71-1.95.88-3.2.18-1.07.35-2.13.35-3.2,0-.18-.18-.36-.35-.36s-.35.18-.35.36c-.18,1.07-.35,2.13-.71,3.2-.18.89-.53,1.95-1.06,2.84-1.06,1.95-2.29,3.55-3.7,4.97-.88.71-1.59,1.24-2.29,1.78-.35.18-.88.36-1.23.53-.18,0-.53.18-.71.18h-.53c-.71-.18-1.41-.53-2.12-1.42-.53-.53-1.06-1.24-1.59-1.95l-.35-.36c-1.23-1.78-1.94-3.73-2.65-5.51-.88-2.13-1.59-4.09-2.12-6.04-1.23-3.91-2.29-8-3.18-11.73.35-.18.53-.36.88-.53.35-.18.53-.36.88-.53,1.06,1.24,2.29,2.67,3.7,4.44,1.41,1.78,2.82,3.55,4.23,5.33.71,1.07,1.41,1.95,1.94,2.84.53.71,1.06,1.78,1.59,2.84.53,1.07.88,1.95.53,2.84-.18.36-.53.71-.88,1.07-.35.36-.88.53-1.41.89-.18,0-.18.18-.18.36s.18.18.35.18c.53-.18,1.06-.36,1.59-.71.71-.36,1.06-.89,1.41-1.42.35-.53.35-1.24.35-1.95,0-.53-.18-1.07-.53-1.78-.35-1.24-1.06-2.31-1.76-3.73l.88-8.35.18-1.24c.18-1.07.18-2.31.35-3.38.18-1.42.35-2.84.71-4.44.18-1.6.53-3.02.88-4.44,0-.18.18-.36.18-.71q0-.18.18-.36,0-.18.18-.36v-.53c0-.18.18-.36.35-.53l.18-.18c.18-.18.35-.36.53-.53,1.06-1.07,2.29-1.95,3.35-2.66.88-.71,1.76-1.24,2.47-1.78.18.36.35.71.53.89.53.71,1.23,1.24,2.12,1.6.71.36,1.59.53,2.65.53h1.59c.18,0,.53,0,.71-.18.88-.18,1.59-.53,2.29-1.07.71-.53,1.24-1.07,1.59-1.95.71-1.42.88-2.84,1.06-4.44.71.36,1.59.71,2.47.89,1.06.18,2.12.53,3,.89,1.94.89,3.7,2.31,4.94,3.91v.18l2.29,3.02c.35.36.71.89.88,1.24.53.71,1.06,1.42,1.59,1.95.35.36.53.71.88,1.07.53.71,1.06,1.42,1.76,2.13.71.89,1.41,1.78,2.29,2.84-.71.18-1.23.36-1.94.36-.35,0-.71.18-1.06.18l-3.18.71h-.18l-.18.18v.36l4.94,19.9,4.94,20.08c.53,2.13,1.06,4.26,1.59,6.4,1.06,4.62,2.29,9.24,3.53,13.86l.53,2.13c.88,3.55,1.76,6.93,2.65,10.48-3.18.36-6.17,1.42-8.64,3.2-2.65,1.78-4.94,4.62-6.17,7.82l-.35,1.24c-.18.36-.18.53-.18.89,0,.18,0,.36-.18.36l-.18.36c0,.36-.18.53-.18.89l.35.53c-.35,1.6-.71,3.2-1.06,4.62-.35,1.42-.71,2.84-1.41,4.44-.18.71-.53,1.42-1.06,2.13-.18.53-.53.89-.71,1.24-.71-.53-1.41-1.07-2.12-1.6.18-1.24.53-2.49.71-3.91.35-1.78.53-3.2.71-4.62.53-3.73.71-6.57.71-9.42.53-1.95,1.06-3.73,1.23-5.33.35-1.95.53-3.73.53-5.51,0-1.95,0-3.73-.18-5.51-.18-1.42-.18-2.84-.53-4.26,0,0,.18,0,.18-.18.18-.18.53-.36.71-.71.88-.89,1.59-2.13,1.94-3.38.88-2.49.88-5.15.71-7.28,0-.89-.18-1.78-.18-2.49,0-.36,0-.71-.18-1.07-.18-1.24-.35-2.31-.71-3.38v-.18c-.53-2.49-1.23-4.8-1.76-6.75-1.23-4.26-2.47-8.53-4.06-13.33,0-.18-.18-.18-.35-.18s-.18.18-.18.36c1.06,4.09,2.12,8.71,3.18,13.5.53,2.13,1.06,4.44,1.41,6.75.18,1.07.35,2.31.53,3.38v1.07c0,.89.18,1.6.18,2.49,0,2.66-.18,4.8-.88,6.4-.35,1.07-.88,1.78-1.59,2.49-.18.18-.35.36-.53.53l-.18.18q-.18.18-.35.36c-.35.36-.88.53-1.41.89-1.59.89-3.53,1.78-6,2.49-2.29.71-4.41,1.24-6.35,1.42-2.29.36-4.41.18-6.35-.18-2.12-.36-4.06-1.24-5.65-2.31-.88-.71-1.59-1.42-2.29-2.13-.35-.53-.71-.89-.88-1.24-.18-.36-.53-.89-.71-1.42-.71-1.95-1.06-4.09-1.06-6.22,0-1.07.18-2.13.53-3.2.18-.53.35-1.07.53-1.42,0-.18.18-.36.18-.53.18-.36.35-.71.53-1.07,1.06-2.13,1.94-4.26,2.82-6.4,2.12-4.97,3.7-9.06,5.12-12.97,0-.18,0-.36-.18-.36s-.35,0-.35.18l-6,12.44c-.88,1.95-1.94,4.09-3.18,6.22-.18.36-.35.71-.53,1.07l-.35.53c-.35.53-.53,1.07-.71,1.78-.35,1.07-.71,2.31-.88,3.73-.18,2.49.18,5.15,1.06,7.46.18.53.53,1.24.88,1.78.35.53.71,1.07,1.06,1.6.35.36.71.89,1.06,1.24-.35,1.07-.53,2.31-.71,3.55-.18,1.78-.35,3.38-.18,4.8,0,1.78.18,3.38.35,4.8.18,1.6.53,3.2.88,4.62.53,1.07.53,2.66.53,4.09s0,3.02.18,4.8c.18,1.78.18,3.38.35,4.8.18,1.07.18,2.31.35,3.73-1.06.53-1.94.89-2.82,1.24-1.24-1.78-2.47-3.91-3.53-5.86-1.23-2.31-2.29-4.44-3.18-6.57l-.18-.36c.71-.71,1.59-1.42,2.29-2.31.53-.53,1.06-1.24,1.41-2.13.18-.36.35-.89.35-1.24v-.36c0-.36.18-.53.18-.89.18-1.42.18-2.84,0-4.62-.18-1.24-.35-2.67-.71-4.44-.18-.71-.35-1.42-.53-2.13l-.53-2.13c0-.36-.18-.53-.53-.71-.53-.36-1.23-.18-1.41.36l-1.23,2.31c-.18.36-.35.53-.53.89v-.18l.35-1.24.18-1.24c.18-1.6.35-3.2.18-4.8,0-.71-.18-1.6-.35-2.31-.18-.89-.35-1.6-.53-2.31,0-.36-.18-.53-.53-.71-.53-.36-1.41-.36-1.76.36l-3.18,4.44-.35.53c-.35.53-.88,1.07-1.23,1.6-.35.36-.71.71-1.06,1.07-.53-1.24-1.06-2.31-1.76-3.38-.71-1.07-1.41-2.49-2.65-3.73.53,0,.88-.18,1.41-.18.18,0,.35-.18.35-.36.35-.71.71-1.42,1.06-2.13l.18-.53c.35-.89.88-1.78,1.24-2.66.18-.36,0-.89-.35-1.07l-.71-.36c.35-.71.71-1.42,1.06-2.13.18-.53.53-1.07.71-1.6q0-.18.18-.36c0-.36,0-.53-.18-.89-.18-.18-.53-.36-.71-.36-1.24-.18-2.47-.36-3.7-.36-.71,0-1.23-.18-1.94-.18-2.29-.89-4.59-1.78-6.53-2.49-2.12-.89-4.41-1.6-6.7-2.49-.53-.18-.88,0-1.24.36-.53.53-1.06,1.07-1.59,1.6l-.35.53-.35-.71c-.18-.36-.35-.53-.53-.89v-.18c0-.18-.18-.18-.18-.36-.18-.18-.35-.53-.35-.71s-.18-.36-.18-.53c-.18-.18-.18-.36-.18-.53l-.35-1.24c-.88-3.02-.88-6.22,0-9.59.71-2.84,1.94-5.86,3.88-9.24.71-1.24,1.59-2.49,2.29-3.55l1.06,2.49c0,.18.18.18.35.18s.18,0,.35-.18l.88-2.49c0-.18.18-.36.18-.36.18-.36.35-.71.35-1.07.35-1.24.53-2.49.71-3.55q0-.18-.18-.36h-.35c-1.41,1.07-2.82,2.31-3.88,3.55-1.23,1.42-2.47,2.66-3.35,4.09-2.29,3.2-3.88,6.4-4.59,9.77-.53,1.95-.71,3.73-.53,5.51,0,1.95.53,3.73,1.06,5.51.53,1.6,1.59,3.2,2.82,4.62l.53.71-1.94,1.95-.18.18c-.18.18-.18.53-.18.89s.18.53.53.71l3.88,2.84c.35.89.53,1.78.88,2.49.18.53.35,1.07.71,1.42.18.36.35.53.53.71.18.36.53.53.71.71.88.53,1.94.89,2.82,1.07h.53c0,1.6.18,3.2.35,4.62,0,.71.18,1.6.18,2.31v1.6c0,.53-.18,1.07-.35,1.6-.18.71-.18,1.42-.35,1.95v.36l-2.12-.53-3.7-.36c-.35,0-.71,0-.88.18l-2.47,1.6c-.35.36-.71.71-1.06,1.07-.18.36-.53.89-.71,1.6v.18l.18.18c.53,0,1.06,0,1.41-.18.18.53.35,1.24.35,1.78h-.18c-.35.18-.53.53-.71.89-.18.36-.35.89-.35,1.42,0,.18,0,.36.18.36.53.18,1.06.18,1.41.18h.35c.18.89.35,1.78.71,2.67v.18c.18.71,1.06,1.07,1.76.89l3-1.07c.18,1.07.35,2.13.53,3.2.18,1.42.53,3.2.88,4.8.18.71.35,1.6.71,2.49.35.71.53,1.42.88,2.13.71,1.6,1.41,3.02,2.12,4.44.18.18.35.36.53.36h.35c1.06-.53,1.94-.89,2.82-1.42.88-.53,1.76-.89,2.65-1.42.18,0,.18-.18.18-.36s-.18-.18-.35-.18c-1.06.36-1.94.71-2.82,1.07-.71.18-1.41.53-2.29.89l-.18-.53c-.35-1.07-.88-2.31-1.23-3.38-.35-.71-.53-1.6-.71-2.31-.18-.71-.35-1.6-.53-2.13-.18-.89-.18-1.6-.35-2.31l-.18-2.49c-.18-1.07-.35-2.31-.35-3.38l-.35-1.24v-.18c-.18-.71-.88-1.07-1.59-.89l-3.18,1.07c-.53-2.13-1.06-4.26-1.59-6.57l1.23-.89,2.29.53,2.47.53c.35.53.71,1.24,1.23,1.78.18.36.53.71.71,1.07.71,1.07,1.23,2.13,1.94,3.2.71,1.24,1.41,2.31,1.76,3.38.18.36.18.53.35.89,0,.18.18.36.18.53s0,.18.18.36l.53,1.95c0,.18.18.18.35.18s.18-.18.18-.36l-.35-2.31c0-.18,0-.53-.18-.71,0-.36-.18-.71-.35-1.07-.35-1.24-.88-2.49-1.59-3.73-.53-1.24-1.24-2.49-1.76-3.55-.35-.71-.71-1.42-1.23-2.13.18-.36.18-.53.35-.89.18-.36.18-.71.35-1.24,0-.53.18-1.07.18-1.6.18-.53.18-1.24.18-1.95v-1.07c0-.36-.18-.71-.18-1.07-.53-2.13-1.06-4.26-1.94-6.4.53.18,1.23.36,1.76.36.18,0,.35,0,.35-.18s0-.36-.18-.36c-.71-.36-1.59-.71-2.47-1.07-.53-.18-.88-.36-1.23-.53-.53-.18-.88-.53-1.23-.71q-.18-.18-.35-.36c-.18-.18-.18-.36-.35-.53-.18-.36-.35-.89-.53-1.42-.18-.89-.53-1.78-.71-2.84,0-.18-.18-.36-.35-.53l-2.82-2.31,1.06-1.07.88.71c.18.18.53.36.71.53.18.18.35,0,.35,0,.18-.18.18-.36,0-.36l-.71-1.24-.35-.36.53-.53c.35-.36.71-.71,1.06-1.07,2.29.89,4.23,1.6,6,2.31,2.12.71,4.41,1.6,6.7,2.49h.35c.71,0,1.23,0,1.94.18.71,0,1.59.18,2.29.18-.35,1.07-.88,2.13-1.23,3.2-.18.53,0,1.07.53,1.24l.88.36c-.18.71-.53,1.24-.71,1.95l-.18.53c-.18.71-.53,1.42-.71,1.95-1.06.36-1.94.71-2.82,1.07-.18,0-.18.18-.18.36s.18.18.35.18c.35,0,.71-.18,1.06-.18.18,1.78.71,3.38,1.06,4.62.53,1.42,1.23,3.38,1.76,4.8-.18.18-.35.36-.53.53-.35.36-.53.89-.88,1.24-.35.53-.53.89-.71,1.42-.53,1.78-.53,3.55-.18,5.86,0,.18.18.36.35.36s.35-.18.35-.36c.18-1.6.53-3.55,1.23-5.15.35-.71.88-1.24,1.41-1.95.53-.53,1.23-1.24,1.94-1.78l.18-.18c.71-.53,1.23-1.07,1.94-1.78.71-.71,1.23-1.42,1.76-2.13v-.18c.53-.71.88-1.24,1.59-2.13,0,.53.18.89.18,1.42.18,1.42.18,3.02.18,4.44s-.18,2.84-.53,4.26c-.35,1.42-.88,2.84-1.59,4.09,0,.18,0,.36.18.36.18.18.35.18.35,0,.53-.53,1.23-1.07,1.94-1.78.53-.53,1.06-1.24,1.59-1.78l.18-.18c.53-.53,1.06-1.24,1.41-1.95l.18-.18c.18.53.18,1.24.35,1.78.18,1.42.35,2.84.53,4.09.18,1.6.18,2.84,0,3.91,0,.18,0,.36-.18.53v.36c0,.18-.18.53-.18.71v.18c-.18.53-.53,1.07-.88,1.42-.71.89-1.59,1.6-2.29,2.49l-.71.71c-.88.89-1.76,1.95-2.65,3.2-.18.18-.18.36-.35.53v.18c0,.18-.18.18-.18.36v.18c0,.18-.18.36-.18.53s-.18.36-.18.53c-.18.71-.18,1.6,0,2.31,0,.53,0,1.24.18,1.78,0,.89.18,1.6.18,2.49,0,.18.18.36.35.36s.35,0,.35-.18c.18-1.07.35-2.31.53-3.38v-.89c0-.53.18-1.42.35-1.95q0-.18.18-.36l.18-.53s0-.18.18-.18c0,0,0-.18.18-.18,0-.18.18-.18.18-.36.35-.53.88-1.07,1.23-1.42,1.06,2.13,2.12,4.26,3.7,6.22,1.41,1.95,3,3.55,4.76,4.97-.53.36-1.06.71-1.76,1.07-.35.18-.71.36-1.06.71-.18.18-.35.36-.53.53-.18.18-.35.36-.35.53-.53.71-.88,1.6-1.06,2.49,0,.36-.18.89-.18,1.24v.71c0,.36.18.89.35,1.24.18.36.53.71.71.89.18.18.35.36.53.53l.35.18c.18,0,.35.18.35.18.18.18.53.18.71.18,1.06.18,1.94.18,2.65,0,.71-.18,1.59-.36,2.47-.71.18-.18.53-.36.71-.53.18-.18.35-.36.53-.53.35-.36.53-.71.71-1.07l.18-.18c.18-.18.35-.53.35-.71.18-.18.35-.36.35-.53l1.94-1.07c.53-.36,1.23-.71,1.94-1.24.35-.18.71-.53,1.06-.89.35-.36.71-.89.88-1.6.18-.71.18-1.6.18-2.13.71-.18,1.41-.36,1.94-.36h2.29c.88.18,1.59.36,2.29.53.53.18,1.06.36,1.76.71,0,.18,0,.36-.18.53-.18.71-.18,1.42-.18,2.31,0,.53.18,1.07.35,1.42.18.53.71.89,1.06,1.24.35.18.53.36.88.36l.35.18c0,1.24-.18,2.31-.53,3.38-.35,1.24-1.06,2.49-1.76,3.55-.35.53-.88,1.07-1.24,1.6-.35.53-.88.89-1.41,1.42-1.06,1.07-2.12,1.78-3.18,2.31-2.29,1.24-4.94,1.95-7.59,1.78-1.06,0-2.47-.18-3.88-.53-1.23-.18-2.47-.53-3.88-1.07-4.59-1.78-9-4.97-13.05-9.59-3.35-3.73-6.53-8.35-9.88-13.86,0-.18-.18-.18-.35-.18s-.18.18-.18.36c.88,2.31,2.12,4.8,3.88,7.82,1.59,2.84,3.35,5.15,4.94,7.28,1.94,2.31,4.06,4.44,6.17,6.22,2.29,1.78,4.94,3.38,7.76,4.44,1.59.53,3,.89,4.23,1.24,1.41.18,2.82.53,4.41.53,3.18,0,6.17-.89,8.64-2.49.35-.18.88-.53,1.41-.89,1.23,1.07,2.65,1.6,4.23,1.95,1.94.36,4.06,0,5.82-.89,1.76-.71,3.18-1.95,4.59-3.55,1.06-1.24,1.94-2.67,2.65-4.09h.35c.35,0,.53-.18.71-.18.53-.18,1.06-.53,1.23-.89.18-.18.35-.53.35-.71.18-.18.18-.53.18-.71.18-.89.18-1.6,0-2.31.71-1.07,1.23-2.13,1.76-3.2.53-1.95,1.06-3.55,1.59-5.15ZM85.91,54.01c-.18-.18-.35-.36-.53-.53l-.53-1.95-.53-1.42v-.18c-.35-.53-1.06-.71-1.59-.53l-1.59,1.07-.71.36c-.35-.36-.71-.53-1.06-.71-1.23-.53-2.47-.71-3.7-.53-.35,0-.71.18-.88.18-.35,0-.53.18-.88.36-.53.18-1.06.53-1.41.71-.88.36-1.76.89-2.47,1.24,0-.89.18-1.95.53-2.84.35-.89.88-1.78,1.76-2.66.71-.71,1.59-1.42,2.65-1.95.53-.18.88-.36,1.41-.53.35-.18.71-.18,1.06-.36.18,0,.35-.18.53-.18,1.06-.18,2.12-.36,3.18-.36s1.94.36,2.65.89c.71.53,1.41,1.24,1.94,2.13.18.36.53.89.71,1.42.18.53.35.89.53,1.42v.18c.71,2.13,1.23,4.44,1.76,6.75-1.06-.53-1.94-1.24-2.82-1.95ZM57.69,84.93c-.88.53-1.59,1.07-2.47,1.6q-.18.18-.35.36c-.35-.18-.88-.36-1.23-.53-.18,0-.35-.18-.35-.18-.35-.18-.53-.18-.88-.36l-.88-.36c-.35-.89-.71-1.6-.88-2.31-.35-.71-.71-1.42-.88-2.13.18-.71.18-1.42.35-2.13,1.59-.18,3-.18,4.41-.36.18.36.53.71.71,1.07.18.36.53.71.88,1.24.18.18.35.36.35.53.35.36.53.71.88,1.07.18.18.35.36.53.53.18.36.53.71.71,1.07l-.88.89ZM133.9,149.78c-.18.18-.53.36-.88.36s-.71-.18-.88-.36c-.18-.18-.35-.53-.35-.89,0-.71.53-1.42,1.41-1.42.35,0,.71.18.88.36.18.18.35.53.35.89s-.35.71-.53,1.07ZM136.19,120.64c-.35,3.73-.53,7.28-1.06,10.84-.53,3.73-1.06,7.28-1.76,10.84-.18.89-.35,1.95-.71,3.02h-.35c-.71-3.38-1.41-6.93-2.29-10.84-1.23-4.97-2.29-9.95-3.7-14.75-.18-.53-.35-1.07-.35-1.6q.18-.18.35-.36c.53-.71.88-1.6.88-2.49h.35c1.06-.18,2.29-.36,3.53-.53,1.24-.18,2.47-.36,3.35-.53.35.53,1.06,1.07,1.76,1.24v5.15ZM124.37,112.11c-.71-2.49-1.41-4.8-1.94-6.93-1.23-4.09-2.29-7.82-3.53-11.37.35-.18.53-.36.88-.53.88,1.24,1.76,2.31,2.47,3.2.71.71,1.23,1.6,1.94,2.31l.53.53c.71.89,1.41,1.6,2.12,2.49l.35.36c1.59,1.95,3.35,3.73,4.94,5.51.88.89,1.76,1.95,2.65,2.84-.53.36-.71.89-.71,1.42-1.06.36-2.12.53-3.35.89-1.23.36-2.29.71-3.35,1.07l-.35.18c-.53-1.07-1.41-1.78-2.65-1.95ZM125.43,115.49c0,.36-.18.71-.35.89-.18.18-.53.36-.88.36s-.71-.18-.88-.36c-.18-.18-.35-.53-.35-.89s.18-.71.35-.89c.18-.18.53-.36.88-.36.53-.18,1.06.36,1.23,1.24ZM137.25,110.87c.71,0,1.24.53,1.41,1.24,0,.71-.53,1.42-1.23,1.42-.35,0-.71-.18-.88-.36-.18-.18-.35-.53-.35-.89s.18-.71.35-.89c0-.36.35-.53.71-.53ZM134.08,85.64c.18-.18.53-.36.88-.36.71,0,1.23.53,1.41,1.24,0,.71-.53,1.42-1.24,1.42-.35,0-.71-.18-.88-.36-.18-.18-.35-.53-.35-.89-.18-.36,0-.71.18-1.07ZM134.61,89.9c.35,2.66.71,5.51,1.06,8.53.35,3.38.53,6.75.53,9.95-.71-.89-1.59-1.78-2.47-2.66-1.59-1.78-3.35-3.55-5.12-5.33l-.35-.36c-.71-.71-1.41-1.6-2.29-2.31l-.53-.53c-.71-.71-1.41-1.42-2.12-2.13-.88-.89-1.94-1.78-3.18-2.84.18-.36.35-.71.35-1.07,2.47-.53,4.59-1.24,6.53-1.78,1.59-.53,3.18-.89,4.59-1.42.18.36.35.71.71,1.07.88.53,1.59.89,2.29.89ZM125.43,146.22l-.71-2.49c-1.23-4.44-2.47-9.06-3.7-13.5-.53-2.13-1.23-4.26-1.76-6.4l-11.29-39.98,2.82-.36c.35,0,.71-.18,1.06-.18.71-.18,1.41-.18,2.12-.36,2.47-.36,4.59-.89,6.53-1.42,2.29-.53,4.41-1.07,6.35-1.78.88-.36,2.12-.71,3.18-1.07.88-.36,1.59-.53,2.12-.89.53,2.13.88,3.91,1.24,5.69-.35.18-.71.36-.88.71-.53.71-.88,1.42-.88,2.31-1.59.18-3.18.53-4.76.89-1.94.36-4.06.89-6.53,1.42-.18-.18-.35-.53-.53-.71-.71-.71-1.41-.89-2.29-.89-1.76,0-3.35,1.6-3.18,3.55,0,1.78,1.59,3.38,3.35,3.38h.18c.71,3.55,1.41,7.28,2.47,11.55.53,2.31,1.06,4.62,1.76,7.11q-.18.18-.35.36c-.53.71-.88,1.6-.88,2.49s.35,1.78,1.06,2.31c.53.53,1.06.71,1.76.89.18.53.35,1.07.35,1.6,1.23,4.8,2.65,9.77,4.06,14.57,1.23,3.91,2.29,7.46,3.35,10.66-1.06.53-1.76,1.78-1.76,3.02s.71,2.31,1.76,2.84c-.18.36-.18.89-.35,1.24-.71,2.49-1.23,4.62-1.94,6.57-1.41-4.26-2.65-8.88-3.7-13.15ZM118.9,90.79c0,.36-.18.71-.35.89-.18.18-.53.36-.88.36s-.71-.18-.88-.36c-.18-.18-.35-.53-.35-.89s.18-.71.35-.89c.18-.18.53-.36.88-.36s.71.18.88.36c.18.18.35.53.35.89ZM84.86,165.95c0,.89-.18,1.6-.35,2.31-.18.71-.18,1.42-.53,2.31l-.18.71c-.35,1.24-.71,2.66-.88,4.09-.18,1.6-.35,3.2-.35,4.97v.18c0,.53.18.89.18,1.24s.18.71.18.89c.18.71.18,1.42,0,1.78,0,.18-.18.36-.18.36-.18.18-.35.36-.71.53-.53.36-1.06.71-1.76,1.07l-1.41.71-.53.36c-.53.36-.88.71-1.06,1.07-.18.36-.35.53-.53.71l-.18.18c-.18.18-.35.53-.53.71,0,.18-.18.18-.18.18,0,0-.18,0-.18.18-.35.18-1.06.36-1.76.53h-2.12l-.18-.18c-.18-.18-.35-.18-.35-.18v-.36c0-.36,0-.71.18-1.07.18-.71.35-1.24.71-1.6.35-.53.53-.71,1.23-1.24.53-.36,1.23-.89,1.76-1.07,1.23-.71,2.65-1.42,3.88-1.95.53-.18.71-.71.71-1.42-.35-1.78-.53-3.38-.71-4.62-.18-1.6-.35-3.2-.53-4.62-.18-1.78-.35-3.2-.35-4.62v-4.97c-.35-1.42-.88-2.84-1.24-4.44-.35-1.42-.53-2.84-.71-4.62-.18-1.6-.18-3.02,0-4.62,0-1.07.18-2.13.18-3.02.35.36.53.53.88.71,1.94,1.42,4.23,2.49,6.7,2.84,1.06.18,2.12.36,3.18.36,0,.53-.18,1.24-.18,1.78-.18.89-.18,1.95-.35,3.02-.18.89-.35,1.95-.53,3.02-.35,1.07-.53,1.95-.88,2.84v.36c-.18,1.42-.18,3.02-.35,4.62ZM94.56,166.66c-.18,1.6-.18,3.2-.18,4.8l.35,4.62c0,1.42.18,2.84,0,4.26l-.35.71c-.18.36-.18.71-.35,1.07-.35-.36-.71-.71-1.06-1.07-.88-.71-1.94-1.07-3-1.24h-.88c-.88,0-1.76.18-2.47.53-.53.36-1.06.71-1.59,1.07v-.36c0-.36-.18-.71-.18-1.07,0-1.78,0-3.2.18-4.44.18-1.24.35-2.49.71-3.91l.18-.71c.35-1.42.53-3.02.53-4.97,0-1.42,0-3.02-.18-4.8.35-.89.53-1.78.71-2.84.18-1.07.35-2.13.35-3.2.18-1.6.18-3.2.18-4.97,1.06,0,2.12,0,3.18-.18,1.06-.18,2.29-.36,3.35-.71,0,1.78,0,3.73.18,5.69.18,2.13.35,4.44.71,6.93,0,1.6-.18,3.02-.35,4.8ZM103.38,199.17c-1.41,1.24-2.82,2.13-4.23,2.67-1.59.71-3,1.07-4.59,1.07-1.06,0-2.12-.18-3.35-.53,1.41-1.24,2.82-2.84,3.88-4.62.88-1.42,1.41-2.84,1.59-4.26.18-1.07.18-2.13.18-3.2h.18c.53.18.88.36,1.23.71.18.18.53.36.53.36,0,0,.18.18.18.36s.18.36.18.53c.18.36.35.89.71,1.24.18.18.35.36.53.53l.18.18.35.18c.35.18.53.36.88.53.53.36,1.23.53,1.94.71.71.18,1.41.36,1.94.53h.18c-.53,1.24-1.41,2.13-2.47,3.02ZM107.97,193.48v.18l-.18.18h-.35c-.18,0-.53,0-.71-.18-.53-.18-1.06-.18-1.59-.53-.53-.18-1.06-.36-1.59-.71-.18-.18-.53-.18-.71-.36-.18,0-.18-.18-.18-.18l-.18-.18c-.18-.18-.35-.53-.53-.89-.18-.18-.18-.36-.35-.71v-.18c-.18-.36-.35-.53-.71-1.07-.35-.36-.71-.53-.88-.71-.53-.36-1.24-.53-1.76-.89l-.88-.36c-.35-.18-.53-.18-.71-.36,0,0-.18,0-.18-.18s-.18-.36-.18-.53v-1.6c.18-.53.18-1.07.35-1.78.18-.36.18-.53.35-.89v-.71c0-1.42,0-3.02-.18-4.8l-.53-4.62c-.18-1.78-.18-3.2-.18-4.62,0-1.6.35-3.2.53-4.44v-.36c-.18-1.07-.53-2.31-.71-3.38-.18-1.24-.35-2.49-.53-3.38-.18-1.07-.35-2.31-.35-3.55,0-.71-.18-1.42-.18-2.13.88-.18,1.76-.53,2.65-.71,2.47-.71,4.59-1.78,6.53-2.84.53-.36.88-.53,1.41-.89,0,1.07.18,2.31.18,3.73,0,1.78-.18,3.55-.35,5.51-.18,1.6-.35,3.2-.88,5.33-.35,1.6-.88,3.2-1.59,5.15v.36c-.18,2.66-.35,5.69-1.06,9.24-.35,1.78-.53,3.2-.71,4.62-.35,1.78-.53,3.2-.88,4.62-.18.53,0,1.07.53,1.24,1.06.89,1.94,1.6,2.82,2.31.18.18.53.36.71.53.18.18.35.36.53.53.35.36.71.89,1.23,1.42.35.53.71.89,1.06,1.42.18.36.35.53.35.71.18.18.18.36.18.53.35,0,.35.53.35,1.07ZM110.79,187.62c-.18.89-.53,1.6-.88,2.49-.18-.36-.35-.53-.53-.71-.35-.53-.71-1.07-1.24-1.6-.35-.53-.88-1.07-1.23-1.42-.18-.18-.53-.53-.71-.71-.18-.18-.35-.18-.35-.36.35-.36.71-.71,1.06-1.07.53-.53.88-1.24,1.41-1.95.71-1.24,1.41-2.84,2.12-4.44.53-1.42.88-2.84,1.41-4.62l.35-1.24c0-.18.18-.53.18-.71s0-.36.18-.36c0-.18,0-.36.18-.36,0-.18.18-.36.18-.71l.35-1.07c1.06-2.66,2.82-5.15,5.12-7.11,1.94-1.6,4.23-2.84,7.41-4.26.18.71.35,1.24.53,1.95l.18.36c-1.41.18-2.82.71-4.06,1.24-1.59.71-3,1.78-4.23,3.02-1.23,1.24-2.12,2.67-3,4.44-.71,1.42-1.23,3.2-1.59,4.97-.18,1.07-.35,1.95-.35,3.02,0,.71-.18,1.42-.35,1.95-.18,1.6-.53,3.2-.88,4.8-.35,1.42-.88,3.02-1.23,4.44Z"/>
    <path class="cls-1" d="M152.42,137.16l2.12-.71-2.12.71Z"/>
    <path class="cls-1" d="M159.3,136.81l-9.7-5.51h-.18l-.18.18-.18,1.07q0,.18.18.18l2.82,1.6-.35,3.55-3,1.07c-.18,0-.18.18-.18.18l-.18,1.78s0,.18.18.18h.18l10.94-3.73c.18,0,.18-.18.18-.18q0-.18-.18-.18l-.35-.18ZM153.13,137.52l.18-2.31.71.36,1.94,1.07-2.82.89Z"/>
    <path class="cls-1" d="M10.58,133.26l10.41,3.73h.18l.18-.18v-1.07q0-.18-.18-.18l-3-1.07-.35-3.55,2.82-1.6.18-.18-.18-1.78s0-.18-.18-.18h-.18l-10.23,5.51-.18.18q0,.18.18.18l.53.18ZM16.58,131.48l.18,2.31-.71-.18-2.12-.71,2.65-1.42Z"/>
    <path class="cls-1" d="M10.94,102.34l9.53,5.69h.18l.18-.18.18-1.07q0-.18-.18-.18l-2.65-1.78.35-3.55,3-.89c.18,0,.18-.18.18-.18l.18-1.78s0-.18-.18-.18h-.18l-10.94,3.55c-.18,0-.18.18-.18.18q0,.18.18.18l.35.18ZM17.11,101.81l-.35,2.31-.71-.36-1.94-1.07,3-.89Z"/>
  </g>
</svg>