<svg width="170" height="77" viewBox="0 0 170 77" fill="none" xmlns="http://www.w3.org/2000/svg">
<path d="M27.0966 0C12.1429 0 0 17.2684 0 38.5C0 59.7316 12.1429 77 27.0966 77C42.0503 77 54.1931 59.7316 54.1931 38.5C54.2493 17.2684 42.0503 0 27.0966 0ZM53.0126 38.5C53.0126 59.0522 41.4319 75.7544 27.1528 75.7544C12.8737 75.7544 1.29299 59.0522 1.29299 38.5C1.29299 17.9478 12.9299 1.24559 27.1528 1.24559C41.3757 1.24559 53.0126 17.9478 53.0126 38.5Z" fill="white"/>
<path d="M16.078 65.2798L12.6488 66.582L12.5926 66.6386V66.6952L12.8175 66.9217C12.8175 66.9217 12.8737 66.9783 12.9299 66.9217L15.1786 66.0724L14.3353 68.3938C14.3353 68.4504 14.3353 68.4504 14.3353 68.507L14.7288 68.9033H14.7851C14.7851 68.9033 14.8413 68.9033 14.8413 68.8467L16.1905 65.2798C16.1905 65.2232 16.1905 65.2232 16.1905 65.1666C16.1343 65.2798 16.078 65.2798 16.078 65.2798Z" fill="white"/>
<path d="M36.4848 66.8093C36.4286 66.8093 36.4286 66.8093 36.3723 66.8093C36.3723 66.8093 36.3161 66.8659 36.3723 66.9225L37.328 70.6027C37.328 70.6027 37.328 70.6593 37.3842 70.6593H37.4405L37.7215 70.4328C37.7215 70.4328 37.7778 70.3762 37.7215 70.3196L37.0469 67.885L39.2394 68.9608C39.2956 68.9608 39.2956 68.9608 39.3518 68.9608L39.8016 68.6211L39.8578 68.5644C39.8578 68.5644 39.8578 68.5078 39.8016 68.5078L36.4848 66.8093Z" fill="white"/>
<path d="M3.14814 39.0664L6.57737 37.5944C6.63359 37.5944 6.63359 37.5378 6.63359 37.5378C6.63359 37.4811 6.63359 37.4811 6.57737 37.4811L3.26057 35.8392H3.20436L3.14814 35.8959V36.2356C3.14814 36.2922 3.14814 36.2922 3.20436 36.2922L5.3406 37.3679L3.09192 38.3304C3.03571 38.3304 3.03571 38.387 3.03571 38.387V38.9532C3.03571 39.0098 3.03571 39.0098 3.14814 39.0664C3.09192 39.0664 3.09192 39.0664 3.14814 39.0664Z" fill="white"/>
<path d="M20.1819 68.6773C20.1256 68.6773 20.0694 68.6773 20.0694 68.7339L19.451 69.8663C19.3386 69.8096 19.2824 69.753 19.17 69.753L19.1137 69.5832C19.0013 69.017 18.8889 68.4508 18.7202 68.1677C18.6078 67.9413 18.4954 67.7714 18.2705 67.6016C18.2143 67.5449 18.158 67.5449 18.0456 67.4883C17.9332 67.4317 17.7083 67.4317 17.7083 67.4317C17.6521 67.4317 17.6521 67.4317 17.6521 67.4883C17.6521 67.5449 17.6521 67.5449 17.7083 67.6016C17.7083 67.6016 17.8207 67.6582 17.877 67.7714C17.9894 67.8846 18.1018 68.1111 18.1581 68.3376C18.2705 68.6207 18.3829 69.1302 18.4954 69.5832C18.1581 69.5832 17.8207 69.753 17.6521 70.0361C17.4834 70.3192 17.4834 70.5457 17.5397 70.8288C17.6521 71.1118 17.877 71.3383 18.2705 71.5648L18.9451 71.9611C18.9451 71.9611 18.9451 71.9611 19.0013 71.9611C19.0013 71.9611 19.0575 71.9611 19.0575 71.9045L20.6878 69.0736V69.017C20.6878 69.017 20.6878 68.9604 20.6316 68.9604L20.1819 68.6773ZM18.664 71.2251C18.4391 71.1119 18.0456 70.7721 18.2705 70.2626C18.3267 70.0927 18.4391 70.0361 18.6078 69.9795C18.664 69.9795 18.7202 69.9795 18.7202 69.9795C18.8889 69.9795 19.0575 70.0361 19.2262 70.1494L18.664 71.2251Z" fill="white"/>
<path d="M32.9431 8.03999L35.8092 5.54881C35.8092 5.54881 35.8654 5.49219 35.8092 5.49219C35.8092 5.49219 35.8092 5.43558 35.753 5.43558L35.472 5.26572C35.4158 5.26572 35.4158 5.26572 35.3596 5.26572L33.5051 6.85102L33.5613 4.35984C33.5613 4.30322 33.5613 4.30322 33.5051 4.30322L32.9993 4.07675H32.9431L32.8869 4.13337V7.92675C32.8869 7.98337 32.8869 7.98337 32.9431 8.03999Z" fill="white"/>
<path d="M36.541 10.0783C36.5972 10.1349 36.5972 10.1349 36.6535 10.0783L38.34 8.20991L38.5086 11.8901V11.9467L38.6211 12.0599H38.6773H38.7335L40.926 9.62535V9.56873V9.51212L40.7011 9.28565C40.6449 9.22903 40.6449 9.22903 40.5886 9.28565L39.0708 10.9842L38.9584 7.70035V7.64374L38.6211 7.30403C38.5648 7.24741 38.5648 7.24741 38.5086 7.30403L36.3162 9.73859V9.79521V9.85182L36.541 10.0783Z" fill="white"/>
<path d="M40.42 14.0983V14.1549L40.701 14.5513L40.7572 14.6079H40.8134L43.3423 12.5697C43.3985 12.5697 43.3985 12.513 43.3423 12.4564L43.0613 12.0601L43.0051 12.0035H42.9489L40.42 14.0983Z" fill="white"/>
<path d="M42.6686 17.9482L42.7249 18.0048L46.379 17.7217C46.379 17.7217 46.4352 17.7217 46.4352 17.6651V17.6085L46.2665 17.3254C46.2665 17.2688 46.2103 17.2688 46.2103 17.2688L43.793 17.4386L45.2546 15.457C45.2546 15.457 45.2546 15.4004 45.2546 15.3438L44.9735 14.8342L44.9173 14.7776C44.9173 14.7776 44.8611 14.7776 44.8611 14.8342L42.6124 17.835C42.6686 17.835 42.6124 17.8916 42.6686 17.9482Z" fill="white"/>
<path d="M46.0417 21.3447L46.3227 22.0807C46.3227 22.1373 46.379 22.1373 46.4352 22.1373L46.7163 22.0241C46.7725 22.0241 46.7725 21.9674 46.7725 21.9108L46.4914 21.1748L47.4471 20.7785L47.8406 21.8542C47.8406 21.8542 47.8406 21.9108 47.8968 21.9108H47.953L48.2341 21.7976C48.2903 21.7976 48.2903 21.741 48.2903 21.6844L47.672 20.0991C47.672 20.0991 47.672 20.0424 47.6157 20.0424H47.5595L44.58 21.2314C44.5238 21.2314 44.5238 21.288 44.5238 21.3447L45.1422 22.9299C45.1422 22.9299 45.1422 22.9866 45.1984 22.9866C45.1984 22.9866 45.1984 22.9866 45.2546 22.9866C45.2546 22.9866 45.2546 22.9866 45.3108 22.9866L45.5919 22.8733C45.6481 22.8733 45.6481 22.8167 45.6481 22.7601L45.2546 21.6844L46.0417 21.3447Z" fill="white"/>
<path d="M48.6277 30.6872C48.5152 31.0269 48.4028 31.3666 48.1217 31.4232C48.0655 31.4232 48.0655 31.4232 48.0093 31.4232C47.8406 31.4232 47.7282 31.2534 47.672 31.1401V31.0835C47.672 31.0269 47.672 30.9703 47.672 30.9137C47.672 30.6872 47.8406 30.3475 48.0093 30.1776L48.1217 30.0644C48.1217 30.0644 48.1779 30.0078 48.1217 29.9512C48.1217 29.8945 48.0655 29.8945 48.0655 29.8945L47.5033 30.0078C47.5033 30.0078 47.4471 30.0078 47.4471 30.0644C47.2785 30.2909 47.2222 30.6872 47.2785 30.9703C47.3347 31.4798 47.7282 32.046 48.2904 32.046C48.3466 32.046 48.4028 32.046 48.4028 32.046C49.0212 31.9328 49.1898 31.3666 49.3585 30.9137C49.4709 30.5739 49.5834 30.2342 49.8644 30.2342C49.9207 30.2342 49.9207 30.2342 49.9769 30.2342C50.0893 30.2342 50.2017 30.3475 50.258 30.5173V30.5739C50.258 30.6306 50.258 30.6306 50.258 30.6872C50.258 30.857 50.1455 31.1401 49.9769 31.31L49.8644 31.4232C49.8644 31.4232 49.8644 31.4798 49.8644 31.5364C49.8644 31.5931 49.9207 31.5931 49.9207 31.5931L50.4828 31.4798C50.4828 31.4798 50.5391 31.4798 50.5391 31.4232V31.3666C50.6515 31.0835 50.7077 30.857 50.6515 30.5739C50.5953 30.3475 50.4828 30.0644 50.3142 29.8945C50.1455 29.7247 49.9207 29.5548 49.5834 29.6114C48.965 29.7247 48.7401 30.2342 48.6277 30.6872Z" fill="white"/>
<path d="M47.6157 34.4807L47.6719 34.9903V35.0469H47.7282L50.9325 34.8204C50.9887 34.8204 50.9887 34.7638 50.9887 34.7072L50.9325 34.1976V34.141H50.8763L47.6719 34.3675C47.6157 34.4241 47.6157 34.4807 47.6157 34.4807Z" fill="white"/>
<path d="M51.1012 37.2541H51.045H50.7639C50.7077 37.2541 50.7077 37.3107 50.7077 37.3107V38.443L47.8406 38.3864H47.7844V38.443V38.9526C47.7844 39.0092 47.8406 39.0092 47.8406 39.0092L50.7077 39.0658V40.1982V40.2548H50.7639H51.045C51.1012 40.2548 51.1012 40.1982 51.1012 40.1982L51.1574 37.2541C51.1012 37.3107 51.1012 37.2541 51.1012 37.2541Z" fill="white"/>
<path d="M49.4147 47.5589C48.8525 47.4456 48.5152 47.842 48.1779 48.2383C47.9531 48.5214 47.7282 48.8045 47.4471 48.7479C47.3909 48.7479 47.3909 48.7479 47.3347 48.6912C47.166 48.6346 47.1098 48.4648 47.1098 48.2949V48.2383C47.1098 48.1817 47.1098 48.1251 47.166 48.0684C47.2222 47.842 47.5033 47.6155 47.7282 47.5023L47.8968 47.4456C47.9531 47.4456 47.9531 47.389 47.9531 47.389C47.9531 47.3324 47.8968 47.3324 47.8968 47.3324L47.3347 47.2192H47.2785C47.0536 47.389 46.8849 47.6721 46.8287 48.0118C46.7163 48.578 46.9412 49.2574 47.5595 49.3706C48.1779 49.4839 48.5152 49.0309 48.8525 48.6912C49.1336 48.3515 49.3023 48.1817 49.5271 48.1817C49.5834 48.1817 49.5834 48.1817 49.6396 48.2383C49.752 48.2949 49.8082 48.4648 49.8082 48.578V48.6346C49.8082 48.6912 49.8082 48.6912 49.752 48.7479C49.6958 48.9177 49.5271 49.0876 49.2461 49.2574L49.1336 49.314C49.0774 49.314 49.0774 49.3706 49.0774 49.3706C49.0774 49.4273 49.1336 49.4273 49.1336 49.4273L49.6958 49.5405H49.752C49.9769 49.314 50.0893 49.0876 50.1455 48.8045C50.2017 48.578 50.1455 48.2949 50.0893 48.0684C49.9769 47.8986 49.8082 47.6721 49.4147 47.5589Z" fill="white"/>
<path d="M44.9736 60.4673C44.4676 60.1842 44.0179 60.4673 43.6244 60.6938C43.2871 60.8636 43.006 61.0335 42.7811 60.9202C42.7249 60.9202 42.7249 60.8636 42.6687 60.8636C42.5562 60.7504 42.5562 60.5805 42.6125 60.4107C42.6125 60.4107 42.6125 60.4107 42.6125 60.3541C42.6125 60.2975 42.6687 60.2975 42.6687 60.2408C42.8373 60.071 43.1184 59.9577 43.3433 59.9011H43.5119C43.5681 59.9011 43.5681 59.8445 43.5681 59.8445C43.5681 59.8445 43.5681 59.7879 43.5119 59.7313L43.006 59.3916H42.9498C42.7249 59.4482 42.3876 59.6747 42.2752 59.9577C42.1065 60.2408 42.0503 60.5239 42.0503 60.807C42.0503 61.0901 42.2189 61.3732 42.4438 61.4864C43.006 61.8261 43.4557 61.4864 43.9054 61.26C44.2428 61.0335 44.4676 60.9202 44.6925 61.0335C44.7487 61.0901 44.8049 61.0901 44.8049 61.1467C44.8611 61.26 44.8611 61.3732 44.8611 61.4864C44.8611 61.4864 44.8611 61.543 44.8049 61.543C44.8049 61.5997 44.7487 61.5997 44.7487 61.6563C44.6363 61.7695 44.4114 61.8827 44.1303 61.9394H43.9617C43.9054 61.9394 43.9054 61.996 43.9054 61.996C43.9054 62.0526 43.9054 62.0526 43.9617 62.1092L44.4676 62.3923C44.4676 62.3923 44.4676 62.3923 44.5238 62.3923C44.5238 62.3923 44.5238 62.3923 44.5801 62.3923H44.6363C44.8611 62.2791 45.086 62.1092 45.2547 61.8261C45.3671 61.5997 45.4233 61.3732 45.4233 61.1467C45.3671 60.9202 45.2547 60.6372 44.9736 60.4673Z" fill="white"/>
<path d="M43.0622 64.3738H43.0059C43.0059 64.3738 42.9497 64.3738 42.9497 64.4305L42.2751 65.2797L40.0827 63.4113C40.0265 63.3547 39.9702 63.4113 39.9702 63.4113L39.6329 63.8077V63.8643C39.6329 63.8643 39.6329 63.9209 39.6892 63.9209L41.8816 65.7893L41.207 66.6385V66.6952C41.207 66.6952 41.207 66.7518 41.2632 66.7518L41.4881 66.9216H41.5443C41.5443 66.9216 41.6005 66.9216 41.6005 66.865L43.3995 64.6003C43.4557 64.5437 43.3995 64.4871 43.3995 64.4871L43.0622 64.3738Z" fill="white"/>
<path d="M33.6177 69.0732C33.6177 69.0166 33.5615 69.0166 33.5053 69.0166L32.8307 69.2997C32.1561 69.5827 31.7063 69.9791 31.4253 70.3754C31.1442 70.8283 31.088 71.3945 31.3128 71.9607C31.5939 72.5835 32.0436 72.9232 32.7182 72.9232C33.2242 72.9232 33.7302 72.6967 34.1237 72.5269L34.7983 72.2438C34.7983 72.2438 34.8545 72.2438 34.8545 72.1872V72.1305L33.6177 69.0732ZM33.8988 72.1305C32.8307 72.5835 32.1561 72.357 31.8188 71.5077C31.7063 71.2247 31.7063 70.9982 31.7626 70.7151C31.8188 70.6019 31.875 70.4886 31.9312 70.432C32.1561 70.2055 32.4372 69.9791 32.9431 69.7526L33.0555 69.696L34.0112 72.0739L33.8988 72.1305Z" fill="white"/>
<path d="M28.7829 70.5459H28.7267L28.2209 70.6025C28.1647 70.6025 28.1647 70.6592 28.1647 70.7158L28.4457 73.9996C28.4457 73.9996 28.4457 74.0562 28.5019 74.0562H28.5581L29.0639 73.9996C29.1201 73.9996 29.1201 73.943 29.1201 73.8864L28.7829 70.5459C28.8391 70.5459 28.8391 70.5459 28.7829 70.5459Z" fill="white"/>
<path d="M24.2857 70.2057C23.3862 70.0359 22.3181 70.4888 22.0933 71.6212C21.9808 72.1307 22.0933 72.5836 22.3743 72.98C22.6554 73.3763 23.0489 73.6028 23.6111 73.716C23.7235 73.716 23.8922 73.7726 24.0046 73.7726C24.7355 73.7726 25.5787 73.3197 25.8036 72.3572C25.916 71.8476 25.8036 71.3947 25.5225 70.9984C25.2414 70.602 24.8479 70.3189 24.2857 70.2057ZM25.129 72.1873C25.0728 72.527 24.9603 72.7535 24.7917 72.9234C24.623 73.0932 24.4544 73.2064 24.2295 73.2631C24.1171 73.2631 24.0046 73.2631 23.836 73.2631C23.33 73.1498 23.0489 72.8667 22.9365 72.6403C22.7679 72.3572 22.7116 72.0175 22.7679 71.7344C22.8241 71.3947 22.9365 71.1682 23.1052 70.9984C23.2738 70.8285 23.4425 70.7153 23.6673 70.6587C23.7235 70.6587 23.7798 70.6587 23.836 70.6587C23.8922 70.6587 24.0046 70.6587 24.0608 70.6587C24.5668 70.7719 24.8479 71.055 24.9603 71.2814C25.129 71.5645 25.1852 71.9042 25.129 72.1873Z" fill="white"/>
<path d="M13.5483 62.5628L13.3796 62.2797L13.3234 62.2231H13.2672L11.412 63.4687L12.6488 61.0907V61.0341L12.5926 60.9209L12.5364 60.8642L10.0628 60.9209L11.8055 59.7885L11.8618 59.7319V59.6753L11.5807 59.2223C11.5807 59.1657 11.5245 59.1657 11.4682 59.2223L8.76982 60.9775C8.71361 60.9775 8.71361 61.0341 8.76982 61.0907L8.93847 61.3738L8.99469 61.4304L11.8055 61.3738L10.5125 63.9216V63.9782L10.7374 64.3745L10.7936 64.4312H10.8498L13.5483 62.676C13.5483 62.676 13.5483 62.6194 13.5483 62.5628Z" fill="white"/>
<path d="M7.4768 48.5785L5.05947 49.0314L7.08328 45.9741V45.9175V45.7476C7.08328 45.691 7.02706 45.691 6.97084 45.691L3.8227 46.3138C3.8227 46.3138 3.76648 46.3138 3.76648 46.3704V46.427L3.8227 46.7101C3.8227 46.7667 3.87891 46.7667 3.93513 46.7667L6.12759 46.3704L4.27243 49.088V49.1447L4.32865 49.5976C4.32865 49.5976 4.32865 49.6542 4.38487 49.6542H4.44108L7.58923 49.0314C7.58923 49.0314 7.64545 49.0314 7.64545 48.9748V48.9182L7.53301 48.6917C7.53301 48.6351 7.4768 48.5785 7.4768 48.5785Z" fill="white"/>
<path d="M7.75799 26.0442C7.70177 26.0442 7.70177 26.0442 7.70177 26.1008C7.70177 26.1008 7.64556 26.214 7.58934 26.3273C7.4769 26.4971 7.30825 26.667 7.1396 26.7802C6.91474 26.9501 6.465 27.2898 6.07148 27.5162C5.95905 27.1765 5.67796 26.8935 5.39688 26.8368C5.11579 26.7802 4.83471 26.8368 4.66606 26.9501C4.44119 27.1199 4.27254 27.4596 4.16011 27.9126L3.99146 28.6486C3.99146 28.7052 3.99146 28.7618 4.04767 28.7618L7.19582 29.4979H7.25204L7.30825 29.4412L7.42069 28.9317C7.42069 28.8751 7.42069 28.8185 7.36447 28.8185L6.1277 28.5354C6.1277 28.4221 6.18392 28.3089 6.18392 28.1957L6.29635 28.139C6.8023 27.856 7.25204 27.5729 7.4769 27.3464C7.64556 27.1765 7.75799 27.0067 7.81421 26.7236C7.81421 26.667 7.87042 26.5537 7.87042 26.4971C7.87042 26.3273 7.81421 26.1574 7.81421 26.1574C7.87042 26.0442 7.81421 26.0442 7.75799 26.0442ZM5.73418 28.4221L4.55362 28.139V28.0824C4.60984 27.9126 4.77849 27.403 5.28444 27.5162C5.4531 27.5729 5.56553 27.6295 5.62175 27.7427C5.7904 27.9126 5.7904 28.139 5.73418 28.4221Z" fill="white"/>
<path d="M46.8849 28.3656C46.9411 28.4222 46.9411 28.4222 46.8849 28.3656C46.9411 28.3656 46.9411 28.3656 46.9973 28.3656C47.0535 28.3656 47.0535 28.309 47.0535 28.2524C47.0535 28.2524 47.0535 28.1392 47.0535 28.0259C47.0535 27.8561 47.166 27.6296 47.2222 27.4031C47.3346 27.12 47.6719 26.4973 47.8406 26.2708C48.1217 26.5539 48.459 26.6105 48.74 26.5539C49.0211 26.4973 49.246 26.3274 49.3584 26.1009C49.4709 25.8178 49.4709 25.4781 49.3584 25.0252L49.1336 24.2892C49.1336 24.2892 49.1336 24.2325 49.0774 24.2325H49.0211L45.9292 25.1384C45.9292 25.1384 45.873 25.1384 45.873 25.195V25.2517L45.9854 25.7612C45.9854 25.7612 45.9854 25.8178 46.0416 25.8178H46.0979L47.2784 25.4781C47.3346 25.5914 47.3346 25.7046 47.3908 25.7612L47.3346 25.8745C47.0535 26.384 46.7162 26.837 46.66 27.1767C46.6038 27.4031 46.5476 27.6296 46.6038 27.9127C46.6038 28.0259 46.66 28.0825 46.66 28.1392C46.7725 28.2524 46.8849 28.3656 46.8849 28.3656ZM48.8525 24.9686V25.0252C48.9087 25.195 48.9649 25.7612 48.459 25.9311C48.2903 25.9877 48.1779 25.9877 48.0654 25.8745C47.8968 25.7612 47.7844 25.5914 47.6719 25.3083L48.8525 24.9686Z" fill="white"/>
<path d="M10.0066 20.439C10.0628 20.439 10.0628 20.439 10.0628 20.439C10.0628 20.439 10.119 20.439 10.119 20.3824L10.8499 18.7971V18.7405C10.8499 18.7405 10.8499 18.6839 10.7936 18.6839L10.5688 18.5707C10.5125 18.5707 10.4563 18.5707 10.4563 18.6273L10.0066 19.6464L9.05091 19.2501L9.38821 18.514C9.38821 18.4574 9.38821 18.4008 9.33199 18.4008L9.10713 18.2876C9.05091 18.2876 8.99469 18.2876 8.99469 18.3442L8.65739 19.0802L7.7017 18.6273L8.15144 17.6082C8.15144 17.5515 8.15144 17.4949 8.09522 17.4949L7.87035 17.3817H7.81414C7.81414 17.3817 7.75792 17.3817 7.75792 17.4383L7.0271 19.0236C7.0271 19.0802 7.0271 19.1368 7.08332 19.1368L10.0066 20.439Z" fill="white"/>
<path d="M11.8055 16.9283C11.8617 16.9283 11.8617 16.9283 11.8617 16.9283C11.8617 16.9283 11.918 16.9283 11.918 16.8717L12.0866 16.5886C12.0866 16.532 12.0866 16.4754 12.0866 16.4754L10.0066 15.0599L13.5483 14.3239C13.5483 14.3239 13.6045 14.3239 13.6045 14.2673L13.6607 14.1541C13.6607 14.0974 13.6607 14.0408 13.6607 14.0408L10.9623 12.2291H10.9061C10.9061 12.2291 10.8498 12.2291 10.8498 12.2857L10.6812 12.5688C10.6812 12.6254 10.6812 12.682 10.6812 12.682L12.5364 13.9276L9.38821 14.5504C9.38821 14.5504 9.33199 14.5504 9.33199 14.607L9.0509 15.0033V15.0599C9.0509 15.0599 9.0509 15.1166 9.10712 15.1166L11.8055 16.9283Z" fill="white"/>
<path d="M14.6164 10.9273C14.9537 10.814 15.291 10.7574 15.4597 10.9273C15.5159 10.9839 15.5159 11.0405 15.5721 11.0405C15.6283 11.1537 15.6283 11.3236 15.5159 11.4368L15.4597 11.4934C15.4035 11.55 15.4035 11.55 15.3473 11.6067C15.1786 11.7199 14.8413 11.7765 14.6164 11.7199H14.4478C14.3916 11.7199 14.3916 11.7199 14.3916 11.7765C14.3916 11.8331 14.3916 11.8331 14.3916 11.8898L14.7851 12.3427H14.8413H14.8975C15.1224 12.3427 15.5159 12.1728 15.6846 11.9464C15.9094 11.7199 16.0219 11.4368 16.0781 11.2103C16.1343 10.9273 16.0219 10.6442 15.8532 10.4177C15.4035 9.96475 14.8413 10.1346 14.3916 10.2478C14.0543 10.3611 13.717 10.4177 13.5483 10.2478C13.5483 10.1912 13.4921 10.1912 13.4921 10.1346C13.4359 10.0214 13.4359 9.85152 13.5483 9.73828C13.5483 9.73828 13.5483 9.68166 13.6045 9.68166C13.6045 9.68166 13.6608 9.62505 13.717 9.62505C13.8856 9.51181 14.1105 9.45519 14.3916 9.51181H14.5602C14.6164 9.51181 14.6164 9.51181 14.6164 9.45519C14.6164 9.39858 14.6164 9.39858 14.6164 9.34196L14.2229 8.94563C14.2229 8.94563 14.1667 8.88902 14.1667 8.94563H14.1105C13.8294 9.00225 13.6045 9.11549 13.3797 9.34196C13.211 9.51181 13.0986 9.73828 13.0424 9.96475C12.9862 10.1912 13.0424 10.4743 13.2672 10.7574C13.6608 11.2103 14.1667 11.0405 14.6164 10.9273Z" fill="white"/>
<path d="M17.8764 9.7379L17.9326 9.79452H17.9888L18.3822 9.51143L18.4384 9.45481V9.3982L16.5838 6.73717C16.5838 6.68055 16.5276 6.68055 16.4714 6.73717L16.078 7.02025L16.0219 7.07687V7.13349L17.8764 9.7379Z" fill="white"/>
<path d="M20.2939 6.56747C20.6873 6.62409 20.9683 6.62409 21.0807 6.90718C21.0807 6.9638 21.1369 7.02041 21.1369 7.07703C21.1369 7.24689 21.0807 7.41674 20.9121 7.47336C20.9121 7.47336 20.9121 7.47336 20.8559 7.47336C20.7997 7.47336 20.7435 7.52997 20.7435 7.52997C20.5187 7.58659 20.1815 7.52997 20.0129 7.41674L19.8443 7.3035C19.7881 7.3035 19.7881 7.3035 19.7319 7.3035C19.7319 7.3035 19.6757 7.36012 19.7319 7.41674L19.9567 7.98291C19.9567 7.98291 19.9567 8.03953 20.0129 8.03953C20.1253 8.09615 20.2377 8.09615 20.3501 8.09615C20.5187 8.09615 20.7435 8.03953 20.9121 7.98291C21.4179 7.75644 21.8674 7.19027 21.5865 6.56747C21.3055 6.0013 20.7435 5.94468 20.2939 5.88806C19.9005 5.83144 19.6195 5.83144 19.5071 5.60497C19.5071 5.54836 19.5071 5.54836 19.4509 5.49174C19.4509 5.32188 19.5071 5.20865 19.6195 5.15203C19.6195 5.15203 19.6757 5.15203 19.6757 5.09541C19.7319 5.09541 19.7319 5.0388 19.7881 5.0388C19.9567 4.98218 20.2377 5.0388 20.4625 5.15203L20.6311 5.20865C20.6873 5.20865 20.6873 5.20865 20.7435 5.20865C20.7435 5.20865 20.7997 5.15203 20.7435 5.09541L20.5187 4.52924L20.4625 4.47262H20.4063C20.1253 4.416 19.9005 4.47262 19.6195 4.58586C19.3947 4.69909 19.2261 4.86894 19.1137 5.0388C19.0013 5.20865 18.8889 5.49174 19.0575 5.83144C19.2823 6.45424 19.8443 6.56747 20.2939 6.56747Z" fill="white"/>
<path d="M8.54494 24.2328L7.36438 23.8365C7.4206 23.7233 7.4206 23.61 7.4206 23.4968L7.58925 23.4402C8.0952 23.2137 8.60115 22.9873 8.88224 22.7608C9.05089 22.5909 9.21954 22.4777 9.33197 22.1946C9.33197 22.138 9.38819 22.0247 9.38819 21.9681C9.38819 21.7983 9.38819 21.6284 9.38819 21.6284C9.38819 21.5718 9.33197 21.5718 9.33197 21.5718C9.27576 21.5718 9.27576 21.5718 9.27576 21.6284C9.27576 21.6284 9.21954 21.7417 9.16332 21.8549C9.05089 22.0247 8.88224 22.138 8.65737 22.2512C8.4325 22.4211 7.92655 22.6475 7.53303 22.874C7.47682 22.5343 7.25195 22.2512 6.91465 22.138C6.63356 22.0247 6.40869 22.0814 6.18383 22.1946C5.95896 22.3645 5.73409 22.6475 5.62166 23.0439L5.39679 23.7799C5.39679 23.8365 5.39679 23.8931 5.45301 23.8931L8.48872 24.9689C8.48872 24.9689 8.48872 24.9689 8.54494 24.9689C8.54494 24.9689 8.60115 24.9689 8.60115 24.9122L8.76981 24.4027C8.60115 24.2895 8.60115 24.2328 8.54494 24.2328ZM6.97086 23.6667L5.84652 23.2703V23.2137C5.90274 23.0439 6.12761 22.5343 6.63356 22.7042C6.80221 22.7608 6.91465 22.874 6.97086 22.9872C7.0833 23.1571 7.0833 23.3836 6.97086 23.6667Z" fill="white"/>
<path d="M23.8359 17.0984C23.7797 17.155 23.7235 17.2683 23.7235 17.3815C23.7235 17.4947 23.7797 17.608 23.8359 17.6646C23.8921 17.7212 24.0045 17.7778 24.1169 17.7778C24.2293 17.7778 24.3417 17.7212 24.3979 17.6646C24.4541 17.608 24.5103 17.4947 24.5103 17.3815C24.5103 17.2683 24.4541 17.155 24.3979 17.0984C24.1731 16.9285 23.9483 16.9285 23.8359 17.0984Z" fill="white"/>
<path d="M26.3654 29.4406C26.253 28.9311 26.0844 28.4215 25.972 27.9686C25.8034 27.4024 25.6348 26.9495 25.4662 26.5531C25.4662 26.4965 25.41 26.4965 25.3538 26.4965C25.2976 26.5531 25.2976 26.5531 25.2976 26.6098C25.2976 27.0627 25.3538 27.5156 25.4662 28.1384C25.5224 28.5914 25.6348 29.0443 25.7472 29.6105C25.8596 30.1201 26.0282 30.6296 26.1406 31.0826C26.3092 31.6487 26.4778 32.1017 26.6464 32.498C26.6464 32.5546 26.7026 32.5546 26.7588 32.5546C26.815 32.5546 26.815 32.498 26.815 32.4414C26.815 31.9884 26.7588 31.5355 26.6464 30.9127C26.5902 30.4598 26.4778 29.9502 26.3654 29.4406Z" fill="white"/>
<path d="M28.9517 34.4799C28.8955 34.4799 28.8393 34.5366 28.8393 34.5932C28.7268 35.3858 28.6706 36.1785 28.6144 36.9145C28.6144 37.0844 28.5582 37.3108 28.5582 37.4807V37.5939C28.502 38.4998 28.3895 39.4623 28.2771 40.3682C28.1085 41.2741 27.9398 42.1799 27.4901 43.0292C27.3776 43.2557 27.2652 43.4255 27.0966 43.5388C26.9841 43.7086 26.8155 43.8219 26.5906 43.9351C26.2533 44.1049 25.8036 44.2182 25.2976 44.2182C25.2414 44.2182 25.1852 44.2748 25.1852 44.2748C25.1852 44.3314 25.1852 44.388 25.2414 44.388C25.5225 44.5013 25.8036 44.5013 26.0284 44.5013C26.2533 44.5013 26.5344 44.4447 26.7593 44.388C27.209 44.2182 27.6587 43.8785 27.996 43.3689C28.2771 42.9726 28.502 42.5197 28.6706 41.9535C28.8393 41.5005 28.9517 41.0476 29.0079 40.4814C29.1204 39.5755 29.1766 38.613 29.1766 37.4807C29.1766 36.4616 29.0641 35.4991 28.9517 34.5366C29.0641 34.5366 29.0079 34.4799 28.9517 34.4799Z" fill="white"/>
<path d="M29.0079 32.7246C29.0641 32.7246 29.1203 32.668 29.1203 32.6114C29.2327 31.8753 29.3451 31.1393 29.4013 30.4033L29.4575 30.0636C29.5137 29.3275 29.6261 28.5349 29.6823 27.7422C29.7947 26.8364 29.8508 26.0437 29.907 25.3077C29.9632 24.515 30.0194 23.7224 30.0194 22.8731C30.0194 22.8165 29.9632 22.7599 29.9632 22.7599C29.907 22.7599 29.8508 22.7599 29.8508 22.8165C29.6261 23.4959 29.4013 24.2886 29.2327 25.1944C29.0641 25.9871 28.9517 26.8364 28.8955 27.629C28.7831 28.4783 28.7831 29.3275 28.7831 30.1202C28.7831 31.0827 28.8393 31.8753 29.0079 32.6114C28.8955 32.668 28.9517 32.7246 29.0079 32.7246Z" fill="white"/>
<path d="M26.4782 33.0082C26.422 33.0082 26.3657 33.0082 26.3657 33.0649C26.3095 33.1215 26.3657 33.1781 26.3657 33.1781C26.5906 33.4612 26.9279 33.631 27.3214 33.8009C27.6587 33.9141 28.0523 34.0274 28.4458 34.084C28.6706 34.084 28.8955 34.1406 29.1204 34.1406C29.6263 34.1406 30.1323 34.084 30.6944 33.9707C31.4253 33.8009 32.1561 33.5744 32.8307 33.2913C33.6177 32.895 34.2361 32.4987 34.6859 32.0457C34.7421 31.9891 34.7421 31.9325 34.6859 31.9325C34.6859 31.8759 34.6296 31.8759 34.5734 31.8759C33.955 32.159 33.3366 32.4421 32.6058 32.6685C31.9312 32.895 31.2566 33.0649 30.582 33.1781C29.795 33.3479 29.1204 33.4046 28.502 33.4046C27.9398 33.4046 27.1528 33.3479 26.4782 33.0082Z" fill="white"/>
<path d="M14.8973 41.5576C14.7849 41.5576 14.6725 41.6142 14.4477 41.6708C14.3915 41.6708 14.3915 41.7274 14.3915 41.784C14.4477 42.0105 14.5601 42.1237 14.6163 42.1803C14.7287 42.2936 14.7849 42.3502 14.8973 42.4068C15.0659 42.4634 15.1783 42.4634 15.2907 42.4634H15.3469C15.5155 42.4634 15.6279 42.4068 15.7965 42.3502C15.8527 42.3502 15.8527 42.2936 15.8527 42.237C15.7965 42.0105 15.6841 41.8973 15.6279 41.8406C15.5155 41.7274 15.4593 41.6708 15.3469 41.6142C15.1783 41.5576 15.0659 41.5576 14.8973 41.5576Z" fill="white"/>
<path d="M36.3723 58.4855C36.541 58.0325 36.6534 57.523 36.7658 56.9002C36.8221 56.6737 36.8783 56.3906 36.8783 56.1075V56.0509C36.9345 55.8245 36.9345 55.598 36.9907 55.3149C37.2156 54.2392 37.5529 53.3333 38.115 52.6539C38.4523 52.2575 38.7896 51.9178 39.1832 51.6914C39.4642 51.4649 39.8015 51.295 40.3075 51.1252L40.4199 51.5215C40.4762 51.8046 40.5886 52.0877 40.6448 52.4274C40.701 52.5406 40.7572 52.6539 40.8697 52.7105C41.0945 52.8237 41.3194 52.7105 41.4318 52.484C41.6005 52.0311 41.7691 51.5781 41.9378 51.0686C42.0502 51.1818 42.1064 51.3517 42.1627 51.4649C42.2751 51.748 42.3313 52.0311 42.3313 52.3708C42.3313 52.6539 42.2189 52.937 42.1064 53.22C41.9378 53.5031 41.7691 53.7862 41.6005 53.9561C41.4318 54.1259 41.207 54.2392 40.9821 54.409C40.9259 54.4656 40.8697 54.4656 40.8135 54.5223C40.4762 54.7487 40.1951 54.9752 39.9702 55.2017L39.914 55.2583L39.8015 55.3715C39.7453 55.4281 39.6891 55.5414 39.6329 55.598C39.5205 55.7678 39.4642 55.9377 39.3518 56.1075C39.1832 56.4472 39.0707 56.787 38.9583 57.1267C38.9021 57.3531 39.0145 57.5796 39.1832 57.6362L39.6891 57.8627C39.6329 57.9193 39.5767 57.9759 39.5205 58.0325L38.8459 58.6553C38.5648 58.8818 38.2837 59.1649 38.0588 59.3914V59.3348C38.0588 59.0517 38.0588 58.7686 38.0588 58.4855C38.0588 57.8627 38.0588 57.3531 38.0026 56.787C38.0026 56.7303 37.9464 56.6737 37.8902 56.6737C37.834 56.6737 37.7777 56.7303 37.7777 56.787C37.7215 57.2965 37.6091 57.8627 37.5529 58.4855C37.4967 58.7686 37.4967 59.0517 37.4404 59.3348L37.328 60.184C37.328 60.2972 37.328 60.3539 37.3842 60.4105C37.4967 60.5237 37.6653 60.5803 37.834 60.4671C38.0026 60.3539 38.1713 60.184 38.3399 60.0708C38.621 59.8443 38.9583 59.5612 39.2394 59.3348L39.914 58.7686C40.0826 58.6553 40.2513 58.4855 40.3637 58.3722L40.5886 58.2024C40.6448 58.1458 40.701 58.0892 40.701 58.0325C40.7572 57.9193 40.7572 57.8061 40.701 57.6928C40.6448 57.5796 40.5886 57.523 40.4762 57.4664L39.7453 57.1267C39.8015 56.9568 39.914 56.7303 39.9702 56.6171C40.0264 56.4472 40.1388 56.334 40.1951 56.2208C40.2513 56.1642 40.2513 56.1075 40.3075 56.0509L40.4762 55.8811C40.6448 55.6546 40.8697 55.4847 41.1508 55.2583L41.2632 55.145C41.3756 55.0884 41.4318 54.9752 41.5443 54.9186C41.7129 54.7487 41.8254 54.6355 41.9378 54.5223C42.1627 54.2392 42.3875 53.8995 42.5 53.5031C42.6124 53.1068 42.7248 52.7105 42.6686 52.3708C42.6124 51.9745 42.5 51.5781 42.3313 51.295C42.2189 51.0686 42.0502 50.8987 41.8816 50.7855C42.0502 50.2759 42.2189 49.7664 42.3875 49.087C42.4437 48.9171 42.5 48.7472 42.5562 48.5208C42.7248 48.4642 42.8373 48.3509 42.9497 48.2377C43.1183 48.0112 43.2308 47.7281 43.2308 47.445C43.2308 47.162 43.1183 46.9355 42.9497 46.709C43.0621 46.2561 43.1184 45.9164 43.1746 45.5767C43.6243 43.1987 43.9054 40.8208 44.0178 38.4995C44.0178 37.9899 44.074 37.4237 44.074 36.8009C44.4676 36.6311 44.6924 36.2348 44.6924 35.7818C44.6924 35.3855 44.4676 34.9892 44.074 34.8193C44.0178 33.7436 43.9616 32.6112 43.8492 31.3656C43.7367 30.4598 43.6243 29.4972 43.4557 28.5914C43.793 28.4215 44.0178 28.0252 44.0178 27.6289C44.0178 27.0627 43.5681 26.6097 43.0621 26.5531C42.8935 25.8171 42.7248 25.0811 42.5 24.4017C42.5 24.4017 42.5 24.4017 42.5 24.345C42.4437 24.2884 42.4437 24.2318 42.3313 24.1752C42.2751 24.1752 42.1627 24.1752 42.1064 24.1752C41.6005 24.4017 40.9821 24.6847 40.1951 24.9678C39.6891 25.1377 39.1269 25.3075 38.5086 25.4774C38.2275 24.0053 37.834 22.4767 37.3842 20.7781C37.1594 19.9855 36.9345 19.1928 36.6534 18.4568C36.3723 17.6075 36.0912 16.8715 35.7539 16.1355C35.4728 15.5127 35.0793 14.6634 34.4609 13.9274C34.2923 13.7575 34.1236 13.5877 33.955 13.4745C33.7863 13.3612 33.5615 13.1914 33.2242 13.1347C33.0555 13.1347 32.8869 13.1347 32.7744 13.1914C32.662 13.248 32.4933 13.3046 32.3809 13.4178C32.2685 13.5311 32.156 13.6443 32.156 13.7009C32.0998 13.8142 32.0436 13.8708 31.9874 13.984C31.5377 14.6634 31.2004 15.3995 30.9193 16.2487C30.6382 17.1546 30.5258 17.9472 30.5258 18.6833C30.5258 18.7399 30.582 18.7965 30.6382 18.7965C30.6944 18.7965 30.7506 18.7399 30.7506 18.7399C30.8631 17.9472 31.1441 17.2112 31.4252 16.4186C31.5939 16.0222 31.7625 15.6825 31.9312 15.3428C32.156 14.9465 32.3247 14.6634 32.5496 14.3803C32.6058 14.3237 32.662 14.2105 32.7182 14.1539C32.7744 14.0972 32.8306 14.0406 32.8869 13.984C32.9993 13.9274 33.0555 13.8708 33.168 13.8708C33.2804 13.8708 33.3366 13.9274 33.5053 14.0406C33.6177 14.1539 33.7301 14.2671 33.8426 14.437C34.0674 14.72 34.2923 15.0597 34.4609 15.3995C34.6858 15.7392 34.8545 16.1355 34.9669 16.4752C35.3042 17.2678 35.5853 18.0605 35.8664 18.7399C36.035 19.2495 36.2599 19.759 36.4285 20.2686C36.541 20.495 36.5972 20.7781 36.7096 21.0046L36.9907 21.8539C37.4404 23.0428 37.834 24.2884 38.2837 25.534H38.2275C37.6653 25.7039 37.0469 25.8171 36.3723 25.987C36.2037 25.6473 35.9788 25.3075 35.6977 24.9112C35.5291 24.6281 35.3604 24.4017 35.1918 24.1186L34.9669 23.7789C34.7982 23.4958 34.6296 23.2693 34.4609 22.9862L33.8988 22.137L33.7301 21.7406C33.7301 21.7406 33.7301 21.684 33.6739 21.684C33.2242 21.0046 32.6058 20.495 31.875 20.1553C31.5377 19.9855 31.1441 19.8723 30.7506 19.759C30.4133 19.7024 30.1322 19.5325 29.9074 19.3627C29.6825 19.1928 29.4576 18.9664 29.3452 18.6833C29.289 18.57 29.2328 18.4002 29.1765 18.2303C29.1765 18.1737 29.1765 18.1737 29.1765 18.1171L29.0641 17.6642C28.8955 16.8715 28.7268 16.1921 28.5019 15.4561C28.4457 15.2862 28.3895 15.1164 28.2771 14.8899C28.2209 14.6634 28.1084 14.4936 27.996 14.3237C27.7711 13.9274 27.4338 13.5877 27.0965 13.3612C26.7592 13.1347 26.3095 13.0215 25.8598 13.0215C25.4662 13.0215 25.0727 13.0781 24.6792 13.1914C24.623 13.1914 24.5668 13.248 24.5105 13.248C24.3981 13.3046 24.2857 13.3046 24.1732 13.3612C24.0046 13.4178 23.7797 13.5311 23.6673 13.6443C23.33 13.8708 23.0489 14.0972 22.7678 14.437C22.6554 14.6068 22.543 14.7767 22.4305 14.9465C22.3181 15.1164 22.2619 15.3428 22.2057 15.5127C22.0932 15.909 22.0932 16.3053 22.1494 16.7017C22.1494 16.8715 22.2057 17.0414 22.2057 17.1546C22.2619 17.3245 22.3181 17.4943 22.3181 17.6075C22.3181 17.6642 22.3743 17.7208 22.4305 17.7774L22.4867 17.834L22.9927 18.1737C23.0489 18.4002 23.0489 18.6267 23.1051 18.7965C23.1051 18.9097 23.1613 19.023 23.1613 19.1362L23.2176 19.3627C23.2738 19.5325 23.4424 19.6458 23.6111 19.5892L24.0608 19.4759C24.2857 19.7024 24.5105 19.9289 24.7354 20.0987C25.1289 20.3252 25.4662 20.4384 25.7473 20.4384H25.8035C25.8598 20.4384 25.9722 20.3818 25.9722 20.3252C26.1971 20.0987 26.3657 19.759 26.4781 19.4193C26.5906 19.1362 26.6468 18.7965 26.6468 18.4568C26.6468 18.4002 26.5906 18.3436 26.5906 18.3436C26.5344 18.3436 26.4781 18.3436 26.4781 18.4002C26.2533 19.023 25.9722 19.4759 25.6911 19.8156C25.4662 19.759 25.2414 19.6458 25.0165 19.4759C24.7916 19.3061 24.5668 19.0796 24.3981 18.8531L24.3419 18.7965C24.2857 18.6833 24.117 18.6267 24.0046 18.6833L23.6673 18.7399C23.6673 18.6833 23.6111 18.57 23.6111 18.5134C23.5549 18.287 23.4986 18.1171 23.4424 17.8906L23.3862 17.7774C23.3862 17.7208 23.33 17.6642 23.2738 17.6075L22.8803 17.3811L22.7116 17.5509L22.4867 17.1546C22.4305 17.0414 22.3743 16.9847 22.3743 16.8715C22.6554 16.8149 22.9365 16.7583 23.2738 16.645C23.4424 16.5884 23.6111 16.5318 23.7797 16.5318H23.8359C23.8922 16.5318 23.9484 16.4752 24.0046 16.4752C24.0608 16.4752 24.1732 16.4752 24.2295 16.4752C24.5668 16.4752 24.8478 16.5318 25.0727 16.7017C25.1851 16.7583 25.2976 16.8715 25.41 16.9847C25.4662 17.0414 25.5787 17.098 25.6349 17.0414C25.6911 17.0414 25.7473 17.0414 25.8035 16.9847L26.2533 16.7583L26.3657 16.7017L26.6468 17.4377C26.6468 17.4943 26.703 17.5509 26.7592 17.6075C26.8717 17.6642 26.9279 17.7208 27.0403 17.7774C27.5463 18.1171 27.9398 18.4002 28.3895 18.6267C28.4457 18.7965 28.5019 19.023 28.6144 19.1928C28.8392 19.5892 29.1203 19.9289 29.4576 20.1553C29.5139 20.212 29.5701 20.2686 29.6825 20.2686C29.6825 20.2686 29.6825 20.2686 29.6825 20.3252V20.3818C29.5701 20.8347 29.4576 21.2877 29.1765 21.6274C28.8955 22.0237 28.5019 22.137 28.1646 22.1936C28.1084 22.1936 28.0522 22.1936 27.996 22.1936C27.9398 22.1936 27.9398 22.1936 27.8836 22.1936H27.7711C27.7149 22.1936 27.6025 22.1936 27.5463 22.1936C27.3776 22.1936 27.1527 22.137 27.0403 22.0237C26.703 21.8539 26.4781 21.5142 26.4219 21.1745C26.4219 21.1178 26.4219 21.1178 26.3657 21.0612C26.2533 20.8347 25.9722 20.8347 25.8035 20.948C25.3538 21.2311 24.9603 21.4575 24.5668 21.684C24.0608 22.0237 23.7235 22.3068 23.3862 22.6465C23.2176 22.8164 22.9927 23.0428 22.8803 23.3259C22.824 23.3825 22.824 23.4392 22.824 23.4958V23.5524V23.609C22.824 23.6656 22.7678 23.7222 22.7678 23.7222C22.7678 23.7789 22.7678 23.7789 22.7116 23.8355C22.7116 23.8921 22.6554 24.0053 22.6554 24.062C22.543 24.5149 22.4867 24.9678 22.4305 25.534C22.3743 26.1002 22.3181 26.6097 22.3181 27.0061C22.3181 27.0627 22.3181 27.0627 22.3181 27.1193C21.7559 26.3833 21.1937 25.4774 20.6878 24.4017C20.1818 23.3825 19.7321 22.1936 19.3386 20.948C19.3386 20.8914 19.2824 20.8347 19.2824 20.7781C19.2262 20.6649 19.2262 20.6083 19.1699 20.495L19.0575 20.0421C19.0575 19.9289 19.0013 19.8723 19.0013 19.759C18.9451 19.5325 18.8889 19.3061 18.8326 19.1362L18.6078 18.2303V18.1171C18.5515 17.834 18.4953 17.5509 18.4391 17.2678L18.3267 16.8149C18.3267 16.7017 18.3267 16.645 18.3829 16.5318C18.4391 16.4186 18.4953 16.362 18.5515 16.3053C18.6078 16.3053 18.6078 16.2487 18.664 16.2487H18.8889C19.1699 16.2487 19.451 16.2487 19.7883 16.3053C20.0132 16.362 20.2943 16.4186 20.5754 16.4752C20.6316 16.9847 20.744 17.5509 20.9127 18.0605C21.1937 18.9097 21.6997 19.5892 22.3181 20.0987C22.3743 20.1553 22.4305 20.0987 22.4305 20.0987C22.4867 20.0421 22.4867 19.9855 22.4305 19.9855C21.9246 19.4193 21.5873 18.7399 21.4186 17.9472C21.25 17.2112 21.1937 16.4186 21.3062 15.7392L21.3624 15.4561C21.3624 15.3995 21.4186 15.3428 21.4186 15.2862C21.4186 15.2296 21.4186 15.2296 21.4748 15.173C21.531 15.0597 21.531 14.9465 21.5873 14.7767C21.5873 14.72 21.6435 14.6634 21.6435 14.6068C21.6435 14.5502 21.6997 14.4936 21.6997 14.437C21.6997 14.3803 21.7559 14.3803 21.7559 14.3237C21.7559 14.2671 21.8121 14.2671 21.8121 14.2105C21.8121 14.1539 21.8683 14.0972 21.8683 14.0406C21.8683 13.984 21.9246 13.984 21.9246 13.9274C21.9808 13.8142 22.0932 13.7009 22.1494 13.5877C22.3181 13.3612 22.543 13.0781 22.8803 12.795C22.9365 12.7384 22.9927 12.7384 23.0489 12.6818C23.1613 12.6252 23.2176 12.5686 23.33 12.512L23.5549 12.3987L23.7797 12.2855C25.0727 11.6627 26.6468 11.7759 27.8836 12.512C27.9398 12.5686 27.996 12.5686 28.0522 12.6252L28.1084 12.6818C28.1646 12.7384 28.2209 12.7384 28.2209 12.795L28.5019 13.0215L28.5582 13.0781L28.8392 13.3612L29.1203 13.7009L29.3452 14.0406C29.7387 14.6634 29.9636 15.3995 30.0198 16.1921C30.0198 16.2487 30.076 16.3053 30.1322 16.3053C30.1885 16.3053 30.2447 16.2487 30.2447 16.1921C30.3009 15.3995 30.1322 14.5502 29.7949 13.7575C29.4014 12.9649 28.8392 12.2855 28.1646 11.8325C26.7592 10.8134 24.9041 10.7002 23.33 11.4362C21.7559 12.1722 20.6878 13.7575 20.5191 15.4561C20.5191 15.6825 20.4629 15.8524 20.5191 16.0789C20.2943 15.9656 20.0694 15.8524 19.8445 15.7958C19.5635 15.6825 19.2262 15.6259 18.8889 15.5693C18.8326 15.5693 18.8326 15.5693 18.7764 15.5693H18.7202H18.664C18.5515 15.5693 18.4391 15.6259 18.3267 15.6259C18.158 15.7392 17.9894 15.8524 17.8769 16.0789C17.7645 16.2487 17.7083 16.4752 17.7645 16.7017C17.7645 16.8149 17.7645 16.9281 17.8207 17.0414C17.8207 17.098 17.8207 17.1546 17.8207 17.2112V17.2678C17.8769 17.5509 17.8769 17.834 17.9332 18.1737L18.1018 19.1362C18.158 19.3627 18.2142 19.5892 18.2705 19.8156C18.2705 19.9289 18.3267 19.9855 18.3267 20.0987L18.4391 20.5517C18.4953 20.6649 18.4953 20.7781 18.5515 20.8347C18.5515 20.8914 18.6078 20.948 18.6078 21.0046C19.0013 22.2502 19.5072 23.4392 20.1818 24.5149C20.9127 25.7039 21.6435 26.6097 22.4305 27.2892C22.4305 27.5722 22.3743 27.912 22.3743 28.3083C22.3743 29.0443 22.3743 29.7803 22.4305 30.5164C22.3743 30.4031 22.3181 30.2899 22.2057 30.1767C21.7559 29.4972 21.3062 28.8745 20.9127 28.3649C20.5191 27.7987 20.0694 27.2325 19.5635 26.6097C19.451 26.4965 19.3386 26.4399 19.1699 26.4965C19.1137 26.3833 19.0575 26.2134 19.0013 26.1002C18.9451 26.0436 18.9451 25.9303 18.8889 25.8737C18.8326 25.7605 18.7764 25.5906 18.7202 25.4774C18.664 25.4208 18.664 25.3075 18.6078 25.2509C18.5515 25.1377 18.4953 24.9678 18.4391 24.8546C18.3267 24.6847 18.2705 24.4583 18.158 24.2884V24.2318C18.1018 24.1186 17.9894 24.062 17.8207 24.062H17.7645C17.371 24.062 16.9213 24.062 16.4715 24.1186C16.1904 23.1561 15.9094 22.2502 15.5721 21.3443C15.291 20.5517 14.9537 19.5325 14.5601 18.57C14.5601 18.5134 14.5039 18.5134 14.4477 18.5134C14.3915 18.5134 14.3915 18.57 14.3915 18.6267C14.5601 19.7024 14.8412 20.7781 15.0099 21.5142C15.2348 22.3634 15.4596 23.2693 15.7407 24.1752C15.5721 24.1752 15.4034 24.345 15.4034 24.5715C15.3472 24.9678 15.291 25.3642 15.2348 25.7039C15.2348 25.7605 15.2348 25.8737 15.291 25.9303C15.4034 26.1568 15.5721 26.4399 15.7407 26.723C15.9094 26.9495 16.0218 27.2325 16.1904 27.5156V27.5722C16.2467 27.6289 16.3029 27.6855 16.3591 27.6855L16.6964 27.7421C17.8207 31.5921 19.0575 35.6686 19.957 38.6127C20.9127 41.7267 21.6435 44.1046 22.3743 46.3693C22.3743 46.4259 22.4867 46.4825 22.543 46.4825H22.5992C22.6554 46.4825 22.7116 46.3693 22.7116 46.3127V44.4443C22.7116 44.4443 22.7116 44.3877 22.6554 44.3877C22.6554 44.3877 22.5992 44.3311 22.543 44.3311H22.4867L22.1494 44.4443C21.6435 42.6325 21.1375 40.7642 20.4629 38.4428C19.6197 35.4421 17.7083 29.0443 17.371 27.912H17.4272C17.4834 27.912 17.5959 27.912 17.6521 27.9686C17.9894 29.2708 18.3267 30.6296 18.7202 31.9318C18.9451 32.5546 19.1699 33.234 19.451 33.9134C19.7321 34.5362 20.0132 35.159 20.4629 35.7818L20.5191 35.895C20.6878 36.1781 20.9127 36.4046 21.1375 36.6311C21.3062 36.8009 21.4186 36.9142 21.5873 36.9708C21.8121 37.084 21.9808 37.1972 22.1494 37.1972C22.2619 37.1972 22.3743 37.1972 22.4867 37.1972C22.5992 37.1972 22.6554 37.1406 22.7678 37.1406C22.9365 37.084 23.1051 37.0274 23.2738 36.9142C23.5549 36.7443 23.8359 36.5178 24.117 36.2348C24.5668 35.7252 24.9603 35.1024 25.2414 34.423C25.3538 34.1399 25.4662 33.8002 25.5225 33.4039C25.5787 33.0642 25.6349 32.7245 25.6349 32.3848C25.6349 32.3281 25.5787 32.2715 25.5225 32.2715C25.4662 32.2715 25.41 32.3281 25.41 32.3848C25.3538 32.7245 25.2976 33.0642 25.1851 33.4039C25.1289 33.687 25.0165 34.0267 24.8478 34.3097C24.5105 34.9325 24.117 35.4421 23.6673 35.895C23.3862 36.1215 23.1613 36.2914 22.9365 36.4612C22.824 36.5178 22.6554 36.5745 22.543 36.6311C22.4867 36.6311 22.3743 36.6877 22.3181 36.6877C22.2619 36.6877 22.2057 36.6877 22.1494 36.6877C21.9246 36.6311 21.6997 36.5178 21.4748 36.2348C21.3062 36.0649 21.1375 35.8384 20.9689 35.612L20.8564 35.4987C20.4629 34.9325 20.2381 34.3097 20.0132 33.7436C19.7321 33.0642 19.5072 32.4414 19.3386 31.8186C18.9451 30.573 18.6078 29.2708 18.3267 28.0818C18.4391 28.0252 18.4953 27.9686 18.6078 27.912C18.7202 27.8553 18.7764 27.7987 18.8889 27.7421C19.2262 28.1384 19.6197 28.5914 20.0694 29.1575C20.5191 29.7237 20.9689 30.2899 21.4186 30.8561C21.6435 31.1958 21.8683 31.4789 22.037 31.762C22.2057 31.9884 22.3743 32.3281 22.543 32.6678C22.7116 33.0075 22.824 33.2906 22.7116 33.5737C22.6554 33.687 22.543 33.8002 22.4305 33.9134C22.3181 34.0267 22.1494 34.0833 21.9808 34.1965C21.9246 34.1965 21.9246 34.2531 21.9246 34.3097C21.9246 34.3664 21.9808 34.3664 22.037 34.3664C22.2057 34.3097 22.3743 34.2531 22.543 34.1399C22.7678 34.0267 22.8803 33.8568 22.9927 33.687C23.1051 33.5171 23.1051 33.2906 23.1051 33.0642C23.1051 32.8943 23.0489 32.7245 22.9365 32.498C22.824 32.1017 22.5992 31.762 22.3743 31.309L22.6554 28.648L22.7116 28.2517C22.7678 27.912 22.7678 27.5156 22.824 27.1759C22.8803 26.723 22.9365 26.27 23.0489 25.7605C23.1051 25.2509 23.2176 24.798 23.33 24.345C23.33 24.2884 23.3862 24.2318 23.3862 24.1186C23.3862 24.062 23.3862 24.062 23.4424 24.0053C23.4424 23.9487 23.4424 23.9487 23.4986 23.8921V23.8355V23.7789V23.7222C23.4986 23.6656 23.5549 23.609 23.6111 23.5524L23.6673 23.4958C23.7235 23.4392 23.7797 23.3825 23.8359 23.3259C24.1732 22.9862 24.5668 22.7031 24.9041 22.4767C25.1851 22.2502 25.4662 22.0803 25.6911 21.9105C25.7473 22.0237 25.8035 22.137 25.8598 22.1936C26.0284 22.42 26.2533 22.5899 26.5344 22.7031C26.7592 22.8164 27.0403 22.873 27.3776 22.873C27.49 22.873 27.5463 22.873 27.6587 22.873H27.7711C27.8273 22.873 27.8273 22.873 27.8836 22.873C27.9398 22.873 28.0522 22.873 28.1084 22.8164C28.3895 22.7597 28.6144 22.6465 28.8392 22.4767C29.0641 22.3068 29.2328 22.137 29.3452 21.8539C29.5701 21.4009 29.6263 20.948 29.6825 20.4384C29.9074 20.5517 30.1885 20.6649 30.4695 20.7215C30.8068 20.7781 31.1441 20.8914 31.4252 21.0046C32.0436 21.2877 32.6058 21.7406 32.9993 22.2502C32.9993 22.2502 32.9993 22.2502 32.9993 22.3068L33.7301 23.2693C33.8426 23.3825 33.955 23.5524 34.0112 23.6656C34.1799 23.8921 34.3485 24.1186 34.5172 24.2884C34.6296 24.4017 34.6858 24.5149 34.7982 24.6281C34.9669 24.8546 35.1355 25.0811 35.3604 25.3075C35.5853 25.5906 35.8101 25.8737 36.0912 26.2134C35.8664 26.27 35.6977 26.3267 35.4728 26.3267C35.3604 26.3267 35.248 26.3833 35.1355 26.3833L34.1236 26.6097C34.1236 26.6097 34.1236 26.6097 34.0674 26.6097C34.0674 26.6097 34.0674 26.6097 34.0112 26.6664C34.0112 26.6664 34.0112 26.6664 34.0112 26.723C34.0112 26.723 34.0112 26.723 34.0112 26.7796L35.5853 33.1208L37.1594 39.5186C37.328 40.198 37.4967 40.8774 37.6653 41.5568C38.0026 43.0289 38.3961 44.5009 38.7896 45.973L38.9583 46.6524C39.2394 47.7848 39.5205 48.8605 39.8015 49.9928C38.7896 50.1061 37.834 50.4458 37.0469 51.012C36.2037 51.5781 35.4728 52.484 35.0793 53.5031L34.9669 53.8995C34.9107 54.0127 34.9107 54.0693 34.9107 54.1825C34.9107 54.2392 34.9107 54.2958 34.8545 54.2958L34.7982 54.409C34.7982 54.5222 34.742 54.5789 34.742 54.6921L34.8545 54.862C34.742 55.3715 34.6296 55.8811 34.5172 56.334C34.4047 56.787 34.2923 57.2399 34.0674 57.7495C34.0112 57.9759 33.8988 58.2024 33.7301 58.4289C33.6739 58.5987 33.5615 58.712 33.5053 58.8252C33.2804 58.6553 33.0555 58.4855 32.8307 58.3156C32.8869 57.9193 32.9993 57.523 33.0555 57.07C33.1679 56.5039 33.2242 56.0509 33.2804 55.598C33.449 54.409 33.5053 53.5031 33.5053 52.5972C33.6739 51.9745 33.8426 51.4083 33.8988 50.8987C34.0112 50.2759 34.0674 49.7098 34.0674 49.1436C34.0674 48.5208 34.0674 47.9546 34.0112 47.3884C33.955 46.9355 33.955 46.4825 33.8426 46.0296C33.8426 46.0296 33.8988 46.0296 33.8988 45.973C33.955 45.9164 34.0674 45.8598 34.1236 45.7465C34.4047 45.4634 34.6296 45.0671 34.742 44.6708C35.0231 43.8781 35.0231 43.0289 34.9669 42.3495C34.9669 42.0664 34.9107 41.7833 34.9107 41.5568C34.9107 41.4436 34.9107 41.3303 34.8545 41.2171C34.7982 40.8208 34.742 40.4811 34.6296 40.1414V40.0848C34.4609 39.2921 34.2361 38.5561 34.0674 37.9333C33.6739 36.5745 33.2804 35.2156 32.7744 33.687C32.7744 33.6303 32.7182 33.6303 32.662 33.6303C32.6058 33.6303 32.6058 33.687 32.6058 33.7436C32.9431 35.0458 33.2804 36.5178 33.6177 38.0465C33.7863 38.7259 33.955 39.462 34.0674 40.198C34.1236 40.5377 34.1799 40.934 34.2361 41.2737C34.2361 41.387 34.2361 41.5002 34.2361 41.6134C34.2361 41.8965 34.2923 42.123 34.2923 42.4061C34.2923 43.2553 34.2361 43.9347 34.0112 44.4443C33.8988 44.784 33.7301 45.0105 33.5053 45.237C33.449 45.2936 33.3928 45.3502 33.3366 45.4068L33.2804 45.4634C33.2242 45.52 33.2242 45.52 33.168 45.5767C33.0555 45.6899 32.8869 45.7465 32.7182 45.8597C32.2123 46.1428 31.5939 46.4259 30.8068 46.6524C30.076 46.8789 29.4014 47.0487 28.783 47.1053C28.0522 47.2186 27.3776 47.162 26.7592 47.0487C26.0846 46.9355 25.4662 46.6524 24.9603 46.3127C24.6792 46.0862 24.4543 45.8597 24.2295 45.6333C24.117 45.4634 24.0046 45.3502 23.9484 45.237C23.8922 45.1237 23.7797 44.9539 23.7235 44.784C23.4986 44.1612 23.3862 43.4818 23.3862 42.8024C23.3862 42.4627 23.4424 42.123 23.5549 41.7833C23.6111 41.6134 23.6673 41.4436 23.7235 41.3303C23.7235 41.2737 23.7797 41.2171 23.7797 41.1605C23.8359 41.0472 23.8922 40.934 23.9484 40.8208C24.2857 40.1414 24.5668 39.462 24.8478 38.7825C25.5224 37.1973 26.0284 35.895 26.4781 34.6495C26.4781 34.5928 26.4781 34.5362 26.4219 34.5362C26.3657 34.5362 26.3095 34.5362 26.3095 34.5928L24.3981 38.5561C24.117 39.1789 23.7797 39.8583 23.3862 40.5377C23.33 40.6509 23.2738 40.7642 23.2176 40.8774L23.1051 41.0473C22.9927 41.2171 22.9365 41.387 22.8803 41.6134C22.7678 41.9531 22.6554 42.3495 22.5992 42.8024C22.543 43.595 22.6554 44.4443 22.9365 45.1803C22.9927 45.3502 23.1051 45.5767 23.2176 45.7465C23.33 45.9164 23.4424 46.0862 23.5549 46.2561C23.6673 46.3693 23.7797 46.5392 23.8922 46.6524C23.7797 46.9921 23.7235 47.3884 23.6673 47.7847C23.6111 48.3509 23.5549 48.8605 23.6111 49.3134C23.6111 49.8796 23.6673 50.3892 23.7235 50.8421C23.7797 51.3517 23.8922 51.8612 24.0046 52.3142C24.1732 52.6539 24.1732 53.1634 24.1732 53.6164C24.1732 54.0693 24.1732 54.5789 24.2295 55.145C24.2857 55.7112 24.2857 56.2208 24.3419 56.6737C24.3981 57.0134 24.3981 57.4097 24.4543 57.8627C24.117 58.0325 23.8359 58.1458 23.5549 58.259C23.1613 57.6928 22.7678 57.0134 22.4305 56.3906C22.037 55.6546 21.6997 54.9752 21.4186 54.2958L21.3624 54.1825C21.5873 53.9561 21.8683 53.7296 22.0932 53.4465C22.2619 53.2767 22.4305 53.0502 22.543 52.7671C22.5992 52.6539 22.6554 52.484 22.6554 52.3708C22.6554 52.3142 22.6554 52.3142 22.6554 52.2575C22.6554 52.1443 22.7116 52.0877 22.7116 51.9745C22.7678 51.5215 22.7678 51.0686 22.7116 50.5024C22.6554 50.1061 22.5992 49.6531 22.4867 49.087C22.4305 48.8605 22.3743 48.634 22.3181 48.4075L22.1494 47.7281C22.1494 47.6149 22.0932 47.5583 21.9808 47.5017C21.8121 47.3884 21.5873 47.445 21.531 47.6149L21.1375 48.3509C21.0813 48.4642 21.0251 48.5208 20.9689 48.634V48.5774L21.0813 48.1811L21.1375 47.7847C21.1937 47.2752 21.25 46.7656 21.1937 46.2561C21.1937 46.0296 21.1375 45.7465 21.0813 45.52C21.0251 45.237 20.9689 45.0105 20.9127 44.784C20.9127 44.6708 20.8564 44.6142 20.744 44.5575C20.5754 44.4443 20.2943 44.4443 20.1818 44.6708L19.1699 46.0862L19.0575 46.2561C18.9451 46.4259 18.7764 46.5958 18.664 46.7656C18.5515 46.8789 18.4391 46.9921 18.3267 47.1053C18.158 46.709 17.9894 46.3693 17.7645 46.0296C17.5396 45.6899 17.3148 45.237 16.9213 44.8406C17.0899 44.8406 17.2023 44.784 17.371 44.784C17.4272 44.784 17.4834 44.7274 17.4834 44.6708C17.5959 44.4443 17.7083 44.2178 17.8207 43.9914L17.8769 43.8215C17.9894 43.5384 18.158 43.2553 18.2705 42.9723C18.3267 42.859 18.2705 42.6892 18.158 42.6325L17.9332 42.5193C18.0456 42.2928 18.158 42.0664 18.2705 41.8399C18.3267 41.67 18.4391 41.5002 18.4953 41.3303C18.4953 41.2737 18.4953 41.2737 18.5515 41.2171C18.5515 41.1039 18.5516 41.0473 18.4953 40.934C18.4391 40.8774 18.3267 40.8208 18.2705 40.8208C17.8769 40.7642 17.4834 40.7075 17.0899 40.7075C16.865 40.7075 16.6964 40.6509 16.4715 40.6509C15.7407 40.3678 15.0099 40.0848 14.3915 39.8583C13.7169 39.5752 12.9861 39.3487 12.2553 39.0656C12.0866 39.009 11.9742 39.0656 11.8617 39.1789C11.6931 39.3487 11.5244 39.5186 11.3558 39.6884L11.2433 39.8583L11.1309 39.6318C11.0747 39.5186 11.0185 39.462 10.9623 39.3487V39.2921C10.9623 39.2355 10.906 39.2355 10.906 39.1789C10.8498 39.1222 10.7936 39.009 10.7936 38.9524C10.7936 38.8958 10.7374 38.8392 10.7374 38.7825C10.6812 38.7259 10.6812 38.6693 10.6812 38.6127L10.5687 38.2164C10.2877 37.2539 10.2877 36.2347 10.5687 35.159C10.7936 34.2531 11.1871 33.2906 11.8055 32.2149C12.0304 31.8186 12.3115 31.4223 12.5363 31.0825L12.8736 31.8752C12.8736 31.9318 12.9299 31.9318 12.9861 31.9318C13.0423 31.9318 13.0423 31.9318 13.0985 31.8752L13.3796 31.0825C13.3796 31.0259 13.4358 30.9693 13.4358 30.9693C13.492 30.8561 13.5482 30.7428 13.5482 30.6296C13.6607 30.2333 13.7169 29.837 13.7731 29.4972C13.7731 29.4406 13.7731 29.4406 13.7169 29.384C13.7169 29.384 13.7169 29.384 13.6607 29.384H13.6045C13.1547 29.7237 12.705 30.12 12.3677 30.5164C11.9742 30.9693 11.5807 31.3656 11.2996 31.8186C10.5687 32.8377 10.0628 33.8568 9.83793 34.9325C9.66927 35.5553 9.61306 36.1215 9.66927 36.6877C9.66927 37.3105 9.83792 37.8767 10.0066 38.4428C10.1752 38.9524 10.5125 39.462 10.906 39.9149L11.0747 40.1414L10.4563 40.7642L10.4001 40.8208C10.3439 40.8774 10.3439 40.9906 10.3439 41.1039C10.3439 41.2171 10.4001 41.2737 10.5125 41.3303L11.7493 42.2362C11.8617 42.5193 11.918 42.8024 12.0304 43.0289C12.0866 43.1987 12.1428 43.3686 12.2553 43.4818C12.3115 43.595 12.3677 43.6517 12.4239 43.7083C12.4801 43.8215 12.5926 43.8781 12.6488 43.9347C12.9299 44.1046 13.2672 44.2178 13.5482 44.2745H13.6045C13.6607 44.2745 13.6607 44.2745 13.7169 44.2745C13.7169 44.784 13.7731 45.2936 13.8293 45.7465C13.8293 45.973 13.8855 46.2561 13.8855 46.4825C13.8855 46.5958 13.8855 46.6524 13.8855 46.7656C13.8855 46.8223 13.8855 46.9355 13.8855 46.9921C13.8855 47.162 13.8293 47.3318 13.7731 47.5017C13.7169 47.7281 13.7169 47.9546 13.6607 48.1245C13.6607 48.1245 13.6607 48.1811 13.6607 48.2377L12.9861 48.0678L11.8055 47.9546C11.6931 47.9546 11.5806 47.9546 11.5244 48.0112L10.7374 48.5208C10.625 48.634 10.5125 48.7472 10.4001 48.8605C10.3439 48.9737 10.2314 49.1436 10.1752 49.37V49.4267L10.2314 49.4833C10.4001 49.4833 10.5687 49.4833 10.6812 49.4267C10.7374 49.5965 10.7936 49.823 10.7936 49.9928C10.7936 49.9928 10.7936 49.9928 10.7374 49.9928C10.625 50.0495 10.5687 50.1627 10.5125 50.2759C10.4563 50.3892 10.4001 50.559 10.4001 50.7289C10.4001 50.7855 10.4001 50.8421 10.4563 50.8421C10.625 50.8987 10.7936 50.8987 10.906 50.8987C10.9623 50.8987 10.9623 50.8987 11.0185 50.8987C11.0747 51.1818 11.1309 51.4649 11.2433 51.748C11.2433 51.748 11.2433 51.748 11.2433 51.8046C11.2996 52.0311 11.5806 52.1443 11.8055 52.0877L12.7612 51.748C12.8174 52.0877 12.8736 52.4274 12.9299 52.7671C12.9861 53.22 13.0985 53.7862 13.2109 54.2958C13.2672 54.5222 13.3234 54.8053 13.4358 55.0884C13.5482 55.3149 13.6045 55.5414 13.7169 55.7678C13.9418 56.2774 14.1666 56.7303 14.3915 57.1833C14.4477 57.2399 14.5039 57.2965 14.5601 57.2965C14.6164 57.2965 14.6164 57.2965 14.6726 57.2965C15.0099 57.1267 15.291 57.0134 15.5721 56.8436C15.8531 56.6737 16.1342 56.5605 16.4153 56.3906C16.4715 56.3906 16.4715 56.334 16.4715 56.2774C16.4715 56.2208 16.4153 56.2208 16.3591 56.2208C16.0218 56.334 15.7407 56.4473 15.4596 56.5605C15.2348 56.6171 15.0099 56.7303 14.7288 56.8436L14.6726 56.6737C14.5601 56.334 14.3915 55.9377 14.2791 55.598C14.1666 55.3715 14.1104 55.0884 14.0542 54.862C13.998 54.6355 13.9418 54.3524 13.8855 54.1825C13.8293 53.8995 13.8293 53.673 13.7731 53.4465L13.7169 52.6539C13.6607 52.3142 13.6045 51.9178 13.6045 51.5781L13.492 51.1818V51.1252C13.4358 50.8987 13.2109 50.7855 12.9861 50.8421L11.9742 51.1818C11.8055 50.5024 11.6369 49.823 11.4682 49.087L11.8617 48.8039L12.5926 48.9737L13.3796 49.1436C13.492 49.3134 13.6045 49.5399 13.7731 49.7098C13.8293 49.823 13.9418 49.9362 13.998 50.0495C14.2228 50.3892 14.3915 50.7289 14.6164 51.0686C14.8412 51.4649 15.0661 51.8046 15.1785 52.1443C15.2348 52.2575 15.2348 52.3142 15.291 52.4274C15.291 52.484 15.3472 52.5406 15.3472 52.5972C15.3472 52.6539 15.3472 52.6539 15.4034 52.7105L15.5721 53.3333C15.5721 53.3899 15.6283 53.3899 15.6845 53.3899C15.7407 53.3899 15.7407 53.3333 15.7407 53.2767L15.6283 52.5406C15.6283 52.484 15.6283 52.3708 15.5721 52.3142C15.5721 52.2009 15.5158 52.0877 15.4596 51.9745C15.3472 51.5781 15.1785 51.1818 14.9537 50.7855C14.785 50.3892 14.5601 49.9928 14.3915 49.6531C14.2791 49.4267 14.1666 49.2002 13.998 48.9737C14.0542 48.8605 14.0542 48.8039 14.1104 48.6906C14.1666 48.5774 14.1666 48.4642 14.2228 48.2943C14.2228 48.1245 14.2791 47.9546 14.2791 47.7847C14.3353 47.6149 14.3353 47.3884 14.3353 47.162C14.3353 47.0487 14.3353 46.9355 14.3353 46.8222C14.3353 46.709 14.2791 46.5958 14.2791 46.4825C14.1104 45.8031 13.9418 45.1237 13.6607 44.4443C13.8293 44.5009 14.0542 44.5575 14.2228 44.5575C14.2791 44.5575 14.3353 44.5575 14.3353 44.5009C14.3353 44.4443 14.3353 44.3877 14.2791 44.3877C14.0542 44.2745 13.7731 44.1612 13.492 44.048C13.3234 43.9914 13.2109 43.9347 13.0985 43.8781C12.9299 43.8215 12.8174 43.7083 12.705 43.6517C12.6488 43.595 12.6488 43.595 12.5926 43.5384C12.5363 43.4818 12.5363 43.4252 12.4801 43.3686C12.4239 43.2553 12.3677 43.0855 12.3115 42.9156C12.2553 42.6325 12.1428 42.3495 12.0866 42.0097C12.0866 41.9531 12.0304 41.8965 11.9742 41.8399L11.0747 41.1039L11.412 40.7642L11.6931 40.9906C11.7493 41.0473 11.8617 41.1039 11.918 41.1605C11.9742 41.2171 12.0304 41.1605 12.0304 41.1605C12.0866 41.1039 12.0866 41.0473 12.0304 41.0473L11.8055 40.6509L11.6931 40.5377L11.8617 40.3678C11.9742 40.2546 12.0866 40.1414 12.199 40.0281C12.9299 40.3112 13.5482 40.5377 14.1104 40.7642C14.785 40.9906 15.5158 41.2737 16.2467 41.5568C16.3029 41.5568 16.3029 41.5568 16.3591 41.5568C16.584 41.5568 16.7526 41.5568 16.9775 41.6134C17.2023 41.6134 17.4834 41.67 17.7083 41.67C17.5959 42.0097 17.4272 42.3495 17.3148 42.6892C17.2586 42.859 17.3148 43.0289 17.4834 43.0855L17.7645 43.1987C17.7083 43.4252 17.5959 43.595 17.5396 43.8215L17.4834 43.9914C17.4272 44.2178 17.3148 44.4443 17.2586 44.6142C16.9213 44.7274 16.6402 44.8406 16.3591 44.9539C16.3029 44.9539 16.3029 45.0105 16.3029 45.0671C16.3029 45.1237 16.3591 45.1237 16.4153 45.1237C16.5277 45.1237 16.6402 45.0671 16.7526 45.0671C16.8088 45.6333 16.9775 46.1428 17.0899 46.5392C17.2586 46.9921 17.4834 47.6149 17.6521 48.0678C17.5959 48.1245 17.5396 48.1811 17.4834 48.2377C17.371 48.3509 17.3148 48.5208 17.2023 48.634C17.0899 48.8039 17.0337 48.9171 16.9775 49.087C16.8088 49.6531 16.8088 50.2193 16.9213 50.9553C16.9213 51.012 16.9775 51.0686 17.0337 51.0686C17.0899 51.0686 17.1461 51.012 17.1461 50.9553C17.2023 50.4458 17.3148 49.823 17.5396 49.3134C17.6521 49.087 17.8207 48.9171 17.9894 48.6906C18.158 48.5208 18.3829 48.2943 18.6078 48.1245L18.664 48.0678C18.8889 47.898 19.0575 47.7281 19.2824 47.5017C19.5072 47.2752 19.6759 47.0487 19.8445 46.8222V46.7656C20.0132 46.5392 20.1256 46.3693 20.3505 46.0862C20.3505 46.2561 20.4067 46.3693 20.4067 46.5392C20.4629 46.9921 20.4629 47.5017 20.4629 47.9546C20.4629 48.4075 20.4067 48.8605 20.2943 49.3134C20.1818 49.7664 20.0132 50.2193 19.7883 50.6156C19.7883 50.6722 19.7883 50.7289 19.8445 50.7289C19.9008 50.7855 19.957 50.7855 19.957 50.7289C20.1256 50.559 20.3505 50.3892 20.5754 50.1627C20.744 49.9928 20.9127 49.7664 21.0813 49.5965L21.1375 49.5399C21.3062 49.37 21.4748 49.1436 21.5873 48.9171L21.6435 48.8605C21.6997 49.0303 21.6997 49.2568 21.7559 49.4267C21.8121 49.8796 21.8683 50.3325 21.9246 50.7289C21.9808 51.2384 21.9808 51.6348 21.9246 51.9745C21.9246 52.0311 21.9246 52.0877 21.8683 52.1443C21.8683 52.2009 21.8683 52.2009 21.8683 52.2575C21.8683 52.3142 21.8121 52.4274 21.8121 52.484V52.5406C21.7559 52.7105 21.6435 52.8803 21.531 52.9936C21.3062 53.2767 21.0251 53.5031 20.8002 53.7862L20.5754 54.0127C20.2943 54.2958 20.0132 54.6355 19.7321 55.0318C19.6759 55.0884 19.6759 55.145 19.6197 55.2017V55.2583C19.6197 55.3149 19.5635 55.3149 19.5635 55.3715V55.4281C19.5635 55.4847 19.5072 55.5414 19.5072 55.598C19.5072 55.6546 19.451 55.7112 19.451 55.7678C19.3948 55.9943 19.3948 56.2774 19.451 56.5039C19.451 56.6737 19.451 56.9002 19.5072 57.07C19.5072 57.3531 19.5635 57.5796 19.5635 57.8627C19.5635 57.9193 19.6197 57.9759 19.6759 57.9759C19.7321 57.9759 19.7883 57.9759 19.7883 57.9193C19.8445 57.5796 19.9008 57.1833 19.957 56.8436C19.957 56.7303 19.957 56.6737 19.957 56.5605C19.957 56.3906 20.0132 56.1075 20.0694 55.9377C20.0694 55.8811 20.0694 55.8811 20.1256 55.8245L20.1818 55.6546C20.1818 55.6546 20.1818 55.598 20.2381 55.598C20.2381 55.598 20.2381 55.5414 20.2943 55.5414C20.2943 55.4847 20.3505 55.4847 20.3505 55.4281C20.4629 55.2583 20.6316 55.0884 20.744 54.9752C21.0813 55.6546 21.4186 56.334 21.9246 56.9568C22.3743 57.5796 22.8803 58.0892 23.4424 58.5421C23.2738 58.6553 23.1051 58.7686 22.8803 58.8818C22.7678 58.9384 22.6554 58.995 22.543 59.1083C22.4867 59.1649 22.4305 59.2215 22.3743 59.2781C22.3181 59.3347 22.2619 59.3914 22.2619 59.448C22.0932 59.6745 21.9808 59.9575 21.9246 60.2406C21.9246 60.3539 21.8683 60.5237 21.8683 60.637C21.8683 60.6936 21.8683 60.7502 21.8683 60.8634C21.8683 60.9767 21.9246 61.1465 21.9808 61.2597C22.037 61.373 22.1494 61.4862 22.2057 61.5428C22.2619 61.5995 22.3181 61.6561 22.3743 61.7127L22.4867 61.7693C22.543 61.7693 22.5992 61.8259 22.5992 61.8259C22.6554 61.8825 22.7678 61.8825 22.824 61.8825C23.1613 61.9392 23.4424 61.9392 23.6673 61.8825C23.8922 61.8259 24.1732 61.7693 24.4543 61.6561C24.5105 61.5995 24.623 61.5428 24.6792 61.4862C24.7354 61.4296 24.7916 61.373 24.8478 61.3164C24.9603 61.2031 25.0165 61.0899 25.0727 60.9767L25.1289 60.92C25.1851 60.8634 25.2414 60.7502 25.2414 60.6936C25.2976 60.637 25.3538 60.5803 25.3538 60.5237L25.9722 60.184C26.1408 60.0708 26.3657 59.9575 26.5906 59.7877C26.703 59.7311 26.8154 59.6178 26.9279 59.5046C27.0403 59.3914 27.1527 59.2215 27.209 58.995C27.2652 58.7686 27.2652 58.4855 27.2652 58.3156C27.49 58.259 27.7149 58.2024 27.8836 58.2024C28.1084 58.2024 28.3333 58.2024 28.6144 58.2024C28.8955 58.259 29.1203 58.3156 29.3452 58.3722C29.5139 58.4289 29.6825 58.4855 29.9074 58.5987C29.9074 58.6553 29.9074 58.712 29.8512 58.7686C29.7949 58.995 29.7949 59.2215 29.7949 59.5046C29.7949 59.6745 29.8512 59.8443 29.9074 59.9575C29.9636 60.1274 30.1322 60.2406 30.2447 60.3539C30.3571 60.4105 30.4133 60.4671 30.5258 60.4671L30.6382 60.5237C30.6382 60.92 30.582 61.2598 30.4695 61.5995C30.3571 61.9958 30.1322 62.3921 29.9074 62.7318C29.7949 62.9017 29.6263 63.0715 29.5138 63.2414C29.4014 63.4112 29.2328 63.5245 29.0641 63.6943C28.7268 64.034 28.3895 64.2605 28.0522 64.4303C27.3214 64.8267 26.4781 65.0531 25.6349 64.9965C25.2976 64.9965 24.8478 64.9399 24.3981 64.8267C24.0046 64.77 23.6111 64.6568 23.1613 64.487C21.6997 63.9208 20.2943 62.9017 19.0013 61.4296C17.9332 60.2406 16.9213 58.7686 15.8531 57.0134C15.8531 56.9568 15.7969 56.9568 15.7407 56.9568C15.6845 56.9568 15.6845 57.0134 15.6845 57.07C15.9656 57.8061 16.3591 58.5987 16.9213 59.5612C17.4272 60.4671 17.9894 61.2031 18.4953 61.8825C19.1137 62.6186 19.7883 63.298 20.4629 63.8642C21.1937 64.4303 22.037 64.9399 22.9365 65.2796C23.4424 65.4495 23.8922 65.5627 24.2857 65.6759C24.7354 65.7325 25.1851 65.8458 25.6911 65.8458C26.703 65.8458 27.6587 65.5627 28.4457 65.0531C28.5582 64.9965 28.7268 64.8833 28.8955 64.77C29.289 65.1097 29.7387 65.2796 30.2447 65.3928C30.8631 65.5061 31.5377 65.3928 32.0998 65.1097C32.662 64.8833 33.1117 64.487 33.5615 63.9774C33.8988 63.5811 34.1799 63.1281 34.4047 62.6752C34.4609 62.6752 34.4609 62.6752 34.5172 62.6752C34.6296 62.6752 34.6858 62.6186 34.742 62.6186C34.9107 62.562 35.0793 62.4487 35.1355 62.3355C35.1918 62.2789 35.248 62.1656 35.248 62.109C35.3042 62.0524 35.3042 61.9392 35.3042 61.8825C35.3604 61.5995 35.3604 61.373 35.3042 61.1465C35.5291 60.8068 35.6977 60.4671 35.8664 60.1274C36.035 59.5046 36.2037 58.995 36.3723 58.4855ZM27.3776 17.2112C27.3214 17.1546 27.2652 17.098 27.209 17.0414L27.0403 16.4186L26.8717 15.9656V15.909C26.7592 15.7392 26.5344 15.6825 26.3657 15.7392L25.8598 16.0789L25.6349 16.1921C25.5224 16.0789 25.41 16.0222 25.2976 15.9656C24.9041 15.7958 24.5105 15.7392 24.117 15.7958C24.0046 15.7958 23.8922 15.8524 23.8359 15.8524C23.7235 15.8524 23.6673 15.909 23.5549 15.9656C23.3862 16.0222 23.2176 16.1355 23.1051 16.1921C22.824 16.3053 22.543 16.4752 22.3181 16.5884C22.3181 16.3053 22.3743 15.9656 22.4867 15.6825C22.5992 15.3995 22.7678 15.1164 23.0489 14.8333C23.2738 14.6068 23.5549 14.3803 23.8922 14.2105C24.0608 14.1539 24.1732 14.0972 24.3419 14.0406C24.4543 13.984 24.5668 13.984 24.6792 13.9274C24.7354 13.9274 24.7916 13.8708 24.8478 13.8708C25.1851 13.8142 25.5224 13.7575 25.8598 13.7575C26.1971 13.7575 26.4781 13.8708 26.703 14.0406C26.9279 14.2105 27.1527 14.437 27.3214 14.72C27.3776 14.8333 27.49 15.0031 27.5463 15.173C27.6025 15.3428 27.6587 15.4561 27.7149 15.6259V15.6825C27.9398 16.362 28.1084 17.098 28.2771 17.834C27.9398 17.6642 27.6587 17.4377 27.3776 17.2112ZM18.3829 27.0627C18.1018 27.2325 17.8769 27.4024 17.5959 27.5722C17.5396 27.6289 17.5396 27.6289 17.4834 27.6855C17.371 27.6289 17.2023 27.5722 17.0899 27.5156C17.0337 27.5156 16.9775 27.459 16.9775 27.459C16.865 27.4024 16.8088 27.4024 16.6964 27.3458L16.4153 27.2325C16.3029 26.9495 16.1904 26.723 16.1342 26.4965C16.0218 26.27 15.9094 26.0436 15.8531 25.8171C15.9094 25.5906 15.9094 25.3642 15.9656 25.1377C16.4715 25.0811 16.9213 25.0811 17.371 25.0245C17.4272 25.1377 17.5396 25.2509 17.5959 25.3642C17.6521 25.4774 17.7645 25.5906 17.8769 25.7605C17.9332 25.8171 17.9894 25.8737 17.9894 25.9303C18.1018 26.0436 18.158 26.1568 18.2705 26.27C18.3267 26.3267 18.3829 26.3833 18.4391 26.4399C18.4953 26.5531 18.6078 26.6664 18.664 26.7796L18.3829 27.0627ZM42.6686 47.7281C42.6124 47.7847 42.5 47.8414 42.3875 47.8414C42.2751 47.8414 42.1627 47.7847 42.1064 47.7281C42.0502 47.6715 41.994 47.5583 41.994 47.445C41.994 47.2186 42.1627 46.9921 42.4437 46.9921C42.5562 46.9921 42.6686 47.0487 42.7248 47.1053C42.781 47.162 42.8373 47.2752 42.8373 47.3884C42.8373 47.5017 42.7248 47.6149 42.6686 47.7281ZM43.3994 38.4428C43.287 39.6318 43.2308 40.7642 43.0621 41.8965C42.8935 43.0855 42.7248 44.2178 42.5 45.3502C42.4437 45.6333 42.3875 45.973 42.2751 46.3127C42.2189 46.3127 42.2189 46.3127 42.1627 46.3127C41.9378 45.237 41.7129 44.1046 41.4318 42.859C41.0383 41.2737 40.701 39.6884 40.2513 38.1598C40.1951 37.9899 40.1389 37.82 40.1389 37.6502C40.1951 37.5936 40.1951 37.5936 40.2513 37.537C40.4199 37.3105 40.5324 37.0274 40.5324 36.7443H40.6448C40.9821 36.6877 41.3756 36.6311 41.7691 36.5745C42.1627 36.5178 42.5562 36.4612 42.8373 36.4046C42.9497 36.5745 43.1746 36.7443 43.3994 36.8009C43.3994 37.4237 43.3994 37.9333 43.3994 38.4428ZM39.6329 35.7252C39.408 34.9325 39.1832 34.1965 39.0145 33.5171C38.621 32.2149 38.2837 31.0259 37.8902 29.8936C38.0026 29.837 38.0588 29.7803 38.1713 29.7237C38.4523 30.12 38.7334 30.4597 38.9583 30.7428C39.1832 30.9693 39.3518 31.2524 39.5767 31.4789L39.7453 31.6487C39.9702 31.9318 40.1951 32.1583 40.4199 32.4414L40.5324 32.5546C41.0383 33.1774 41.6005 33.7436 42.1064 34.3097C42.3875 34.5928 42.6686 34.9325 42.9497 35.2156C42.781 35.3289 42.7248 35.4987 42.7248 35.6686C42.3875 35.7818 42.0502 35.8384 41.6567 35.9517C41.2632 36.0649 40.9259 36.1781 40.5886 36.2914L40.4762 36.348C40.3075 36.0083 40.0264 35.7818 39.6329 35.7252ZM39.9702 36.8009C39.9702 36.9142 39.914 37.0274 39.8578 37.084C39.8015 37.1406 39.6891 37.1972 39.5767 37.1972C39.4642 37.1972 39.3518 37.1406 39.2956 37.084C39.2394 37.0274 39.1832 36.9142 39.1832 36.8009C39.1832 36.6877 39.2394 36.5745 39.2956 36.5178C39.3518 36.4612 39.4642 36.4046 39.5767 36.4046C39.7453 36.348 39.914 36.5178 39.9702 36.8009ZM43.7367 35.3289C43.9616 35.3289 44.1303 35.4987 44.1865 35.7252C44.1865 35.9517 44.0178 36.1781 43.793 36.1781C43.6805 36.1781 43.5681 36.1215 43.5119 36.0649C43.4557 36.0083 43.3994 35.895 43.3994 35.7818C43.3994 35.6686 43.4557 35.5553 43.5119 35.4987C43.5119 35.3855 43.6243 35.3289 43.7367 35.3289ZM42.7248 27.2892C42.781 27.2325 42.8935 27.1759 43.0059 27.1759C43.2308 27.1759 43.3994 27.3458 43.4557 27.5722C43.4557 27.7987 43.287 28.0252 43.0621 28.0252C42.9497 28.0252 42.8373 27.9686 42.781 27.912C42.7248 27.8553 42.6686 27.7421 42.6686 27.6289C42.6124 27.5156 42.6686 27.4024 42.7248 27.2892ZM42.8935 28.648C43.0059 29.4972 43.1183 30.4031 43.2308 31.3656C43.3432 32.4414 43.3994 33.5171 43.3994 34.5362C43.1746 34.2531 42.8935 33.97 42.6124 33.687C42.1064 33.1208 41.5443 32.5546 40.9821 31.9884L40.8697 31.8752C40.6448 31.6487 40.4199 31.3656 40.1389 31.1392L39.9702 30.9693C39.7453 30.7428 39.5205 30.5164 39.2956 30.2899C39.0145 30.0068 38.6772 29.7237 38.2837 29.384C38.3399 29.2708 38.3961 29.1575 38.3961 29.0443C39.1832 28.8745 39.8578 28.648 40.4762 28.4781C40.9821 28.3083 41.4881 28.195 41.9378 28.0252C41.994 28.1384 42.0502 28.2517 42.1627 28.3649C42.4437 28.5347 42.6686 28.648 42.8935 28.648ZM39.9702 46.5958L39.7453 45.8031C39.3518 44.3877 38.9583 42.9156 38.5648 41.5002C38.3961 40.8208 38.1713 40.1414 38.0026 39.462L34.4047 26.723L35.3042 26.6097C35.4166 26.6097 35.5291 26.5531 35.6415 26.5531C35.8664 26.4965 36.0912 26.4965 36.3161 26.4399C37.1031 26.3267 37.7777 26.1568 38.3961 25.987C39.1269 25.8171 39.8015 25.6473 40.4199 25.4208C40.701 25.3075 41.0945 25.1943 41.4318 25.0811C41.7129 24.9678 41.9378 24.9112 42.1064 24.798C42.2751 25.4774 42.3875 26.0436 42.5 26.6097C42.3875 26.6664 42.2751 26.723 42.2189 26.8362C42.0502 27.0627 41.9378 27.2892 41.9378 27.5722C41.4318 27.6289 40.9259 27.7421 40.4199 27.8553C39.8015 27.9686 39.1269 28.1384 38.3399 28.3083C38.2837 28.2517 38.2275 28.1384 38.1713 28.0818C37.9464 27.8553 37.7215 27.7987 37.4404 27.7987C36.8783 27.7987 36.3723 28.3083 36.4285 28.9311C36.4285 29.4972 36.9345 30.0068 37.4967 30.0068H37.5529C37.7777 31.1392 38.0026 32.3281 38.3399 33.687C38.5086 34.423 38.6772 35.159 38.9021 35.9517C38.8459 36.0083 38.8459 36.0083 38.7896 36.0649C38.621 36.2914 38.5086 36.5745 38.5086 36.8575C38.5086 37.1406 38.621 37.4237 38.8459 37.5936C39.0145 37.7634 39.1832 37.82 39.408 37.8767C39.4642 38.0465 39.5205 38.2164 39.5205 38.3862C39.914 39.9149 40.3637 41.5002 40.8135 43.0289C41.207 44.2745 41.5443 45.4068 41.8816 46.4259C41.5443 46.5958 41.3194 46.9921 41.3194 47.3884C41.3194 47.7847 41.5443 48.1245 41.8816 48.2943C41.8254 48.4075 41.8254 48.5774 41.7691 48.6906C41.5443 49.4833 41.3756 50.1627 41.1508 50.7855C40.701 49.4267 40.3075 47.9546 39.9702 46.5958ZM37.8902 28.9311C37.8902 29.0443 37.834 29.1575 37.7777 29.2142C37.7215 29.2708 37.6091 29.3274 37.4967 29.3274C37.3842 29.3274 37.2718 29.2708 37.2156 29.2142C37.1594 29.1575 37.1031 29.0443 37.1031 28.9311C37.1031 28.8178 37.1594 28.7046 37.2156 28.648C37.2718 28.5914 37.3842 28.5347 37.4967 28.5347C37.6091 28.5347 37.7215 28.5914 37.7777 28.648C37.834 28.7046 37.8902 28.8178 37.8902 28.9311ZM27.0403 52.8803C27.0403 53.1634 26.9841 53.3899 26.9279 53.6164C26.8717 53.8428 26.8717 54.0693 26.7592 54.3524L26.703 54.5789C26.5906 54.9752 26.4781 55.4281 26.4219 55.8811C26.3657 56.3906 26.3095 56.9002 26.3095 57.4664V57.523C26.3095 57.6928 26.3657 57.8061 26.3657 57.9193C26.3657 58.0325 26.4219 58.1458 26.4219 58.2024C26.4781 58.4289 26.4781 58.6553 26.4219 58.7686C26.4219 58.8252 26.3657 58.8818 26.3657 58.8818C26.3095 58.9384 26.2533 58.995 26.1408 59.0517C25.9722 59.1649 25.8035 59.2781 25.5787 59.3914L25.1289 59.6178L24.9603 59.7311C24.7916 59.8443 24.6792 59.9575 24.623 60.0708C24.5668 60.184 24.5105 60.2406 24.4543 60.2972L24.3981 60.3539C24.3419 60.4105 24.2857 60.5237 24.2295 60.5803C24.2295 60.637 24.1732 60.637 24.1732 60.637C24.1732 60.637 24.117 60.637 24.117 60.6936C24.0046 60.7502 23.7797 60.8068 23.5549 60.8634C23.33 60.8634 23.1613 60.8634 22.9927 60.8634C22.9365 60.8634 22.9365 60.8634 22.8803 60.8634L22.824 60.8068C22.7678 60.7502 22.7116 60.7502 22.7116 60.7502C22.7116 60.7502 22.7116 60.6936 22.7116 60.637C22.7116 60.5237 22.7116 60.4105 22.7678 60.2972C22.824 60.0708 22.8803 59.9009 22.9927 59.7877C23.1051 59.6178 23.1613 59.5612 23.3862 59.3914C23.5549 59.2781 23.7797 59.1083 23.9484 59.0517C24.3419 58.8252 24.7916 58.5987 25.1851 58.4289C25.3538 58.3722 25.41 58.2024 25.41 57.9759C25.2976 57.4097 25.2414 56.9002 25.1851 56.5039C25.1289 55.9943 25.0727 55.4847 25.0165 55.0318C24.9603 54.4656 24.9041 54.0127 24.9041 53.5597C24.9041 53.3333 24.9041 53.0502 24.9041 52.8237C24.9041 52.5406 24.9041 52.3142 24.9041 52.0877C24.9041 52.0311 24.9041 52.0311 24.9041 51.9745C24.7916 51.5215 24.623 51.0686 24.5105 50.559C24.3981 50.1061 24.3419 49.6531 24.2857 49.087C24.2295 48.5774 24.2295 48.1245 24.2857 47.6149C24.2857 47.2752 24.3419 46.9355 24.3419 46.6524C24.4543 46.7656 24.5105 46.8223 24.623 46.8789C25.2414 47.3318 25.9722 47.6715 26.7592 47.7847C27.0965 47.8414 27.4338 47.898 27.7711 47.898C27.7711 48.0678 27.7149 48.2943 27.7149 48.4642C27.6587 48.7472 27.6587 49.087 27.6025 49.4267C27.5463 49.7098 27.49 50.0495 27.4338 50.3892C27.3214 50.7289 27.2652 51.012 27.1527 51.295C27.1527 51.3517 27.1527 51.3517 27.1527 51.4083C27.0965 51.8612 27.0965 52.3708 27.0403 52.8803ZM30.1322 53.1068C30.076 53.6164 30.076 54.1259 30.076 54.6355L30.1885 56.1075C30.1885 56.5605 30.2447 57.0134 30.1885 57.4664L30.076 57.6928C30.0198 57.8061 30.0198 57.9193 29.9636 58.0325C29.8512 57.9193 29.7387 57.8061 29.6263 57.6928C29.3452 57.4664 29.0079 57.3531 28.6706 57.2965C28.5582 57.2965 28.5019 57.2965 28.3895 57.2965C28.1084 57.2965 27.8273 57.3531 27.6025 57.4664C27.4338 57.5796 27.2652 57.6928 27.0965 57.8061C27.0965 57.7495 27.0965 57.7495 27.0965 57.6928C27.0965 57.5796 27.0403 57.4664 27.0403 57.3531C27.0403 56.787 27.0403 56.334 27.0965 55.9377C27.1527 55.5414 27.209 55.145 27.3214 54.6921L27.3776 54.4656C27.49 54.0127 27.5463 53.5031 27.5463 52.8803C27.5463 52.4274 27.5463 51.9178 27.49 51.3517C27.6025 51.0686 27.6587 50.7855 27.7149 50.4458C27.7711 50.1061 27.8273 49.7664 27.8273 49.4267C27.8836 48.9171 27.8836 48.4075 27.8836 47.8414C28.2209 47.8414 28.5582 47.8414 28.8955 47.7847C29.2328 47.7281 29.6263 47.6715 29.9636 47.5583C29.9636 48.1245 29.9636 48.7472 30.0198 49.37C30.076 50.0495 30.1322 50.7855 30.2447 51.5781C30.2447 52.0877 30.1885 52.5406 30.1322 53.1068ZM32.9431 63.4678C32.4933 63.8642 32.0436 64.1472 31.5939 64.3171C31.0879 64.5436 30.6382 64.6568 30.1322 64.6568C29.7949 64.6568 29.4576 64.6002 29.0641 64.487C29.5139 64.0906 29.9636 63.5811 30.3009 63.0149C30.582 62.562 30.7506 62.109 30.8068 61.6561C30.8631 61.3164 30.8631 60.9767 30.8631 60.637H30.9193C31.0879 60.6936 31.2004 60.7502 31.3128 60.8634C31.369 60.92 31.4814 60.9767 31.4814 60.9767C31.4814 60.9767 31.5377 61.0333 31.5377 61.0899C31.5377 61.1465 31.5939 61.2031 31.5939 61.2597C31.6501 61.373 31.7063 61.5428 31.8187 61.6561C31.875 61.7127 31.9312 61.7693 31.9874 61.8259L32.0436 61.8825L32.156 61.9392C32.2685 61.9958 32.3247 62.0524 32.4371 62.109C32.6058 62.2222 32.8306 62.2789 33.0555 62.3355C33.2804 62.3921 33.5053 62.4487 33.6739 62.5053H33.7301C33.5615 62.9017 33.2804 63.1847 32.9431 63.4678ZM34.4047 61.6561C34.4047 61.7127 34.4047 61.7127 34.4047 61.7127C34.4047 61.7127 34.4047 61.7127 34.3485 61.7693H34.2923C34.2923 61.7693 34.2923 61.7693 34.2361 61.7693C34.1799 61.7693 34.0674 61.7693 34.0112 61.7127C33.8426 61.6561 33.6739 61.6561 33.5053 61.5428C33.3366 61.4862 33.168 61.4296 32.9993 61.3164C32.9431 61.2598 32.8306 61.2597 32.7744 61.2031C32.7182 61.2031 32.7182 61.1465 32.7182 61.1465L32.662 61.0899C32.6058 61.0333 32.5496 60.92 32.4933 60.8068C32.4371 60.7502 32.4371 60.6936 32.3809 60.5803V60.5237C32.3247 60.4105 32.2685 60.3539 32.156 60.184C32.0436 60.0708 31.9312 60.0142 31.875 59.9575C31.7063 59.8443 31.4814 59.7877 31.3128 59.6745L31.0317 59.5612C30.9193 59.5046 30.8631 59.5046 30.8068 59.448C30.8068 59.448 30.7506 59.448 30.7506 59.3914C30.7506 59.3347 30.6944 59.2781 30.6944 59.2215C30.6944 59.1083 30.6944 58.9384 30.6944 58.712C30.7506 58.5421 30.7506 58.3722 30.8068 58.1458C30.8631 58.0325 30.8631 57.9759 30.9193 57.8627V57.7495C30.9193 57.6928 30.9193 57.6928 30.9193 57.6362C30.9193 57.1833 30.9193 56.6737 30.8631 56.1075L30.6944 54.6355C30.6382 54.0693 30.6382 53.6164 30.6382 53.1634C30.6382 52.6539 30.7506 52.1443 30.8068 51.748C30.8068 51.6914 30.8068 51.6914 30.8068 51.6347C30.7506 51.295 30.6382 50.8987 30.582 50.559C30.5258 50.1627 30.4695 49.7664 30.4133 49.4833C30.3571 49.1436 30.3009 48.7472 30.3009 48.3509C30.3009 48.1245 30.2447 47.898 30.2447 47.6715C30.5258 47.6149 30.8068 47.5017 31.0879 47.445C31.875 47.2186 32.5496 46.8789 33.168 46.5392C33.3366 46.4259 33.449 46.3693 33.6177 46.2561C33.6177 46.5958 33.6739 46.9921 33.6739 47.445C33.6739 48.0112 33.6177 48.5774 33.5615 49.2002C33.5053 49.7097 33.449 50.2193 33.2804 50.8987C33.168 51.4083 32.9993 51.9178 32.7744 52.5406C32.7744 52.5972 32.7744 52.5972 32.7744 52.6539C32.7182 53.5031 32.662 54.4656 32.4371 55.598C32.3247 56.1642 32.2685 56.6171 32.2123 57.07C32.0998 57.6362 32.0436 58.0892 31.9312 58.5421C31.875 58.712 31.9312 58.8818 32.0998 58.9384C32.4371 59.2215 32.7182 59.448 32.9993 59.6745C33.0555 59.7311 33.1679 59.7877 33.2242 59.8443C33.2804 59.9009 33.3366 59.9575 33.3928 60.0142C33.5053 60.1274 33.6177 60.2972 33.7863 60.4671C33.8988 60.637 34.0112 60.7502 34.1236 60.92C34.1799 61.0333 34.2361 61.0899 34.2361 61.1465C34.2923 61.2031 34.2923 61.2598 34.2923 61.3164C34.4047 61.3164 34.4047 61.4862 34.4047 61.6561ZM35.3042 59.7877C35.248 60.0708 35.1355 60.2972 35.0231 60.5803C34.9669 60.4671 34.9107 60.4105 34.8545 60.3539C34.742 60.184 34.6296 60.0142 34.4609 59.8443C34.3485 59.6745 34.1799 59.5046 34.0674 59.3914C34.0112 59.3347 33.8988 59.2215 33.8426 59.1649C33.7863 59.1083 33.7301 59.1083 33.7301 59.0517C33.8426 58.9384 33.955 58.8252 34.0674 58.712C34.2361 58.5421 34.3485 58.3156 34.5172 58.0892C34.742 57.6928 34.9669 57.1833 35.1918 56.6737C35.3604 56.2208 35.4728 55.7678 35.6415 55.2017L35.7539 54.8053C35.7539 54.7487 35.8101 54.6355 35.8101 54.5789C35.8101 54.5222 35.8101 54.4656 35.8664 54.4656C35.8664 54.409 35.8664 54.3524 35.9226 54.3524C35.9226 54.2958 35.9788 54.2392 35.9788 54.1259L36.0912 53.7862C36.4285 52.937 36.9907 52.1443 37.7215 51.5215C38.3399 51.012 39.0707 50.6156 40.0826 50.1627C40.1389 50.3892 40.1951 50.559 40.2513 50.7855L40.3075 50.8987C39.8578 50.9553 39.408 51.1252 39.0145 51.295C38.5086 51.5215 38.0588 51.8612 37.6653 52.2575C37.2718 52.6539 36.9907 53.1068 36.7096 53.673C36.4848 54.1259 36.3161 54.6921 36.2037 55.2583C36.1474 55.598 36.0912 55.8811 36.0912 56.2208C36.0912 56.4473 36.035 56.6737 35.9788 56.8436C35.9226 57.3531 35.8101 57.8627 35.6977 58.3722C35.5853 58.8252 35.4166 59.3347 35.3042 59.7877Z" fill="white"/>
<path d="M48.5714 43.709L49.2458 43.4825L48.5714 43.709Z" fill="white"/>
<path d="M50.7639 43.5961L47.672 41.841H47.6157L47.5595 41.8976L47.5033 42.2373C47.5033 42.2939 47.5033 42.2939 47.5595 42.2939L48.459 42.8035L48.3466 43.9358L47.3909 44.2755C47.3347 44.2755 47.3347 44.3322 47.3347 44.3322L47.2784 44.8983C47.2784 44.8983 47.2784 44.9549 47.3347 44.9549H47.3909L50.8763 43.766C50.9325 43.766 50.9325 43.7094 50.9325 43.7094C50.9325 43.6527 50.9325 43.6527 50.8763 43.6527L50.7639 43.5961ZM48.7963 43.8226L48.8525 43.0866L49.0774 43.1998L49.6958 43.5395L48.7963 43.8226Z" fill="white"/>
<path d="M3.373 42.4634L6.6898 43.6523H6.74602L6.80223 43.5957V43.256C6.80223 43.1994 6.80223 43.1994 6.74602 43.1994L5.79033 42.8597L5.67789 41.7273L6.57737 41.2178L6.63358 41.1612L6.57737 40.595C6.57737 40.595 6.57737 40.5384 6.52115 40.5384H6.46493L3.20435 42.2935L3.14813 42.3501C3.14813 42.4067 3.14813 42.4067 3.20435 42.4067L3.373 42.4634ZM5.28438 41.8972L5.34059 42.6332L5.11573 42.5766L4.44112 42.3501L5.28438 41.8972Z" fill="white"/>
<path d="M3.48542 32.6112L6.52114 34.423H6.57735L6.63357 34.3664L6.68979 34.0267C6.68979 33.9701 6.68979 33.9701 6.63357 33.9701L5.79032 33.4039L5.90275 32.2715L6.85844 31.9884C6.91466 31.9884 6.91466 31.9318 6.91466 31.9318L6.97087 31.3656C6.97087 31.3656 6.97087 31.309 6.91466 31.309H6.85844L3.37299 32.4414C3.31677 32.4414 3.31677 32.498 3.31677 32.498C3.31677 32.5546 3.31677 32.5546 3.37299 32.5546L3.48542 32.6112ZM5.45302 32.4414L5.34058 33.1774L5.11571 33.0642L4.49733 32.7245L5.45302 32.4414Z" fill="white"/>
<path d="M68.6971 46.8795C64.8181 46.8795 63.3564 44.5016 63.3564 40.9346V28.9317H65.324V40.4817C65.324 43.0295 65.7176 45.181 68.7533 45.181C71.9576 45.181 72.4074 43.1994 72.4074 40.4817V28.9317H74.375V40.878C74.375 44.8413 72.8571 46.8795 68.6971 46.8795Z" fill="white"/>
<path d="M84.3254 46.5969V39.8594C84.3254 38.5006 84.5503 35.8961 82.5264 35.8961C80.1091 35.8961 79.0972 39.6895 79.0972 41.6145V46.5969H77.3545V34.4241H79.0972V37.255H79.1534C79.7718 35.3866 80.8399 34.141 82.92 34.141C85.0562 34.141 86.0119 36.0094 86.0119 37.8778V46.5403H84.3254V46.5969Z" fill="white"/>
<path d="M88.5979 31.253V28.9317H90.902V31.253H88.5979ZM88.8789 46.5964V34.4236H90.621V46.5964H88.8789Z" fill="white"/>
<path d="M99.1104 46.5961H97.3677L92.8141 34.4233H94.6693L98.2109 44.0483H98.2672L101.359 34.4233H103.214L99.1104 46.5961Z" fill="white"/>
<path d="M106.081 39.3498V40.0858C106.081 42.7468 107.374 45.4078 110.354 45.4078C111.197 45.4078 111.928 45.2946 112.715 45.0681V46.4836C111.815 46.7667 110.86 46.8233 109.96 46.8233C105.8 46.8233 104.058 43.9924 104.058 40.0292C104.058 36.8586 105.238 34.0843 108.78 34.0843C111.591 34.0843 112.996 36.0093 112.996 38.727V39.2931H106.081V39.3498ZM108.724 35.613C107.318 35.613 106.419 36.5755 106.194 37.9343H111.028C111.085 36.5755 110.073 35.613 108.724 35.613Z" fill="white"/>
<path d="M117.381 41.558V46.597H115.638V34.4242H117.381V36.8021H117.437C118.224 35.047 119.517 34.1977 121.485 34.1977V36.0661C118.393 36.0095 117.381 38.897 117.381 41.558Z" fill="white"/>
<path d="M126.657 46.88C125.532 46.88 124.408 46.7101 123.34 46.3704V44.7851C124.352 45.1248 125.42 45.4079 126.488 45.4079C127.781 45.4079 129.411 45.0682 129.411 43.4263C129.411 42.2373 128.118 41.7278 127.219 41.2182L126.151 40.652C124.745 39.8594 123.396 39.2366 123.396 37.3682C123.396 34.9903 125.476 34.141 127.556 34.141C128.568 34.141 129.468 34.3108 130.423 34.5373V36.1226C129.58 35.7829 128.512 35.5564 127.612 35.5564C126.657 35.5564 125.195 35.9528 125.195 37.1417C125.195 38.1608 126.657 38.6138 127.388 39.0667L128.399 39.6895C129.861 40.5954 131.21 41.1616 131.21 43.1432C131.154 45.9175 129.074 46.88 126.657 46.88Z" fill="white"/>
<path d="M133.178 31.253V28.9317H135.482V31.253H133.178ZM133.459 46.5964V34.4236H135.201V46.5964H133.459Z" fill="white"/>
<path d="M145.377 46.5964V44.5016H145.321C144.927 45.917 143.634 46.8795 142.173 46.8795C138.687 46.8795 138.013 43.4824 138.013 40.5949C138.013 37.9905 138.8 34.1405 142.116 34.1405C143.69 34.1405 144.759 34.9332 145.265 36.4052H145.321V28.9317H147.063V46.5398H145.377V46.5964ZM142.566 35.6126C140.205 35.6126 139.98 39.2927 139.98 40.9346C139.98 42.5766 140.261 45.4074 142.51 45.4074C144.646 45.4074 145.377 42.2368 145.377 40.5383C145.377 38.8398 144.871 35.6126 142.566 35.6126Z" fill="white"/>
<path d="M156.677 46.5969V45.0116H156.62C155.946 46.3138 154.259 46.88 152.91 46.88C150.83 46.88 149.649 45.5778 149.649 43.4829C149.649 40.7086 153.191 39.6895 155.384 39.6895C155.777 39.6895 156.171 39.6895 156.564 39.6329V39.3498C156.564 37.5381 156.677 35.6131 154.259 35.6131C152.854 35.6131 151.954 36.1226 151.786 37.5381H149.874C149.931 35.1035 152.067 34.141 154.203 34.141C156.958 34.141 158.251 35.33 158.251 38.0476V46.5969H156.677ZM155.608 41.0483C154.034 41.0483 151.673 41.6711 151.673 43.6528C151.673 44.6719 152.348 45.4079 153.36 45.4079C154.597 45.4079 155.665 44.6153 156.171 43.5395C156.564 42.6336 156.62 42.1241 156.62 41.105H155.608V41.0483Z" fill="white"/>
<path d="M168.313 46.5964V44.5016H168.257C167.864 45.917 166.571 46.8795 165.109 46.8795C161.624 46.8795 160.949 43.4824 160.949 40.5949C160.949 37.9905 161.736 34.1405 165.053 34.1405C166.627 34.1405 167.695 34.9332 168.201 36.4052H168.257V28.9317H170V46.5398H168.313V46.5964ZM165.503 35.6126C163.141 35.6126 162.917 39.2927 162.917 40.9346C162.917 42.5766 163.198 45.4074 165.446 45.4074C167.583 45.4074 168.313 42.2368 168.313 40.5383C168.313 38.8398 167.808 35.6126 165.503 35.6126Z" fill="white"/>
<path d="M69.8214 70.0932V67.9984H69.7652C69.3717 69.4138 68.0787 70.3763 66.6171 70.3763C63.1316 70.3763 62.457 66.9792 62.457 64.0917C62.457 61.4873 63.244 57.6373 66.5608 57.6373C68.1349 57.6373 69.203 58.43 69.709 59.902H69.7652V52.4285H71.5079V70.0366H69.8214V70.0932ZM67.0106 59.1094C64.6495 59.1094 64.4246 62.7895 64.4246 64.4314C64.4246 66.13 64.7057 68.9042 66.9544 68.9042C69.0906 68.9042 69.8214 65.7336 69.8214 64.0351C69.8214 62.3366 69.3155 59.1094 67.0106 59.1094Z" fill="white"/>
<path d="M76.0615 62.8454V63.5814C76.0615 66.2425 77.3545 68.9035 80.334 68.9035C81.1772 68.9035 81.908 68.7903 82.6951 68.5638V69.9792C81.7956 70.2623 80.8399 70.3189 79.9404 70.3189C75.7804 70.3189 74.0377 67.488 74.0377 63.5248C74.0377 60.3542 75.2182 57.58 78.7599 57.58C81.5707 57.58 82.9762 59.505 82.9762 62.2226V62.7888H76.0615V62.8454ZM78.7037 59.1086C77.2982 59.1086 76.3988 60.0711 76.1739 61.43H81.0086C81.0086 60.0711 80.0529 59.1086 78.7037 59.1086Z" fill="white"/>
<path d="M100.966 70.0932L93.7698 55.2594H93.7136V70.0932H91.8584V52.4285H94.3882L101.584 67.3189H101.64V52.4285H103.495V70.0366H100.966V70.0932Z" fill="white"/>
<path d="M112.827 70.0925V68.5072H112.771C112.097 69.8095 110.41 70.3756 109.061 70.3756C106.981 70.3756 105.8 69.0734 105.8 66.9786C105.8 64.2043 109.342 63.1852 111.534 63.1852C111.928 63.1852 112.321 63.1852 112.715 63.1286V62.8455C112.715 61.0337 112.827 59.1087 110.41 59.1087C109.005 59.1087 108.105 59.6183 107.936 61.0337H106.025C106.081 58.5992 108.218 57.6367 110.354 57.6367C113.108 57.6367 114.401 58.8256 114.401 61.5433V70.0925H112.827ZM111.759 64.544C110.185 64.544 107.824 65.1668 107.824 67.1484C107.824 68.1675 108.499 68.9036 109.511 68.9036C110.747 68.9036 111.815 68.1109 112.321 67.0352C112.715 66.1293 112.771 65.6197 112.771 64.6006H111.759V64.544Z" fill="white"/>
<path d="M122.272 70.0929H120.529L115.976 57.9201H117.831L121.372 67.5451H121.429L124.52 57.9201H126.376L122.272 70.0929Z" fill="white"/>
<path d="M134.358 70.0925V68.5072H134.302C133.628 69.8095 131.941 70.3756 130.592 70.3756C128.512 70.3756 127.331 69.0734 127.331 66.9786C127.331 64.2043 130.873 63.1852 133.065 63.1852C133.459 63.1852 133.852 63.1852 134.246 63.1286V62.8455C134.246 61.0337 134.358 59.1087 131.941 59.1087C130.536 59.1087 129.636 59.6183 129.468 61.0337H127.612C127.669 58.5992 129.805 57.6367 131.941 57.6367C134.696 57.6367 135.989 58.8256 135.989 61.5433V70.0925H134.358ZM133.29 64.544C131.716 64.544 129.355 65.1668 129.355 67.1484C129.355 68.1675 130.03 68.9036 131.042 68.9036C132.278 68.9036 133.347 68.1109 133.852 67.0352C134.246 66.1293 134.302 65.6197 134.302 64.6006H133.29V64.544Z" fill="white"/>
<path d="M140.43 65.0536V70.0926H138.687V57.9198H140.43V60.2977H140.486C141.273 58.5426 142.566 57.6933 144.534 57.6933V59.5617C141.386 59.5051 140.43 62.3926 140.43 65.0536Z" fill="white"/>
<path d="M148.469 65.0536V70.0926H146.726V57.9198H148.469V60.2977H148.525C149.312 58.5426 150.605 57.6933 152.573 57.6933V59.5617C149.481 59.5051 148.469 62.3926 148.469 65.0536Z" fill="white"/>
<path d="M160.949 70.0925V68.5072H160.893C160.218 69.8095 158.532 70.3756 157.182 70.3756C155.102 70.3756 153.922 69.0734 153.922 66.9786C153.922 64.2043 157.464 63.1852 159.656 63.1852C160.05 63.1852 160.443 63.1852 160.837 63.1286V62.8455C160.837 61.0337 160.949 59.1087 158.532 59.1087C157.126 59.1087 156.227 59.6183 156.058 61.0337H154.147C154.203 58.5992 156.339 57.6367 158.475 57.6367C161.23 57.6367 162.523 58.8256 162.523 61.5433V70.0925H160.949ZM159.881 64.544C158.307 64.544 155.946 65.1668 155.946 67.1484C155.946 68.1675 156.62 68.9036 157.632 68.9036C158.869 68.9036 159.937 68.1109 160.443 67.0352C160.837 66.1293 160.893 65.6197 160.893 64.6006H159.881V64.544Z" fill="white"/>
</svg>
