<?xml version="1.0" encoding="utf-8"?>
<!-- Generator: Adobe Illustrator 28.3.0, SVG Export Plug-In . SVG Version: 6.00 Build 0)  -->
<svg version="1.1" id="Capa_1" xmlns="http://www.w3.org/2000/svg" xmlns:xlink="http://www.w3.org/1999/xlink" x="0px" y="0px"
	 viewBox="0 0 302.5 136" style="enable-background:new 0 0 302.5 136;" xml:space="preserve">
<g>
	<g>
		<path d="M48.2,0C21.6,0,0,30.5,0,68c0,37.5,21.6,68,48.2,68c26.6,0,48.2-30.5,48.2-68C96.5,30.5,74.8,0,48.2,0z M94.3,68
			c0,36.3-20.6,65.8-46,65.8c-25.4,0-46-29.5-46-65.8c0-36.3,20.7-65.8,46-65.8C73.6,2.2,94.3,31.7,94.3,68z"/>
		<path d="M28.6,115.3l-6.1,2.3c0,0-0.1,0.1-0.1,0.1c0,0,0,0.1,0,0.1l0.4,0.4c0,0,0.1,0.1,0.2,0l4-1.5l-1.5,4.1c0,0.1,0,0.1,0,0.2
			l0.7,0.7c0,0,0.1,0,0.1,0c0,0,0,0,0,0c0,0,0.1,0,0.1-0.1l2.4-6.3c0-0.1,0-0.1,0-0.2C28.7,115.3,28.6,115.3,28.6,115.3z"/>
		<path d="M64.9,118c-0.1,0-0.1,0-0.2,0c0,0-0.1,0.1,0,0.2l1.7,6.5c0,0,0,0.1,0.1,0.1c0,0,0,0,0,0c0,0,0.1,0,0.1,0l0.5-0.4
			c0,0,0.1-0.1,0-0.2l-1.2-4.3l3.9,1.9c0.1,0,0.1,0,0.2,0l0.8-0.6c0,0,0.1-0.1,0.1-0.1c0,0,0-0.1-0.1-0.1L64.9,118z"/>
		<path d="M5.6,69C5.6,69,5.6,69,5.6,69l6.1-2.6c0.1,0,0.1-0.1,0.1-0.1c0-0.1,0-0.1-0.1-0.1l-5.9-2.9c0,0-0.1,0-0.1,0
			c0,0-0.1,0.1-0.1,0.1l0,0.6c0,0.1,0,0.1,0.1,0.1L9.5,66l-4,1.7c-0.1,0-0.1,0.1-0.1,0.1l0,1C5.4,68.9,5.4,68.9,5.6,69
			C5.5,69,5.5,69,5.6,69z"/>
		<path d="M35.9,121.3c-0.1,0-0.2,0-0.2,0.1l-1.1,2c-0.2-0.1-0.3-0.2-0.5-0.2l-0.1-0.3c-0.2-1-0.4-2-0.7-2.5c-0.2-0.4-0.4-0.7-0.8-1
			c-0.1-0.1-0.2-0.1-0.4-0.2c-0.2-0.1-0.6-0.1-0.6-0.1c-0.1,0-0.1,0-0.1,0.1c0,0.1,0,0.1,0.1,0.2c0,0,0.2,0.1,0.3,0.3
			c0.2,0.2,0.4,0.6,0.5,1c0.2,0.5,0.4,1.4,0.6,2.2c-0.6,0-1.2,0.3-1.5,0.8c-0.3,0.5-0.3,0.9-0.2,1.4c0.2,0.5,0.6,0.9,1.3,1.3
			l1.2,0.7c0,0,0,0,0.1,0c0,0,0,0,0,0c0,0,0.1,0,0.1-0.1l2.9-5c0,0,0-0.1,0-0.1c0,0,0-0.1-0.1-0.1L35.9,121.3z M33.2,125.8
			L33.2,125.8c-0.4-0.2-1.1-0.8-0.7-1.7c0.1-0.3,0.3-0.4,0.6-0.5c0.1,0,0.2,0,0.2,0c0.3,0,0.6,0.1,0.9,0.3L33.2,125.8z"/>
		<path d="M58.6,14.2C58.6,14.2,58.7,14.2,58.6,14.2l5.1-4.4c0,0,0.1-0.1,0-0.1c0,0,0-0.1-0.1-0.1l-0.5-0.3c-0.1,0-0.1,0-0.2,0
			l-3.3,2.8l0.1-4.4c0-0.1,0-0.1-0.1-0.1l-0.9-0.4c0,0-0.1,0-0.1,0c0,0-0.1,0.1-0.1,0.1L58.5,14C58.5,14.1,58.5,14.1,58.6,14.2
			C58.6,14.2,58.6,14.2,58.6,14.2z"/>
		<path d="M65,17.8c0.1,0.1,0.1,0.1,0.2,0l3-3.3l0.3,6.5c0,0,0,0.1,0,0.1l0.2,0.2c0,0,0.1,0,0.1,0c0,0,0,0,0,0c0,0,0.1,0,0.1,0
			l3.9-4.3c0,0,0-0.1,0-0.1c0,0,0-0.1,0-0.1l-0.4-0.4c-0.1-0.1-0.1-0.1-0.2,0l-2.7,3l-0.2-5.8c0,0,0-0.1,0-0.1l-0.6-0.6
			c-0.1-0.1-0.1-0.1-0.2,0l-3.9,4.3c0,0,0,0.1,0,0.1c0,0,0,0.1,0,0.1L65,17.8z"/>
		<path d="M71.9,24.9c0,0,0,0.1,0,0.1l0.5,0.7c0,0,0.1,0.1,0.1,0.1c0,0,0.1,0,0.1,0l4.5-3.6c0.1,0,0.1-0.1,0-0.2l-0.5-0.7
			c0,0-0.1-0.1-0.1-0.1c0,0-0.1,0-0.1,0L71.9,24.9C72,24.9,71.9,24.9,71.9,24.9z"/>
		<path d="M75.9,31.7c0,0,0.1,0.1,0.1,0.1c0,0,0,0,0,0l6.5-0.5c0,0,0.1,0,0.1-0.1c0,0,0-0.1,0-0.1l-0.3-0.5c0-0.1-0.1-0.1-0.1-0.1
			l-4.3,0.3l2.6-3.5c0,0,0-0.1,0-0.2l-0.5-0.9c0,0-0.1-0.1-0.1-0.1c0,0-0.1,0-0.1,0.1l-4,5.3C75.9,31.5,75.8,31.6,75.9,31.7z"/>
		<path d="M81.9,37.7l0.5,1.3c0,0.1,0.1,0.1,0.2,0.1l0.5-0.2c0.1,0,0.1-0.1,0.1-0.2l-0.5-1.3l1.7-0.7l0.7,1.9c0,0,0,0.1,0.1,0.1
			c0,0,0.1,0,0.1,0l0.5-0.2c0.1,0,0.1-0.1,0.1-0.2l-1.1-2.8c0,0,0-0.1-0.1-0.1c0,0-0.1,0-0.1,0l-5.3,2.1c-0.1,0-0.1,0.1-0.1,0.2
			l1.1,2.8c0,0,0,0.1,0.1,0.1c0,0,0,0,0.1,0c0,0,0,0,0.1,0l0.5-0.2c0.1,0,0.1-0.1,0.1-0.2l-0.7-1.9L81.9,37.7z"/>
		<path d="M86.5,54.2l0.1,0.1L86.5,54.2c-0.2,0.6-0.4,1.2-0.9,1.3c-0.1,0-0.1,0-0.2,0c-0.3,0-0.5-0.3-0.6-0.5c0,0,0-0.1,0-0.1
			c0-0.1,0-0.2,0-0.3c0-0.4,0.3-1,0.6-1.3l0.2-0.2c0,0,0.1-0.1,0-0.2c0-0.1-0.1-0.1-0.1-0.1l-1,0.2c0,0-0.1,0-0.1,0.1l0,0
			c-0.3,0.4-0.4,1.1-0.3,1.6c0.1,0.9,0.8,1.9,1.8,1.9c0.1,0,0.2,0,0.2,0c1.1-0.2,1.4-1.2,1.7-2c0.2-0.6,0.4-1.2,0.9-1.2
			c0.1,0,0.1,0,0.2,0c0.2,0,0.4,0.2,0.5,0.5c0,0,0,0.1,0,0.1c0,0.1,0,0.1,0,0.2c0,0.3-0.2,0.8-0.5,1.1l-0.2,0.2c0,0,0,0.1,0,0.2
			c0,0.1,0.1,0.1,0.1,0.1l1-0.2c0,0,0.1,0,0.1-0.1l0-0.1c0.2-0.5,0.3-0.9,0.2-1.4c-0.1-0.4-0.3-0.9-0.6-1.2
			c-0.3-0.3-0.7-0.6-1.3-0.5C87.1,52.5,86.7,53.4,86.5,54.2z"/>
		<path d="M84.7,60.9l0.1,0.9c0,0,0,0.1,0,0.1c0,0,0.1,0,0.1,0c0,0,0,0,0,0l5.7-0.4c0.1,0,0.1-0.1,0.1-0.2l-0.1-0.9c0,0,0-0.1,0-0.1
			c0,0-0.1,0-0.1,0l-5.7,0.4C84.7,60.8,84.7,60.9,84.7,60.9z"/>
		<path d="M90.9,65.8c0,0-0.1,0-0.1,0l-0.5,0c0,0,0,0,0,0c-0.1,0-0.1,0.1-0.1,0.1l0,2l-5.1-0.1c0,0-0.1,0-0.1,0c0,0,0,0.1,0,0.1
			l0,0.9c0,0.1,0.1,0.1,0.1,0.1l5.1,0.1l0,2c0,0,0,0.1,0,0.1c0,0,0.1,0,0.1,0l0.5,0c0,0,0,0,0,0c0.1,0,0.1-0.1,0.1-0.1l0.1-5.2
			C90.9,65.9,90.9,65.8,90.9,65.8z"/>
		<path d="M87.9,84c-1-0.2-1.6,0.5-2.2,1.2c-0.4,0.5-0.8,1-1.3,0.9c-0.1,0-0.1,0-0.2-0.1c-0.3-0.1-0.4-0.4-0.4-0.7c0,0,0-0.1,0-0.1
			c0-0.1,0-0.2,0.1-0.3c0.1-0.4,0.6-0.8,1-1l0.3-0.1c0.1,0,0.1-0.1,0.1-0.1c0-0.1-0.1-0.1-0.1-0.1l-1-0.2c0,0-0.1,0-0.1,0l0,0
			c-0.4,0.3-0.7,0.8-0.8,1.4c-0.2,1,0.2,2.2,1.3,2.4c1.1,0.2,1.7-0.6,2.3-1.2c0.5-0.6,0.8-0.9,1.2-0.9c0.1,0,0.1,0,0.2,0.1
			c0.2,0.1,0.3,0.4,0.3,0.6c0,0,0,0.1,0,0.1c0,0.1,0,0.1-0.1,0.2c-0.1,0.3-0.4,0.6-0.9,0.9l-0.2,0.1c-0.1,0-0.1,0.1-0.1,0.1
			c0,0.1,0.1,0.1,0.1,0.1l1,0.2c0,0,0,0,0,0c0,0,0.1,0,0.1,0l0,0c0.4-0.4,0.6-0.8,0.7-1.3c0.1-0.4,0-0.9-0.1-1.3
			C88.9,84.6,88.6,84.2,87.9,84z"/>
		<path d="M80,106.8c-0.9-0.5-1.7,0-2.4,0.4c-0.6,0.3-1.1,0.6-1.5,0.4c-0.1,0-0.1-0.1-0.2-0.1c-0.2-0.2-0.2-0.5-0.1-0.8
			c0,0,0,0,0-0.1c0-0.1,0.1-0.1,0.1-0.2c0.3-0.3,0.8-0.5,1.2-0.6l0.3,0c0.1,0,0.1-0.1,0.1-0.1s0-0.1-0.1-0.2l-0.9-0.6
			c0,0-0.1,0-0.1,0l0,0c-0.4,0.1-1,0.5-1.2,1c-0.3,0.5-0.4,1-0.4,1.5c0,0.5,0.3,1,0.7,1.2c1,0.6,1.8,0,2.6-0.4
			c0.6-0.4,1-0.6,1.4-0.4c0.1,0.1,0.2,0.1,0.2,0.2c0.1,0.2,0.1,0.4,0.1,0.6c0,0,0,0.1-0.1,0.1c0,0.1-0.1,0.1-0.1,0.2
			c-0.2,0.2-0.6,0.4-1.1,0.5l-0.3,0c-0.1,0-0.1,0.1-0.1,0.1c0,0.1,0,0.1,0.1,0.2l0.9,0.5c0,0,0,0,0.1,0c0,0,0,0,0.1,0l0.1,0
			c0.4-0.2,0.8-0.5,1.1-1c0.2-0.4,0.3-0.8,0.3-1.2C80.7,107.6,80.5,107.1,80,106.8z"/>
		<path d="M76.6,113.7c0,0-0.1,0-0.1,0c0,0-0.1,0-0.1,0.1l-1.2,1.5l-3.9-3.3c-0.1-0.1-0.2,0-0.2,0l-0.6,0.7c0,0,0,0.1,0,0.1
			c0,0,0,0.1,0.1,0.1l3.9,3.3l-1.2,1.5c0,0,0,0.1,0,0.1c0,0,0,0.1,0.1,0.1l0.4,0.3c0,0,0.1,0,0.1,0c0,0,0.1,0,0.1-0.1l3.2-4
			c0.1-0.1,0-0.2,0-0.2L76.6,113.7z"/>
		<path d="M59.8,122c0-0.1-0.1-0.1-0.2-0.1l-1.2,0.5c-1.2,0.5-2,1.2-2.5,1.9c-0.5,0.8-0.6,1.8-0.2,2.8c0.5,1.1,1.3,1.7,2.5,1.7
			c0.9,0,1.8-0.4,2.5-0.7l1.2-0.5c0,0,0.1,0,0.1-0.1c0,0,0-0.1,0-0.1L59.8,122z M60.3,127.4c-1.9,0.8-3.1,0.4-3.7-1.1
			c-0.2-0.5-0.2-0.9-0.1-1.4c0.1-0.2,0.2-0.4,0.3-0.5c0.4-0.4,0.9-0.8,1.8-1.2l0.2-0.1l1.7,4.2L60.3,127.4z"/>
		<path d="M51.2,124.6c0,0-0.1,0-0.1,0l-0.9,0.1c-0.1,0-0.1,0.1-0.1,0.2l0.5,5.8c0,0,0,0.1,0.1,0.1c0,0,0.1,0,0.1,0c0,0,0,0,0,0
			l0.9-0.1c0.1,0,0.1-0.1,0.1-0.2L51.2,124.6C51.3,124.6,51.3,124.6,51.2,124.6z"/>
		<path d="M43.2,124c-1.6-0.3-3.5,0.5-3.9,2.5c-0.2,0.9,0,1.7,0.5,2.4c0.5,0.7,1.2,1.1,2.2,1.3c0.2,0,0.5,0.1,0.7,0.1
			c1.3,0,2.8-0.8,3.2-2.5c0.2-0.9,0-1.7-0.5-2.4C44.9,124.7,44.2,124.2,43.2,124z M44.7,127.5c-0.1,0.6-0.3,1-0.6,1.3
			c-0.3,0.3-0.6,0.5-1,0.6c-0.2,0-0.4,0-0.7,0c-0.9-0.2-1.4-0.7-1.6-1.1c-0.3-0.5-0.4-1.1-0.3-1.6c0.1-0.6,0.3-1,0.6-1.3
			c0.3-0.3,0.6-0.5,1-0.6c0.1,0,0.2,0,0.3,0c0.1,0,0.3,0,0.4,0c0.9,0.2,1.4,0.7,1.6,1.1C44.7,126.4,44.8,127,44.7,127.5z"/>
		<path d="M24.1,110.5l-0.3-0.5c0,0-0.1-0.1-0.1-0.1c0,0-0.1,0-0.1,0l-3.3,2.2l2.2-4.2c0,0,0-0.1,0-0.1l-0.1-0.2
			c0,0-0.1-0.1-0.1-0.1l-4.4,0.1l3.1-2c0,0,0.1-0.1,0.1-0.1c0,0,0-0.1,0-0.1l-0.5-0.8c0-0.1-0.1-0.1-0.2,0l-4.8,3.1
			c-0.1,0-0.1,0.1,0,0.2l0.3,0.5c0,0,0.1,0.1,0.1,0.1l5-0.1l-2.3,4.5c0,0,0,0.1,0,0.1l0.4,0.7c0,0,0.1,0.1,0.1,0.1c0,0,0.1,0,0.1,0
			l4.8-3.1C24.1,110.7,24.1,110.6,24.1,110.5z"/>
		<path d="M13.3,85.8l-4.3,0.8l3.6-5.4l0,0c0,0,0-0.1,0-0.1l0-0.3c0-0.1-0.1-0.1-0.2-0.1l-5.6,1.1c0,0-0.1,0-0.1,0.1
			c0,0,0,0.1,0,0.1l0.1,0.5c0,0.1,0.1,0.1,0.2,0.1l3.9-0.7l-3.3,4.8c0,0,0,0.1,0,0.1l0.1,0.8c0,0,0,0.1,0.1,0.1c0,0,0.1,0,0.1,0
			c0,0,0,0,0,0l5.6-1.1c0,0,0.1,0,0.1-0.1c0,0,0-0.1,0-0.1L13.4,86C13.4,85.9,13.3,85.8,13.3,85.8z"/>
		<path d="M13.8,46c-0.1,0-0.1,0-0.1,0.1c0,0-0.1,0.2-0.2,0.4c-0.2,0.3-0.5,0.6-0.8,0.8c-0.4,0.3-1.2,0.9-1.9,1.3
			c-0.2-0.6-0.7-1.1-1.2-1.2c-0.5-0.1-1,0-1.3,0.2c-0.4,0.3-0.7,0.9-0.9,1.7l-0.3,1.3c0,0.1,0,0.2,0.1,0.2l5.6,1.3c0,0,0,0,0,0
			c0,0,0.1,0,0.1,0c0,0,0.1-0.1,0.1-0.1l0.2-0.9c0-0.1,0-0.2-0.1-0.2l-2.2-0.5c0-0.2,0.1-0.4,0.1-0.6l0.2-0.1c0.9-0.5,1.7-1,2.1-1.4
			c0.3-0.3,0.5-0.6,0.6-1.1c0-0.1,0.1-0.3,0.1-0.4c0-0.3-0.1-0.6-0.1-0.6C14,46,13.9,46,13.8,46z M10.2,50.2l-2.1-0.5l0-0.1
			c0.1-0.3,0.4-1.2,1.3-1c0.3,0.1,0.5,0.2,0.6,0.4C10.3,49.3,10.3,49.7,10.2,50.2z"/>
		<path d="M83.4,50.1C83.5,50.2,83.5,50.2,83.4,50.1c0.1,0,0.1,0,0.2,0c0.1,0,0.1-0.1,0.1-0.2c0,0,0-0.2,0-0.4
			c0-0.3,0.2-0.7,0.3-1.1c0.2-0.5,0.8-1.6,1.1-2c0.5,0.5,1.1,0.6,1.6,0.5c0.5-0.1,0.9-0.4,1.1-0.8c0.2-0.5,0.2-1.1,0-1.9l-0.4-1.3
			c0,0,0-0.1-0.1-0.1c0,0-0.1,0-0.1,0l-5.5,1.6c0,0-0.1,0-0.1,0.1c0,0,0,0.1,0,0.1l0.2,0.9c0,0,0,0.1,0.1,0.1c0,0,0.1,0,0.1,0
			l2.1-0.6c0.1,0.2,0.1,0.4,0.2,0.5l-0.1,0.2c-0.5,0.9-1.1,1.7-1.2,2.3c-0.1,0.4-0.2,0.8-0.1,1.3c0,0.2,0.1,0.3,0.1,0.4
			C83.2,49.9,83.4,50.1,83.4,50.1z M86.9,44.1l0,0.1c0.1,0.3,0.2,1.3-0.7,1.6c-0.3,0.1-0.5,0.1-0.7-0.1c-0.3-0.2-0.5-0.5-0.7-1
			L86.9,44.1z"/>
		<path d="M17.8,36.1C17.8,36.1,17.9,36.1,17.8,36.1c0.1,0,0.1,0,0.1,0c0,0,0.1,0,0.1-0.1l1.3-2.8c0,0,0-0.1,0-0.1
			c0,0,0-0.1-0.1-0.1l-0.4-0.2c-0.1,0-0.2,0-0.2,0.1l-0.8,1.8L16.1,34l0.6-1.3c0-0.1,0-0.2-0.1-0.2l-0.4-0.2c-0.1,0-0.2,0-0.2,0.1
			l-0.6,1.3l-1.7-0.8l0.8-1.8c0-0.1,0-0.2-0.1-0.2l-0.4-0.2c0,0-0.1,0-0.1,0c0,0-0.1,0-0.1,0.1l-1.3,2.8c0,0.1,0,0.2,0.1,0.2
			L17.8,36.1z"/>
		<path d="M21,29.9C21,29.9,21.1,29.9,21,29.9c0.1,0,0.1,0,0.1,0c0,0,0.1,0,0.1-0.1l0.3-0.5c0-0.1,0-0.2,0-0.2l-3.7-2.5l6.3-1.3
			c0,0,0.1,0,0.1-0.1l0.1-0.2c0-0.1,0-0.2,0-0.2l-4.8-3.2c0,0-0.1,0-0.1,0c0,0-0.1,0-0.1,0.1L19,22.2c0,0.1,0,0.2,0,0.2l3.3,2.2
			l-5.6,1.1c0,0-0.1,0-0.1,0.1l-0.5,0.7c0,0,0,0.1,0,0.1c0,0,0,0.1,0.1,0.1L21,29.9z"/>
		<path d="M26,19.3l0-0.1L26,19.3c0.6-0.2,1.2-0.3,1.5,0c0.1,0.1,0.1,0.2,0.2,0.2c0.1,0.2,0.1,0.5-0.1,0.7c0,0-0.1,0.1-0.1,0.1
			c-0.1,0.1-0.1,0.1-0.2,0.2c-0.3,0.2-0.9,0.3-1.3,0.2l-0.3,0c-0.1,0-0.1,0-0.1,0.1c0,0.1,0,0.1,0,0.2l0.7,0.8c0,0,0.1,0,0.1,0
			l0.1,0c0.4,0,1.1-0.3,1.4-0.7c0.4-0.4,0.6-0.9,0.7-1.3c0.1-0.5-0.1-1-0.4-1.4c-0.8-0.8-1.8-0.5-2.6-0.3c-0.6,0.2-1.2,0.3-1.5,0
			c0-0.1-0.1-0.1-0.1-0.2c-0.1-0.2-0.1-0.5,0.1-0.7c0,0,0-0.1,0.1-0.1c0,0,0.1-0.1,0.2-0.1c0.3-0.2,0.7-0.3,1.2-0.2l0.3,0
			c0.1,0,0.1,0,0.1-0.1c0-0.1,0-0.1,0-0.2l-0.7-0.7c0,0-0.1-0.1-0.1,0l-0.1,0c-0.5,0.1-0.9,0.3-1.3,0.7c-0.3,0.3-0.5,0.7-0.6,1.1
			c-0.1,0.4,0,0.9,0.4,1.4C24.3,19.8,25.2,19.5,26,19.3z"/>
		<path d="M31.8,17.2c0,0,0.1,0.1,0.1,0.1c0,0,0.1,0,0.1,0l0.7-0.5c0,0,0.1-0.1,0.1-0.1c0,0,0-0.1,0-0.1l-3.3-4.7
			c0-0.1-0.1-0.1-0.2,0l-0.7,0.5c0,0-0.1,0.1-0.1,0.1c0,0,0,0.1,0,0.1L31.8,17.2z"/>
		<path d="M36.1,11.6l0-0.1L36.1,11.6c0.7,0.1,1.2,0.1,1.4,0.6c0,0.1,0.1,0.2,0.1,0.3c0,0.3-0.1,0.6-0.4,0.7c0,0,0,0-0.1,0
			c-0.1,0-0.2,0.1-0.2,0.1c-0.4,0.1-1,0-1.3-0.2l-0.3-0.2c-0.1,0-0.1,0-0.2,0c0,0-0.1,0.1,0,0.2l0.4,1c0,0,0,0.1,0.1,0.1l0,0
			c0.2,0.1,0.4,0.1,0.6,0.1c0.3,0,0.7-0.1,1-0.2c0.9-0.4,1.7-1.4,1.2-2.5c-0.5-1-1.5-1.1-2.3-1.2c-0.7-0.1-1.2-0.1-1.4-0.5
			c0-0.1,0-0.1-0.1-0.2c0-0.3,0.1-0.5,0.3-0.6c0,0,0.1,0,0.1-0.1c0.1,0,0.1-0.1,0.2-0.1c0.3-0.1,0.8,0,1.2,0.2l0.3,0.1
			c0.1,0,0.1,0,0.2,0c0,0,0.1-0.1,0-0.2l-0.4-1c0,0-0.1-0.1-0.1-0.1l-0.1,0c-0.5-0.1-0.9,0-1.4,0.2c-0.4,0.2-0.7,0.5-0.9,0.8
			c-0.2,0.3-0.4,0.8-0.1,1.4C34.3,11.4,35.3,11.6,36.1,11.6z"/>
		<path d="M15.2,42.8l-2.1-0.7c0.1-0.2,0.1-0.4,0.1-0.6l0.3-0.1c0.9-0.4,1.8-0.8,2.3-1.2c0.3-0.3,0.6-0.5,0.8-1
			c0-0.1,0.1-0.3,0.1-0.4c0-0.3,0-0.6,0-0.6c0-0.1-0.1-0.1-0.1-0.1c-0.1,0-0.1,0-0.1,0.1c0,0-0.1,0.2-0.2,0.4
			c-0.2,0.3-0.5,0.5-0.9,0.7c-0.4,0.3-1.3,0.7-2,1.1c-0.1-0.6-0.5-1.1-1.1-1.3c-0.5-0.2-0.9-0.1-1.3,0.1c-0.4,0.3-0.8,0.8-1,1.5
			l-0.4,1.3c0,0.1,0,0.2,0.1,0.2l5.4,1.9c0,0,0,0,0,0c0,0,0,0,0.1,0c0,0,0.1,0,0.1-0.1l0.3-0.9C15.3,42.9,15.3,42.8,15.2,42.8z
			 M12.4,41.8l-2-0.7l0-0.1c0.1-0.3,0.5-1.2,1.4-0.9c0.3,0.1,0.5,0.3,0.6,0.5C12.6,40.9,12.6,41.3,12.4,41.8z"/>
		<path d="M42.4,30.2c-0.1,0.1-0.2,0.3-0.2,0.5c0,0.2,0.1,0.4,0.2,0.5c0.1,0.1,0.3,0.2,0.5,0.2c0.2,0,0.4-0.1,0.5-0.2
			c0.1-0.1,0.2-0.3,0.2-0.5c0-0.2-0.1-0.4-0.2-0.5C43,29.9,42.6,29.9,42.4,30.2z"/>
		<path d="M46.9,52C46.9,52,46.9,52,46.9,52c-0.2-0.9-0.5-1.8-0.7-2.6c-0.3-1-0.6-1.8-0.9-2.5c0-0.1-0.1-0.1-0.2-0.1
			C45,46.9,45,46.9,45,47c0,0.8,0.1,1.6,0.3,2.7c0.1,0.8,0.3,1.6,0.5,2.6c0.2,0.9,0.5,1.8,0.7,2.6c0.3,1,0.6,1.8,0.9,2.5
			c0,0.1,0.1,0.1,0.2,0.1c0,0,0,0,0,0c0.1,0,0.1-0.1,0.1-0.2c0-0.8-0.1-1.6-0.3-2.7C47.3,53.8,47.1,52.9,46.9,52z"/>
		<path d="M51.5,60.9c-0.1,0-0.2,0.1-0.2,0.2c-0.2,1.4-0.3,2.8-0.4,4.1c0,0.3-0.1,0.7-0.1,1l0,0.2c-0.1,1.6-0.3,3.3-0.5,4.9
			c-0.3,1.6-0.6,3.2-1.4,4.7c-0.2,0.4-0.4,0.7-0.7,0.9c-0.2,0.3-0.5,0.5-0.9,0.7c-0.6,0.3-1.4,0.5-2.3,0.5c-0.1,0-0.2,0.1-0.2,0.1
			c0,0.1,0,0.2,0.1,0.2c0.5,0.2,1,0.2,1.4,0.2c0.4,0,0.9-0.1,1.3-0.2c0.8-0.3,1.6-0.9,2.2-1.8c0.5-0.7,0.9-1.5,1.2-2.5
			c0.3-0.8,0.5-1.6,0.6-2.6c0.2-1.6,0.3-3.3,0.3-5.3c0-1.8-0.2-3.5-0.4-5.2C51.7,61,51.6,60.9,51.5,60.9z"/>
		<path d="M51.6,57.8C51.6,57.8,51.6,57.8,51.6,57.8c0.1,0,0.2-0.1,0.2-0.2c0.2-1.3,0.4-2.6,0.5-3.9l0.1-0.6
			c0.1-1.3,0.3-2.7,0.4-4.1c0.2-1.6,0.3-3,0.4-4.3l0,0c0.1-1.4,0.2-2.8,0.2-4.3c0-0.1-0.1-0.2-0.1-0.2c-0.1,0-0.2,0-0.2,0.1
			c-0.4,1.2-0.8,2.6-1.1,4.2c-0.3,1.4-0.5,2.9-0.6,4.3c-0.2,1.5-0.2,3-0.2,4.4c0,1.7,0.1,3.1,0.4,4.4C51.4,57.7,51.5,57.8,51.6,57.8
			z"/>
		<path d="M47.1,58.3c-0.1,0-0.2,0-0.2,0.1c-0.1,0.1,0,0.2,0,0.2c0.4,0.5,1,0.8,1.7,1.1c0.6,0.2,1.3,0.4,2,0.5
			c0.4,0,0.8,0.1,1.2,0.1c0.9,0,1.8-0.1,2.8-0.3c1.3-0.3,2.6-0.7,3.8-1.2c0,0,0,0,0,0c1.4-0.7,2.5-1.4,3.3-2.2
			c0.1-0.1,0.1-0.2,0-0.2c0-0.1-0.1-0.1-0.2-0.1c-1.1,0.5-2.2,1-3.5,1.4c-1.2,0.4-2.4,0.7-3.6,0.9c-1.4,0.3-2.6,0.4-3.7,0.4
			C49.7,59,48.3,58.9,47.1,58.3z"/>
		<path d="M26.5,73.4C26.5,73.4,26.5,73.4,26.5,73.4c-0.2,0-0.4,0.1-0.8,0.2c-0.1,0-0.1,0.1-0.1,0.2c0.1,0.4,0.3,0.6,0.4,0.7
			c0.2,0.2,0.3,0.3,0.5,0.4C26.8,75,27,75,27.2,75c0,0,0.1,0,0.1,0c0.3,0,0.5-0.1,0.8-0.2c0.1,0,0.1-0.1,0.1-0.2
			c-0.1-0.4-0.3-0.6-0.4-0.7c-0.2-0.2-0.3-0.3-0.5-0.4C27,73.4,26.8,73.4,26.5,73.4z"/>
		<path d="M64.7,103.3c0.3-0.8,0.5-1.7,0.7-2.8c0.1-0.4,0.2-0.9,0.2-1.4l0-0.1c0.1-0.4,0.1-0.8,0.2-1.3c0.4-1.9,1-3.5,2-4.7
			c0.6-0.7,1.2-1.3,1.9-1.7c0.5-0.4,1.1-0.7,2-1l0.2,0.7c0.1,0.5,0.3,1,0.4,1.6c0.1,0.2,0.2,0.4,0.4,0.5c0.4,0.2,0.8,0,1-0.4
			c0.3-0.8,0.6-1.6,0.9-2.5c0.2,0.2,0.3,0.5,0.4,0.7c0.2,0.5,0.3,1,0.3,1.6c0,0.5-0.2,1-0.4,1.5c-0.3,0.5-0.6,1-0.9,1.3
			c-0.3,0.3-0.7,0.5-1.1,0.8c-0.1,0.1-0.2,0.1-0.3,0.2c-0.6,0.4-1.1,0.8-1.5,1.2L71,97.6l-0.2,0.2c-0.1,0.1-0.2,0.3-0.3,0.4
			c-0.2,0.3-0.3,0.6-0.5,0.9c-0.3,0.6-0.5,1.2-0.7,1.8c-0.1,0.4,0.1,0.8,0.4,0.9l0.9,0.4c-0.1,0.1-0.2,0.2-0.3,0.3l-1.2,1.1
			c-0.5,0.4-1,0.9-1.4,1.3l0-0.1c0-0.5,0-1,0-1.5c0-1.1,0-2-0.1-3c0-0.1-0.1-0.2-0.2-0.2c-0.1,0-0.2,0.1-0.2,0.2
			c-0.1,0.9-0.3,1.9-0.4,3c-0.1,0.5-0.1,1-0.2,1.5l-0.2,1.5c0,0.2,0,0.3,0.1,0.4c0.2,0.2,0.5,0.3,0.8,0.1l0,0
			c0.3-0.2,0.6-0.5,0.9-0.7c0.5-0.4,1.1-0.9,1.6-1.3l1.2-1c0.3-0.2,0.6-0.5,0.8-0.7l0.4-0.3c0.1-0.1,0.2-0.2,0.2-0.3
			c0.1-0.2,0.1-0.4,0-0.6c-0.1-0.2-0.2-0.3-0.4-0.4l-1.3-0.6c0.1-0.3,0.3-0.7,0.4-0.9c0.1-0.3,0.3-0.5,0.4-0.7
			c0.1-0.1,0.1-0.2,0.2-0.3l0.3-0.3c0.3-0.4,0.7-0.7,1.2-1.1l0.2-0.2c0.2-0.1,0.3-0.3,0.5-0.4c0.3-0.3,0.5-0.5,0.7-0.7
			c0.4-0.5,0.8-1.1,1-1.8c0.2-0.7,0.4-1.4,0.3-2c-0.1-0.7-0.3-1.4-0.6-1.9c-0.2-0.4-0.5-0.7-0.8-0.9c0.3-0.9,0.6-1.8,0.9-3
			c0.1-0.3,0.2-0.6,0.3-1l0,0c0.3-0.1,0.5-0.3,0.7-0.5c0.3-0.4,0.5-0.9,0.5-1.4c0-0.5-0.2-0.9-0.5-1.3c0.2-0.8,0.3-1.4,0.4-2
			c0.8-4.2,1.3-8.4,1.5-12.5c0-0.9,0.1-1.9,0.1-3c0.7-0.3,1.1-1,1.1-1.8c0-0.7-0.4-1.4-1.1-1.7c-0.1-1.9-0.2-3.9-0.4-6.1
			c-0.2-1.6-0.4-3.3-0.7-4.9c0.6-0.3,1-1,1-1.7c0-1-0.8-1.8-1.7-1.9c-0.3-1.3-0.6-2.6-1-3.8c0,0,0,0,0-0.1c-0.1-0.1-0.1-0.2-0.3-0.3
			c-0.1,0-0.3,0-0.4,0c-0.9,0.4-2,0.9-3.4,1.4c-0.9,0.3-1.9,0.6-3,0.9c-0.5-2.6-1.2-5.3-2-8.3c-0.4-1.4-0.8-2.8-1.3-4.1l0,0
			c-0.5-1.5-1-2.8-1.6-4.1c-0.5-1.1-1.2-2.6-2.3-3.9c-0.3-0.3-0.6-0.6-0.9-0.8c-0.3-0.2-0.7-0.5-1.3-0.6c-0.3,0-0.6,0-0.8,0.1
			c-0.2,0.1-0.5,0.2-0.7,0.4c-0.2,0.2-0.4,0.4-0.4,0.5c-0.1,0.2-0.2,0.3-0.3,0.5c-0.8,1.2-1.4,2.5-1.9,4c-0.5,1.6-0.7,3-0.7,4.3
			c0,0.1,0.1,0.2,0.2,0.2c0.1,0,0.2-0.1,0.2-0.1c0.2-1.4,0.7-2.7,1.2-4.1c0.3-0.7,0.6-1.3,0.9-1.9c0,0,0,0,0,0
			c0.4-0.7,0.7-1.2,1.1-1.7c0.1-0.1,0.2-0.3,0.3-0.4c0.1-0.1,0.2-0.2,0.3-0.3c0.2-0.1,0.3-0.2,0.5-0.2c0.2,0,0.3,0.1,0.6,0.3
			c0.2,0.2,0.4,0.4,0.6,0.7c0.4,0.5,0.8,1.1,1.1,1.7c0.4,0.6,0.7,1.3,0.9,1.9c0.6,1.4,1.1,2.8,1.6,4c0.3,0.9,0.7,1.8,1,2.7
			c0.2,0.4,0.3,0.9,0.5,1.3l0.5,1.5c0.8,2.1,1.5,4.3,2.3,6.5c0,0-0.1,0-0.1,0c-1,0.3-2.1,0.5-3.3,0.8c-0.3-0.6-0.7-1.2-1.2-1.9
			c-0.3-0.5-0.6-0.9-0.9-1.4l-0.4-0.6c-0.3-0.5-0.6-0.9-0.9-1.4l-1-1.5L60,38.4c0,0,0-0.1-0.1-0.1c0,0,0,0,0,0
			c-0.8-1.2-1.9-2.1-3.2-2.7c-0.6-0.3-1.3-0.5-2-0.7c-0.6-0.1-1.1-0.4-1.5-0.7c-0.4-0.3-0.8-0.7-1-1.2c-0.1-0.2-0.2-0.5-0.3-0.8
			c0-0.1,0-0.1,0-0.2l-0.2-0.8c-0.3-1.4-0.6-2.6-1-3.9c-0.1-0.3-0.2-0.6-0.4-1c-0.1-0.4-0.3-0.7-0.5-1c-0.4-0.7-1-1.3-1.6-1.7
			c-0.6-0.4-1.4-0.6-2.2-0.6c-0.7,0-1.4,0.1-2.1,0.3c-0.1,0-0.2,0.1-0.3,0.1c-0.2,0.1-0.4,0.1-0.6,0.2c-0.3,0.1-0.7,0.3-0.9,0.5
			c-0.6,0.4-1.1,0.8-1.6,1.4c-0.2,0.3-0.4,0.6-0.6,0.9c-0.2,0.3-0.3,0.7-0.4,1c-0.2,0.7-0.2,1.4-0.1,2.1c0,0.3,0.1,0.6,0.1,0.8
			c0.1,0.3,0.2,0.6,0.2,0.8c0,0.1,0.1,0.2,0.2,0.3c0,0,0.1,0.1,0.1,0.1l0.9,0.6l0,0c0.1,0.4,0.1,0.8,0.2,1.1c0,0.2,0.1,0.4,0.1,0.6
			l0.1,0.4c0.1,0.3,0.4,0.5,0.7,0.4l0.8-0.2c0.4,0.4,0.8,0.8,1.2,1.1c0.7,0.4,1.3,0.6,1.8,0.6l0.1,0c0,0,0,0,0,0
			c0.1,0,0.3-0.1,0.3-0.2c0.4-0.4,0.7-1,0.9-1.6c0.2-0.5,0.3-1.1,0.3-1.7c0-0.1-0.1-0.2-0.1-0.2c-0.1,0-0.2,0-0.2,0.1
			c-0.4,1.1-0.9,1.9-1.4,2.5c-0.4-0.1-0.8-0.3-1.2-0.6c-0.4-0.3-0.8-0.7-1.1-1.1l-0.1-0.1c-0.1-0.2-0.4-0.3-0.6-0.2l-0.6,0.1
			c0-0.1-0.1-0.3-0.1-0.4c-0.1-0.4-0.2-0.7-0.3-1.1l-0.1-0.2c0-0.1-0.1-0.2-0.2-0.3l-0.7-0.4L40.4,31c0,0,0,0,0,0c0,0,0,0,0,0
			L40,30.3c-0.1-0.2-0.2-0.3-0.2-0.5c0.5-0.1,1-0.2,1.6-0.4c0.3-0.1,0.6-0.2,0.9-0.2l0.1,0c0.1,0,0.2-0.1,0.3-0.1c0.1,0,0.3,0,0.4,0
			c0.6,0,1.1,0.1,1.5,0.4c0.2,0.1,0.4,0.3,0.6,0.5l0,0c0.1,0.1,0.3,0.2,0.4,0.1c0.1,0,0.2,0,0.3-0.1l0.8-0.4l0.2-0.1l0.5,1.3
			c0,0.1,0.1,0.2,0.2,0.3c0.2,0.1,0.3,0.2,0.5,0.3c0.9,0.6,1.6,1.1,2.4,1.5c0.1,0.3,0.2,0.7,0.4,1c0.4,0.7,0.9,1.3,1.5,1.7
			c0.1,0.1,0.2,0.2,0.4,0.2c0,0,0,0,0,0.1l0,0.1c-0.2,0.8-0.4,1.6-0.9,2.2c-0.5,0.7-1.2,0.9-1.8,1c-0.1,0-0.2,0-0.3,0
			c-0.1,0-0.1,0-0.2,0l-0.2,0c-0.1,0-0.3,0-0.4,0c-0.3,0-0.7-0.1-0.9-0.3c-0.6-0.3-1-0.9-1.1-1.5c0-0.1,0-0.1-0.1-0.2
			c-0.2-0.4-0.7-0.4-1-0.2l0,0c-0.8,0.5-1.5,0.9-2.2,1.3c-0.9,0.6-1.5,1.1-2.1,1.7c-0.3,0.3-0.7,0.7-0.9,1.2
			c-0.1,0.1-0.1,0.2-0.1,0.3c0,0,0,0.1,0,0.1l0,0.1c0,0.1-0.1,0.2-0.1,0.2c0,0.1,0,0.1-0.1,0.2c0,0.1-0.1,0.3-0.1,0.4
			c-0.2,0.8-0.3,1.6-0.4,2.6c-0.1,1-0.2,1.9-0.2,2.6c0,0.1,0,0.1,0,0.2c-1-1.3-2-2.9-2.9-4.8c-0.9-1.8-1.7-3.9-2.4-6.1
			c0-0.1-0.1-0.2-0.1-0.3c-0.1-0.2-0.1-0.3-0.2-0.5l-0.2-0.8c0-0.2-0.1-0.3-0.1-0.5c-0.1-0.4-0.2-0.8-0.3-1.1l-0.4-1.6l0-0.2
			c-0.1-0.5-0.2-1-0.3-1.5l-0.2-0.8c0-0.2,0-0.3,0.1-0.5c0.1-0.2,0.2-0.3,0.3-0.4c0.1,0,0.1-0.1,0.2-0.1l0.4,0c0.5,0,1,0,1.6,0.1
			c0.4,0.1,0.9,0.2,1.4,0.3c0.1,0.9,0.3,1.9,0.6,2.8c0.5,1.5,1.4,2.7,2.5,3.6c0.1,0.1,0.2,0,0.2,0c0.1-0.1,0.1-0.2,0-0.2
			c-0.9-1-1.5-2.2-1.8-3.6c-0.3-1.3-0.4-2.7-0.2-3.9l0.1-0.5c0-0.1,0.1-0.2,0.1-0.3c0-0.1,0-0.1,0.1-0.2c0.1-0.2,0.1-0.4,0.2-0.7
			c0-0.1,0.1-0.2,0.1-0.3c0-0.1,0.1-0.2,0.1-0.3c0-0.1,0.1-0.1,0.1-0.2c0-0.1,0.1-0.1,0.1-0.2c0-0.1,0.1-0.2,0.1-0.3
			c0-0.1,0.1-0.1,0.1-0.2c0.1-0.2,0.3-0.4,0.4-0.6c0.3-0.4,0.7-0.9,1.3-1.4c0.1-0.1,0.2-0.1,0.3-0.2c0.2-0.1,0.3-0.2,0.5-0.3
			l0.4-0.2l0.4-0.2c2.3-1.1,5.1-0.9,7.3,0.4c0.1,0.1,0.2,0.1,0.3,0.2l0,0c0,0,0.1,0.1,0.1,0.1c0.1,0.1,0.2,0.1,0.2,0.2l0.5,0.4
			c0,0,0.1,0.1,0.1,0.1l0.5,0.5l0.5,0.6l0.4,0.6c0.7,1.1,1.1,2.4,1.2,3.8c0,0.1,0.1,0.2,0.2,0.2c0.1,0,0.2-0.1,0.2-0.2
			c0.1-1.4-0.2-2.9-0.8-4.3c-0.7-1.4-1.7-2.6-2.9-3.4c-2.5-1.8-5.8-2-8.6-0.7c-2.8,1.3-4.7,4.1-5,7.1c0,0.4-0.1,0.7,0,1.1
			c-0.4-0.2-0.8-0.4-1.2-0.5c-0.5-0.2-1.1-0.3-1.7-0.4c-0.1,0-0.1,0-0.2,0l-0.1,0c0,0-0.1,0-0.1,0l0,0c-0.2,0-0.4,0.1-0.6,0.1
			c-0.3,0.2-0.6,0.4-0.8,0.8c-0.2,0.3-0.3,0.7-0.2,1.1c0,0.2,0,0.4,0.1,0.6c0,0.1,0,0.2,0,0.3l0,0.1c0.1,0.5,0.1,1,0.2,1.6l0.3,1.7
			c0.1,0.4,0.2,0.8,0.3,1.2c0,0.2,0.1,0.3,0.1,0.5l0.2,0.8c0.1,0.2,0.1,0.4,0.2,0.5c0,0.1,0.1,0.2,0.1,0.3c0.7,2.2,1.6,4.3,2.8,6.2
			c1.3,2.1,2.6,3.7,4,4.9c0,0.5-0.1,1.1-0.1,1.8c0,1.3,0,2.6,0.1,3.9c-0.1-0.2-0.2-0.4-0.4-0.6c-0.8-1.2-1.6-2.3-2.3-3.2
			c-0.7-1-1.5-2-2.4-3.1c-0.2-0.2-0.4-0.3-0.7-0.2c-0.1-0.2-0.2-0.5-0.3-0.7c-0.1-0.1-0.1-0.3-0.2-0.4c-0.1-0.2-0.2-0.5-0.3-0.7
			c-0.1-0.1-0.1-0.3-0.2-0.4c-0.1-0.2-0.2-0.5-0.3-0.7c-0.2-0.3-0.3-0.7-0.5-1l0-0.1c-0.1-0.2-0.3-0.3-0.6-0.3c0,0,0,0,0,0l-0.1,0
			c-0.7,0-1.5,0-2.3,0.1c-0.5-1.7-1-3.3-1.6-4.9c-0.5-1.4-1.1-3.2-1.8-4.9c0-0.1-0.1-0.1-0.2-0.1c-0.1,0-0.1,0.1-0.1,0.2
			c0.3,1.9,0.8,3.8,1.1,5.1c0.4,1.5,0.8,3.1,1.3,4.7c-0.3,0-0.6,0.3-0.6,0.7c-0.1,0.7-0.2,1.4-0.3,2l0,0c0,0.1,0,0.3,0.1,0.4
			c0.2,0.4,0.5,0.9,0.8,1.4c0.3,0.4,0.5,0.9,0.8,1.4l0,0.1c0.1,0.1,0.2,0.2,0.3,0.2l0.6,0.1c2,6.8,4.2,14,5.8,19.2
			c1.7,5.5,3,9.7,4.3,13.7c0,0.1,0.2,0.2,0.3,0.2c0,0,0.1,0,0.1,0c0.1,0,0.2-0.2,0.2-0.3l0-3.3c0,0,0-0.1-0.1-0.1
			c0,0-0.1-0.1-0.2-0.1c0,0-0.1,0-0.1,0l-0.6,0.2c-0.9-3.2-1.8-6.5-3-10.6c-1.5-5.3-4.9-16.6-5.5-18.6c0,0,0.1,0,0.1,0
			c0.1,0,0.3,0,0.4,0.1c0.6,2.3,1.2,4.7,1.9,7c0.4,1.1,0.8,2.3,1.3,3.5c0.5,1.1,1,2.2,1.8,3.3l0.1,0.2c0.3,0.5,0.7,0.9,1.1,1.3
			c0.3,0.3,0.5,0.5,0.8,0.6c0.4,0.2,0.7,0.4,1,0.4c0.2,0,0.4,0,0.6,0c0.2,0,0.3-0.1,0.5-0.1c0.3-0.1,0.6-0.2,0.9-0.4
			c0.5-0.3,1-0.7,1.5-1.2c0.8-0.9,1.5-2,2-3.2c0.2-0.5,0.4-1.1,0.5-1.8c0.1-0.6,0.2-1.2,0.2-1.8c0-0.1-0.1-0.2-0.2-0.2
			c-0.1,0-0.2,0.1-0.2,0.2c-0.1,0.6-0.2,1.2-0.4,1.8c-0.1,0.5-0.3,1.1-0.6,1.6c-0.6,1.1-1.3,2-2.1,2.8c-0.5,0.4-0.9,0.7-1.3,1
			c-0.2,0.1-0.5,0.2-0.7,0.3c-0.1,0-0.3,0.1-0.4,0.1c-0.1,0-0.2,0-0.3,0c-0.4-0.1-0.8-0.3-1.2-0.8c-0.3-0.3-0.6-0.7-0.9-1.1
			l-0.2-0.2c-0.7-1-1.1-2.1-1.5-3.1c-0.5-1.2-0.9-2.3-1.2-3.4c-0.7-2.2-1.3-4.5-1.8-6.6c0.2-0.1,0.3-0.2,0.5-0.3
			c0.2-0.1,0.3-0.2,0.5-0.3c0.6,0.7,1.3,1.5,2.1,2.5c0.8,1,1.6,2,2.4,3c0.4,0.6,0.8,1.1,1.1,1.6c0.3,0.4,0.6,1,0.9,1.6
			c0.3,0.6,0.5,1.1,0.3,1.6c-0.1,0.2-0.3,0.4-0.5,0.6c-0.2,0.2-0.5,0.3-0.8,0.5c-0.1,0-0.1,0.1-0.1,0.2c0,0.1,0.1,0.1,0.2,0.1
			c0.3-0.1,0.6-0.2,0.9-0.4c0.4-0.2,0.6-0.5,0.8-0.8c0.2-0.3,0.2-0.7,0.2-1.1c0-0.3-0.1-0.6-0.3-1c-0.2-0.7-0.6-1.3-1-2.1l0.5-4.7
			l0.1-0.7c0.1-0.6,0.1-1.3,0.2-1.9c0.1-0.8,0.2-1.6,0.4-2.5c0.1-0.9,0.3-1.7,0.5-2.5c0-0.1,0.1-0.2,0.1-0.4c0-0.1,0-0.1,0.1-0.2
			c0-0.1,0-0.1,0.1-0.2c0,0,0-0.1,0-0.1c0,0,0-0.1,0-0.1c0,0,0-0.1,0-0.1c0,0,0,0,0,0c0-0.1,0.1-0.2,0.2-0.3l0.1-0.1
			c0.1-0.1,0.2-0.2,0.3-0.3c0.6-0.6,1.3-1.1,1.9-1.5c0.5-0.4,1-0.7,1.4-1c0.1,0.2,0.2,0.4,0.3,0.5c0.3,0.4,0.7,0.7,1.2,0.9
			c0.4,0.2,0.9,0.3,1.5,0.3c0.2,0,0.3,0,0.5,0l0.2,0c0.1,0,0.1,0,0.2,0c0.1,0,0.3,0,0.4-0.1c0.5-0.1,0.9-0.3,1.3-0.6
			c0.4-0.3,0.7-0.6,0.9-1.1c0.4-0.8,0.5-1.6,0.6-2.5c0.4,0.2,0.9,0.4,1.4,0.5c0.6,0.1,1.2,0.3,1.7,0.5c1.1,0.5,2.1,1.3,2.8,2.2
			c0,0,0,0,0,0l0,0c0,0,0,0,0,0.1l1.3,1.7c0.2,0.2,0.4,0.5,0.5,0.7c0.3,0.4,0.6,0.8,0.9,1.1c0.2,0.2,0.3,0.4,0.5,0.6
			c0.3,0.4,0.6,0.8,1,1.2c0.4,0.5,0.8,1,1.3,1.6c-0.4,0.1-0.7,0.2-1.1,0.2c-0.2,0-0.4,0.1-0.6,0.1l-1.8,0.4c0,0,0,0,0,0
			c0,0,0,0-0.1,0c0,0,0,0,0,0c0,0,0,0-0.1,0.1c0,0,0,0,0,0.1c0,0,0,0,0,0.1c0,0,0,0,0,0c0,0,0,0,0,0l2.8,11.2l2.8,11.3
			c0.3,1.2,0.6,2.4,0.9,3.6c0.6,2.6,1.3,5.2,2,7.8l0.3,1.2c0.5,2,1,3.9,1.5,5.9c-1.8,0.2-3.5,0.8-4.9,1.8c-1.5,1-2.8,2.6-3.5,4.4
			l-0.2,0.7c-0.1,0.2-0.1,0.3-0.1,0.5c0,0.1,0,0.2-0.1,0.2l-0.1,0.2c0,0.2-0.1,0.3-0.1,0.5L62,96.9c-0.2,0.9-0.4,1.8-0.6,2.6
			c-0.2,0.8-0.4,1.6-0.8,2.5c-0.1,0.4-0.3,0.8-0.6,1.2c-0.1,0.3-0.3,0.5-0.4,0.7c-0.4-0.3-0.8-0.6-1.2-0.9c0.1-0.7,0.3-1.4,0.4-2.2
			c0.2-1,0.3-1.8,0.4-2.6c0.3-2.1,0.4-3.7,0.4-5.3c0.3-1.1,0.6-2.1,0.7-3c0.2-1.1,0.3-2.1,0.3-3.1c0-1.1,0-2.1-0.1-3.1
			c-0.1-0.8-0.1-1.6-0.3-2.4c0,0,0.1,0,0.1-0.1c0.1-0.1,0.3-0.2,0.4-0.4c0.5-0.5,0.9-1.2,1.1-1.9c0.5-1.4,0.5-2.9,0.4-4.1
			c0-0.5-0.1-1-0.1-1.4c0-0.2,0-0.4-0.1-0.6c-0.1-0.7-0.2-1.3-0.4-1.9l0-0.1c-0.3-1.4-0.7-2.7-1-3.8c-0.7-2.4-1.4-4.8-2.3-7.5
			c0-0.1-0.1-0.1-0.2-0.1c-0.1,0-0.1,0.1-0.1,0.2c0.6,2.3,1.2,4.9,1.8,7.6c0.3,1.2,0.6,2.5,0.8,3.8c0.1,0.6,0.2,1.3,0.3,1.9
			c0,0.2,0,0.4,0,0.6c0,0.5,0.1,0.9,0.1,1.4c0,1.5-0.1,2.7-0.5,3.6c-0.2,0.6-0.5,1-0.9,1.4c-0.1,0.1-0.2,0.2-0.3,0.3
			c0,0-0.1,0.1-0.1,0.1c-0.1,0.1-0.1,0.1-0.2,0.2c-0.2,0.2-0.5,0.3-0.8,0.5c-0.9,0.5-2,1-3.4,1.4c-1.3,0.4-2.5,0.7-3.6,0.8
			c-1.3,0.2-2.5,0.1-3.6-0.1c-1.2-0.2-2.3-0.7-3.2-1.3c-0.5-0.4-0.9-0.8-1.3-1.2c-0.2-0.3-0.4-0.5-0.5-0.7c-0.1-0.2-0.3-0.5-0.4-0.8
			c-0.4-1.1-0.6-2.3-0.6-3.5c0-0.6,0.1-1.2,0.3-1.8c0.1-0.3,0.2-0.6,0.3-0.8c0-0.1,0.1-0.2,0.1-0.3c0.1-0.2,0.2-0.4,0.3-0.6
			c0.6-1.2,1.1-2.4,1.6-3.6c1.2-2.8,2.1-5.1,2.9-7.3c0-0.1,0-0.2-0.1-0.2c-0.1,0-0.2,0-0.2,0.1l-3.4,7c-0.5,1.1-1.1,2.3-1.8,3.5
			c-0.1,0.2-0.2,0.4-0.3,0.6l-0.2,0.3c-0.2,0.3-0.3,0.6-0.4,1c-0.2,0.6-0.4,1.3-0.5,2.1c-0.1,1.4,0.1,2.9,0.6,4.2
			c0.1,0.3,0.3,0.7,0.5,1c0.2,0.3,0.4,0.6,0.6,0.9c0.2,0.2,0.4,0.5,0.6,0.7c-0.2,0.6-0.3,1.3-0.4,2c-0.1,1-0.2,1.9-0.1,2.7
			c0,1,0.1,1.9,0.2,2.7c0.1,0.9,0.3,1.8,0.5,2.6C43,93,43,93.9,43,94.7c0,0.8,0,1.7,0.1,2.7c0.1,1,0.1,1.9,0.2,2.7
			c0.1,0.6,0.1,1.3,0.2,2.1c-0.6,0.3-1.1,0.5-1.6,0.7c-0.7-1-1.4-2.2-2-3.3c-0.7-1.3-1.3-2.5-1.8-3.7l-0.1-0.2
			c0.4-0.4,0.9-0.8,1.3-1.3c0.3-0.3,0.6-0.7,0.8-1.2c0.1-0.2,0.2-0.5,0.2-0.7c0-0.1,0-0.1,0-0.2c0-0.2,0.1-0.3,0.1-0.5
			c0.1-0.8,0.1-1.6,0-2.6c-0.1-0.7-0.2-1.5-0.4-2.5c-0.1-0.4-0.2-0.8-0.3-1.2l-0.3-1.2c0-0.2-0.1-0.3-0.3-0.4
			c-0.3-0.2-0.7-0.1-0.8,0.2l-0.7,1.3c-0.1,0.2-0.2,0.3-0.3,0.5c0,0,0-0.1,0-0.1l0.2-0.7l0.1-0.7c0.1-0.9,0.2-1.8,0.1-2.7
			c0-0.4-0.1-0.9-0.2-1.3c-0.1-0.5-0.2-0.9-0.3-1.3c0-0.2-0.1-0.3-0.3-0.4c-0.3-0.2-0.8-0.2-1,0.2l-1.8,2.5l-0.2,0.3
			c-0.2,0.3-0.5,0.6-0.7,0.9c-0.2,0.2-0.4,0.4-0.6,0.6c-0.3-0.7-0.6-1.3-1-1.9c-0.4-0.6-0.8-1.4-1.5-2.1c0.3,0,0.5-0.1,0.8-0.1
			c0.1,0,0.2-0.1,0.2-0.2c0.2-0.4,0.4-0.8,0.6-1.2l0.1-0.3c0.2-0.5,0.5-1,0.7-1.5c0.1-0.2,0-0.5-0.2-0.6l-0.4-0.2
			c0.2-0.4,0.4-0.8,0.6-1.2c0.1-0.3,0.3-0.6,0.4-0.9c0-0.1,0-0.1,0.1-0.2c0-0.2,0-0.3-0.1-0.5c-0.1-0.1-0.3-0.2-0.4-0.2l0,0
			c-0.7-0.1-1.4-0.2-2.1-0.2c-0.4,0-0.7-0.1-1.1-0.1c-1.3-0.5-2.6-1-3.7-1.4c-1.2-0.5-2.5-0.9-3.8-1.4c-0.3-0.1-0.5,0-0.7,0.2
			c-0.3,0.3-0.6,0.6-0.9,0.9L20,70.4l-0.2-0.4c-0.1-0.2-0.2-0.3-0.3-0.5l0-0.1c0-0.1-0.1-0.1-0.1-0.2c-0.1-0.1-0.2-0.3-0.2-0.4
			c0-0.1-0.1-0.2-0.1-0.3c-0.1-0.1-0.1-0.2-0.1-0.3l-0.2-0.7c-0.5-1.7-0.5-3.5,0-5.4c0.4-1.6,1.1-3.3,2.2-5.2c0.4-0.7,0.9-1.4,1.3-2
			l0.6,1.4c0,0.1,0.1,0.1,0.2,0.1c0.1,0,0.1,0,0.2-0.1l0.5-1.4c0-0.1,0.1-0.2,0.1-0.2c0.1-0.2,0.2-0.4,0.2-0.6
			c0.2-0.7,0.3-1.4,0.4-2c0-0.1,0-0.1-0.1-0.2c0,0,0,0-0.1,0c0,0-0.1,0-0.1,0c-0.8,0.6-1.6,1.3-2.2,2c-0.7,0.8-1.4,1.5-1.9,2.3
			c-1.3,1.8-2.2,3.6-2.6,5.5c-0.3,1.1-0.4,2.1-0.3,3.1c0,1.1,0.3,2.1,0.6,3.1c0.3,0.9,0.9,1.8,1.6,2.6l0.3,0.4l-1.1,1.1
			c0,0-0.1,0.1-0.1,0.1c-0.1,0.1-0.1,0.3-0.1,0.5c0,0.2,0.1,0.3,0.3,0.4l2.2,1.6c0.2,0.5,0.3,1,0.5,1.4c0.1,0.3,0.2,0.6,0.4,0.8
			c0.1,0.2,0.2,0.3,0.3,0.4c0.1,0.2,0.3,0.3,0.4,0.4c0.5,0.3,1.1,0.5,1.6,0.6l0.1,0c0.1,0,0.1,0,0.2,0c0,0.9,0.1,1.8,0.2,2.6
			c0,0.4,0.1,0.9,0.1,1.3c0,0.2,0,0.3,0,0.5c0,0.1,0,0.3,0,0.4c0,0.3-0.1,0.6-0.2,0.9c-0.1,0.4-0.1,0.8-0.2,1.1c0,0,0,0.1,0,0.2
			l-1.2-0.3L21,84.7c-0.2,0-0.4,0-0.5,0.1l-1.4,0.9c0,0,0,0,0,0c-0.2,0.2-0.4,0.4-0.6,0.6c-0.1,0.2-0.3,0.5-0.4,0.9c0,0,0,0.1,0,0.1
			c0,0,0.1,0.1,0.1,0.1c0.3,0,0.6,0,0.8-0.1l0,0c0.1,0.3,0.2,0.7,0.2,1c0,0,0,0-0.1,0c-0.2,0.1-0.3,0.3-0.4,0.5
			c-0.1,0.2-0.2,0.5-0.2,0.8c0,0.1,0,0.2,0.1,0.2c0.3,0.1,0.6,0.1,0.8,0.1c0.1,0,0.1,0,0.2,0l0,0c0.1,0.5,0.2,1,0.4,1.5
			c0,0,0,0,0,0.1c0.1,0.4,0.6,0.6,1,0.5l1.7-0.6c0.1,0.6,0.2,1.2,0.3,1.8c0.1,0.8,0.3,1.8,0.5,2.7c0.1,0.4,0.2,0.9,0.4,1.4
			c0.2,0.4,0.3,0.8,0.5,1.2l0,0c0.4,0.9,0.8,1.7,1.2,2.5l0,0c0.1,0.1,0.2,0.2,0.3,0.2c0.1,0,0.1,0,0.2,0c0.6-0.3,1.1-0.5,1.6-0.8
			c0.5-0.3,1-0.5,1.5-0.8c0.1,0,0.1-0.1,0.1-0.2c0-0.1-0.1-0.1-0.2-0.1c-0.6,0.2-1.1,0.4-1.6,0.6c-0.4,0.1-0.8,0.3-1.3,0.5l-0.1-0.3
			c-0.2-0.6-0.5-1.3-0.7-1.9c-0.2-0.4-0.3-0.9-0.4-1.3c-0.1-0.4-0.2-0.9-0.3-1.2c-0.1-0.5-0.1-0.9-0.2-1.3L24.4,93
			c-0.1-0.6-0.2-1.3-0.2-1.9L24,90.4c0,0,0-0.1,0-0.1c-0.1-0.4-0.5-0.6-0.9-0.5l-1.8,0.6c-0.3-1.2-0.6-2.4-0.9-3.7c0,0,0,0,0,0
			l0.7-0.5l1.3,0.3l1.4,0.3c0.2,0.3,0.4,0.7,0.7,1c0.1,0.2,0.3,0.4,0.4,0.6c0.4,0.6,0.7,1.2,1.1,1.8c0.4,0.7,0.8,1.3,1,1.9
			c0.1,0.2,0.1,0.3,0.2,0.5c0,0.1,0.1,0.2,0.1,0.3c0,0.1,0,0.1,0.1,0.2l0.3,1.1c0,0.1,0.1,0.1,0.2,0.1c0.1,0,0.1-0.1,0.1-0.2
			l-0.2-1.3c0-0.1,0-0.3-0.1-0.4c0-0.2-0.1-0.4-0.2-0.6c-0.2-0.7-0.5-1.4-0.9-2.1c-0.3-0.7-0.7-1.4-1-2c-0.2-0.4-0.4-0.8-0.7-1.2
			c0.1-0.2,0.1-0.3,0.2-0.5c0.1-0.2,0.1-0.4,0.2-0.7c0-0.3,0.1-0.6,0.1-0.9c0.1-0.3,0.1-0.7,0.1-1.1c0-0.2,0-0.4,0-0.6
			c0-0.2-0.1-0.4-0.1-0.6c-0.3-1.2-0.6-2.4-1.1-3.6c0.3,0.1,0.7,0.2,1,0.2c0.1,0,0.2,0,0.2-0.1c0-0.1,0-0.2-0.1-0.2
			C25,78.2,24.5,78,24,77.8c-0.3-0.1-0.5-0.2-0.7-0.3c-0.3-0.1-0.5-0.3-0.7-0.4c-0.1-0.1-0.1-0.1-0.2-0.2c-0.1-0.1-0.1-0.2-0.2-0.3
			c-0.1-0.2-0.2-0.5-0.3-0.8c-0.1-0.5-0.3-1-0.4-1.6c0-0.1-0.1-0.2-0.2-0.3l-1.6-1.3l0.6-0.6l0.5,0.4c0.1,0.1,0.3,0.2,0.4,0.3
			c0.1,0.1,0.2,0,0.2,0c0.1-0.1,0.1-0.2,0-0.2L21,71.8l-0.2-0.2l0.3-0.3c0.2-0.2,0.4-0.4,0.6-0.6c1.3,0.5,2.4,0.9,3.4,1.3
			c1.2,0.4,2.5,0.9,3.8,1.4l0,0c0.1,0,0.1,0,0.2,0c0.4,0,0.7,0,1.1,0.1c0.4,0,0.9,0.1,1.3,0.1c-0.2,0.6-0.5,1.2-0.7,1.8l0,0
			c-0.1,0.3,0,0.6,0.3,0.7l0.5,0.2c-0.1,0.4-0.3,0.7-0.4,1.1l-0.1,0.3c-0.1,0.4-0.3,0.8-0.4,1.1c-0.6,0.2-1.1,0.4-1.6,0.6
			c-0.1,0-0.1,0.1-0.1,0.2c0,0.1,0.1,0.1,0.2,0.1c0.2,0,0.4-0.1,0.6-0.1c0.1,1,0.4,1.9,0.6,2.6c0.3,0.8,0.7,1.9,1,2.7
			c-0.1,0.1-0.2,0.2-0.3,0.3c-0.2,0.2-0.3,0.5-0.5,0.7c-0.2,0.3-0.3,0.5-0.4,0.8c-0.3,1-0.3,2-0.1,3.3c0,0.1,0.1,0.2,0.2,0.2
			c0.1,0,0.2-0.1,0.2-0.2c0.1-0.9,0.3-2,0.7-2.9c0.2-0.4,0.5-0.7,0.8-1.1c0.3-0.3,0.7-0.7,1.1-1l0.1-0.1c0.4-0.3,0.7-0.6,1.1-1
			c0.4-0.4,0.7-0.8,1-1.2l0-0.1c0.3-0.4,0.5-0.7,0.9-1.2c0,0.3,0.1,0.5,0.1,0.8c0.1,0.8,0.1,1.7,0.1,2.5c0,0.8-0.1,1.6-0.3,2.4
			c-0.2,0.8-0.5,1.6-0.9,2.3c0,0.1,0,0.2,0.1,0.2c0.1,0.1,0.2,0.1,0.2,0c0.3-0.3,0.7-0.6,1.1-1c0.3-0.3,0.6-0.7,0.9-1l0.1-0.1
			c0.3-0.3,0.6-0.7,0.8-1.1l0.1-0.1c0,0,0,0,0,0c0.1,0.3,0.1,0.7,0.2,1c0.1,0.8,0.2,1.6,0.3,2.3c0.1,0.9,0.1,1.6,0,2.2
			c0,0.1,0,0.2-0.1,0.3c0,0.1,0,0.1,0,0.2c0,0.1-0.1,0.3-0.1,0.4l0,0.1c-0.1,0.3-0.3,0.6-0.5,0.8c-0.4,0.5-0.9,0.9-1.3,1.4l-0.4,0.4
			c-0.5,0.5-1,1.1-1.5,1.8c-0.1,0.1-0.1,0.2-0.2,0.3c0,0,0,0.1,0,0.1c0,0.1-0.1,0.1-0.1,0.2l0,0.1c0,0.1-0.1,0.2-0.1,0.3
			c0,0,0,0,0,0c0,0.1-0.1,0.2-0.1,0.3c-0.1,0.4-0.1,0.9,0,1.3c0,0.3,0,0.7,0.1,1c0,0.5,0.1,0.9,0.1,1.4c0,0.1,0.1,0.2,0.2,0.2
			c0.1,0,0.2,0,0.2-0.1c0.1-0.6,0.2-1.3,0.3-1.9c0-0.2,0-0.3,0-0.5c0-0.3,0.1-0.8,0.2-1.1c0-0.1,0-0.1,0.1-0.2l0.1-0.3
			c0,0,0-0.1,0.1-0.1c0,0,0-0.1,0.1-0.1c0-0.1,0.1-0.1,0.1-0.2c0.2-0.3,0.5-0.6,0.7-0.8c0.6,1.2,1.2,2.4,2.1,3.5
			c0.8,1.1,1.7,2,2.7,2.8c-0.3,0.2-0.6,0.4-1,0.6l0,0c-0.2,0.1-0.4,0.2-0.6,0.4c-0.1,0.1-0.2,0.2-0.3,0.3c-0.1,0.1-0.2,0.2-0.2,0.3
			c-0.3,0.4-0.5,0.9-0.6,1.4c0,0.2-0.1,0.5-0.1,0.7l0,0c0,0.1,0,0.2,0,0.4c0,0.2,0.1,0.5,0.2,0.7c0.1,0.2,0.3,0.4,0.4,0.5
			c0.1,0.1,0.2,0.2,0.3,0.3l0.2,0.1c0.1,0,0.2,0.1,0.2,0.1c0.1,0.1,0.3,0.1,0.4,0.1c0.6,0.1,1.1,0.1,1.5,0c0.4-0.1,0.9-0.2,1.4-0.4
			c0.1-0.1,0.3-0.2,0.4-0.3c0.1-0.1,0.2-0.2,0.3-0.3c0.2-0.2,0.3-0.4,0.4-0.6l0.1-0.1c0.1-0.1,0.2-0.3,0.2-0.4
			c0.1-0.1,0.2-0.2,0.2-0.3c0,0,0,0,0,0l1.1-0.6c0.3-0.2,0.7-0.4,1.1-0.7c0.2-0.1,0.4-0.3,0.6-0.5c0.2-0.2,0.4-0.5,0.5-0.9
			c0.1-0.4,0.1-0.9,0.1-1.2c0.4-0.1,0.8-0.2,1.1-0.2c0.4,0,0.8,0,1.3,0c0.5,0.1,0.9,0.2,1.3,0.3c0.3,0.1,0.6,0.2,1,0.4
			c0,0.1,0,0.2-0.1,0.3c-0.1,0.4-0.1,0.8-0.1,1.3c0,0.3,0.1,0.6,0.2,0.8c0.1,0.3,0.4,0.5,0.6,0.7c0,0,0,0,0,0c0,0,0,0,0,0h0l0,0
			c0,0,0,0,0,0c0.2,0.1,0.3,0.2,0.5,0.2l0.2,0.1c0,0.7-0.1,1.3-0.3,1.9c-0.2,0.7-0.6,1.4-1,2c-0.2,0.3-0.5,0.6-0.7,0.9
			c-0.2,0.3-0.5,0.5-0.8,0.8c-0.6,0.6-1.2,1-1.8,1.3c-1.3,0.7-2.8,1.1-4.3,1c-0.6,0-1.4-0.1-2.2-0.3c-0.7-0.1-1.4-0.3-2.2-0.6
			c-2.6-1-5.1-2.8-7.4-5.4c-1.9-2.1-3.7-4.7-5.6-7.8c0-0.1-0.1-0.1-0.2-0.1c-0.1,0-0.1,0.1-0.1,0.2c0.5,1.3,1.2,2.7,2.2,4.4
			c0.9,1.6,1.9,2.9,2.8,4.1c1.1,1.3,2.3,2.5,3.5,3.5c1.3,1,2.8,1.9,4.4,2.5c0.9,0.3,1.7,0.5,2.4,0.7c0.8,0.1,1.6,0.3,2.5,0.3
			c0,0,0,0,0,0c1.8,0,3.5-0.5,4.9-1.4c0.2-0.1,0.5-0.3,0.8-0.5c0.7,0.6,1.5,0.9,2.4,1.1c1.1,0.2,2.3,0,3.3-0.5c1-0.4,1.8-1.1,2.6-2
			c0.6-0.7,1.1-1.5,1.5-2.3c0.1,0,0.1,0,0.2,0c0.2,0,0.3-0.1,0.4-0.1c0.3-0.1,0.6-0.3,0.7-0.5c0.1-0.1,0.2-0.3,0.2-0.4
			c0.1-0.1,0.1-0.3,0.1-0.4c0.1-0.5,0.1-0.9,0-1.3c0,0,0,0,0,0c0.4-0.6,0.7-1.2,1-1.8C64.1,105.1,64.4,104.2,64.7,103.3z M48.7,30.4
			c-0.1-0.1-0.2-0.2-0.3-0.3L48.1,29l-0.3-0.8c0,0,0-0.1,0-0.1c-0.2-0.3-0.6-0.4-0.9-0.3L46,28.4l-0.4,0.2c-0.2-0.2-0.4-0.3-0.6-0.4
			c-0.7-0.3-1.4-0.4-2.1-0.3c-0.2,0-0.4,0.1-0.5,0.1c-0.2,0-0.3,0.1-0.5,0.2l0,0c-0.3,0.1-0.6,0.3-0.8,0.4c-0.5,0.2-1,0.5-1.4,0.7
			c0-0.5,0.1-1.1,0.3-1.6c0.2-0.5,0.5-1,1-1.5c0.4-0.4,0.9-0.8,1.5-1.1c0.3-0.1,0.5-0.2,0.8-0.3c0.2-0.1,0.4-0.1,0.6-0.2
			c0.1,0,0.2-0.1,0.3-0.1c0.6-0.1,1.2-0.2,1.8-0.2c0.6,0,1.1,0.2,1.5,0.5c0.4,0.3,0.8,0.7,1.1,1.2c0.1,0.2,0.3,0.5,0.4,0.8
			c0.1,0.3,0.2,0.5,0.3,0.8l0,0.1c0.4,1.2,0.7,2.5,1,3.8C49.7,31.2,49.2,30.8,48.7,30.4z M32.7,47.8c-0.5,0.3-0.9,0.6-1.4,0.9
			c-0.1,0.1-0.1,0.1-0.2,0.2c-0.2-0.1-0.5-0.2-0.7-0.3c-0.1,0-0.2-0.1-0.2-0.1c-0.2-0.1-0.3-0.1-0.5-0.2l-0.5-0.2
			c-0.2-0.5-0.4-0.9-0.5-1.3c-0.2-0.4-0.4-0.8-0.5-1.2c0.1-0.4,0.1-0.8,0.2-1.2c0.9-0.1,1.7-0.1,2.5-0.2l0,0
			c0.1,0.2,0.3,0.4,0.4,0.6c0.1,0.2,0.3,0.4,0.5,0.7c0.1,0.1,0.2,0.2,0.2,0.3c0.2,0.2,0.3,0.4,0.5,0.6c0.1,0.1,0.2,0.2,0.3,0.3
			c0.1,0.2,0.3,0.4,0.4,0.6L32.7,47.8z M75.9,84.3c-0.1,0.1-0.3,0.2-0.5,0.2c-0.2,0-0.4-0.1-0.5-0.2c-0.1-0.1-0.2-0.3-0.2-0.5
			c0-0.4,0.3-0.8,0.8-0.8c0.2,0,0.4,0.1,0.5,0.2c0.1,0.1,0.2,0.3,0.2,0.5S76,84.1,75.9,84.3z M77.2,67.9
			C77.2,67.9,77.2,67.9,77.2,67.9C77,70,76.9,72,76.6,74c-0.3,2.1-0.6,4.1-1,6.1c-0.1,0.5-0.2,1.1-0.4,1.7c0,0,0,0,0,0
			c-0.1,0-0.1,0-0.2,0c-0.4-1.9-0.8-3.9-1.3-6.1c-0.7-2.8-1.3-5.6-2.1-8.3c-0.1-0.3-0.2-0.6-0.2-0.9l0,0c0.1-0.1,0.1-0.1,0.2-0.2
			c0.3-0.4,0.5-0.9,0.5-1.4l0.2,0c0.6-0.1,1.3-0.2,2-0.3c0.7-0.1,1.4-0.2,1.9-0.3c0.2,0.3,0.6,0.6,1,0.7
			C77.2,66.1,77.2,67,77.2,67.9z M70.5,63.1c-0.4-1.4-0.8-2.7-1.1-3.9l0,0c-0.7-2.3-1.3-4.4-2-6.4c0.2-0.1,0.3-0.2,0.5-0.3
			c0.5,0.7,1,1.3,1.4,1.8c0.4,0.4,0.7,0.9,1.1,1.3l0.3,0.3c0.4,0.5,0.8,0.9,1.2,1.4l0.2,0.2c0.9,1.1,1.9,2.1,2.8,3.1
			c0.5,0.5,1,1.1,1.5,1.6C76.1,62.4,76,62.7,76,63c-0.6,0.2-1.2,0.3-1.9,0.5c-0.7,0.2-1.3,0.4-1.9,0.6L72,64.2
			C71.7,63.6,71.2,63.2,70.5,63.1z M71.1,65c0,0.2-0.1,0.4-0.2,0.5s-0.3,0.2-0.5,0.2c-0.2,0-0.4-0.1-0.5-0.2
			c-0.1-0.1-0.2-0.3-0.2-0.5c0-0.2,0.1-0.4,0.2-0.5c0.1-0.1,0.3-0.2,0.5-0.2C70.7,64.2,71,64.5,71.1,65z M77.8,62.4
			c0.4,0,0.7,0.3,0.8,0.7c0,0.4-0.3,0.8-0.7,0.8c0,0,0,0,0,0c-0.2,0-0.4-0.1-0.5-0.2c-0.1-0.1-0.2-0.3-0.2-0.5
			c0-0.2,0.1-0.4,0.2-0.5C77.4,62.5,77.6,62.4,77.8,62.4z M76,48.2c0.1-0.1,0.3-0.2,0.5-0.2c0.4,0,0.7,0.3,0.8,0.7
			c0,0.4-0.3,0.8-0.7,0.8c-0.2,0-0.4-0.1-0.5-0.2c-0.1-0.1-0.2-0.3-0.2-0.5C75.8,48.6,75.9,48.4,76,48.2z M76.3,50.6
			c0.2,1.5,0.4,3.1,0.6,4.8c0.2,1.9,0.3,3.8,0.3,5.6c-0.4-0.5-0.9-1-1.4-1.5c-0.9-1-1.9-2-2.9-3l-0.2-0.2c-0.4-0.4-0.8-0.9-1.3-1.3
			l-0.3-0.3c-0.4-0.4-0.8-0.8-1.2-1.2c-0.5-0.5-1.1-1-1.8-1.6c0.1-0.2,0.2-0.4,0.2-0.6c1.4-0.3,2.6-0.7,3.7-1
			c0.9-0.3,1.8-0.5,2.6-0.8c0.1,0.2,0.2,0.4,0.4,0.6C75.5,50.4,75.9,50.6,76.3,50.6z M71.1,82.3l-0.4-1.4c-0.7-2.5-1.4-5.1-2.1-7.6
			c-0.3-1.2-0.7-2.4-1-3.6l-6.4-22.5l1.6-0.2c0.2,0,0.4-0.1,0.6-0.1c0.4-0.1,0.8-0.1,1.2-0.2c1.4-0.2,2.6-0.5,3.7-0.8
			c1.3-0.3,2.5-0.6,3.6-1c0.5-0.2,1.2-0.4,1.8-0.6c0.5-0.2,0.9-0.3,1.2-0.5c0.3,1.2,0.5,2.2,0.7,3.2c-0.2,0.1-0.4,0.2-0.5,0.4
			c-0.3,0.4-0.5,0.8-0.5,1.3c-0.9,0.1-1.8,0.3-2.7,0.5c-1.1,0.2-2.3,0.5-3.7,0.8c-0.1-0.1-0.2-0.3-0.3-0.4c-0.4-0.4-0.8-0.5-1.3-0.5
			c-1,0-1.9,0.9-1.8,2c0,1,0.9,1.9,1.9,1.9l0,0c0,0,0.1,0,0.1,0c0.4,2,0.8,4.1,1.4,6.5c0.3,1.3,0.6,2.6,1,4
			c-0.1,0.1-0.1,0.1-0.2,0.2c-0.3,0.4-0.5,0.9-0.5,1.4c0,0.5,0.2,1,0.6,1.3c0.3,0.3,0.6,0.4,1,0.5l0,0c0.1,0.3,0.2,0.6,0.2,0.9
			c0.7,2.7,1.5,5.5,2.3,8.2c0.7,2.2,1.3,4.2,1.9,6c-0.6,0.3-1,1-1,1.7c0,0.7,0.4,1.3,1,1.6c-0.1,0.2-0.1,0.5-0.2,0.7
			c-0.4,1.4-0.7,2.6-1.1,3.7C72.4,87.3,71.7,84.7,71.1,82.3z M67.4,51.1c0,0.2-0.1,0.4-0.2,0.5c-0.1,0.1-0.3,0.2-0.5,0.2
			c0,0,0,0,0,0c-0.2,0-0.4-0.1-0.5-0.2c-0.1-0.1-0.2-0.3-0.2-0.5c0-0.2,0.1-0.4,0.2-0.5c0.1-0.1,0.3-0.2,0.5-0.2
			c0.2,0,0.4,0.1,0.5,0.2C67.3,50.7,67.4,50.9,67.4,51.1z M48.1,93.4c0,0.5-0.1,0.9-0.2,1.3c-0.1,0.4-0.1,0.8-0.3,1.3l-0.1,0.4
			c-0.2,0.7-0.4,1.5-0.5,2.3c-0.1,0.9-0.2,1.8-0.2,2.8c0,0,0,0.1,0,0.1c0,0.3,0.1,0.5,0.1,0.7c0,0.2,0.1,0.4,0.1,0.5
			c0.1,0.4,0.1,0.8,0,1c0,0.1-0.1,0.2-0.1,0.2c-0.1,0.1-0.2,0.2-0.4,0.3c-0.3,0.2-0.6,0.4-1,0.6l-0.8,0.4l-0.3,0.2
			c-0.3,0.2-0.5,0.4-0.6,0.6l0,0c-0.1,0.2-0.2,0.3-0.3,0.4l-0.1,0.1c-0.1,0.1-0.2,0.3-0.3,0.4c0,0.1-0.1,0.1-0.1,0.1
			c0,0-0.1,0-0.1,0.1c-0.2,0.1-0.6,0.2-1,0.3c-0.4,0-0.7,0-1,0c-0.1,0-0.1,0-0.2,0c0,0,0,0,0,0c0,0,0,0,0,0l-0.1-0.1
			c-0.1-0.1-0.2-0.1-0.2-0.1c0,0,0-0.1,0-0.2c0-0.2,0-0.4,0.1-0.6c0.1-0.4,0.2-0.7,0.4-0.9c0.2-0.3,0.3-0.4,0.7-0.7
			c0.3-0.2,0.7-0.5,1-0.6c0.7-0.4,1.5-0.8,2.2-1.1c0.3-0.1,0.4-0.4,0.4-0.8c-0.2-1-0.3-1.9-0.4-2.6c-0.1-0.9-0.2-1.8-0.3-2.6
			c-0.1-1-0.2-1.8-0.2-2.6c0-0.4,0-0.9,0-1.3c0-0.5,0-0.9,0-1.3c0-0.1,0-0.1,0-0.2c-0.2-0.8-0.5-1.6-0.7-2.5
			c-0.2-0.8-0.3-1.6-0.4-2.6c-0.1-0.9-0.1-1.7,0-2.6c0-0.6,0.1-1.2,0.1-1.7c0.2,0.2,0.3,0.3,0.5,0.4c1.1,0.8,2.4,1.4,3.8,1.6
			c0.6,0.1,1.2,0.2,1.8,0.2c0,0.3-0.1,0.7-0.1,1c-0.1,0.5-0.1,1.1-0.2,1.7c-0.1,0.5-0.2,1.1-0.3,1.7c-0.2,0.6-0.3,1.1-0.5,1.6
			c0,0.1,0,0.1,0,0.2l0,0C48.2,91.6,48.2,92.5,48.1,93.4z M53.6,93.8c-0.1,0.9-0.1,1.8-0.1,2.7c0,0,0,0,0,0l0.2,2.6
			c0,0.8,0.1,1.6,0,2.4l-0.2,0.4c-0.1,0.2-0.1,0.4-0.2,0.6l0,0c-0.2-0.2-0.4-0.4-0.6-0.6c-0.5-0.4-1.1-0.6-1.7-0.7
			c-0.2,0-0.3,0-0.5,0c-0.5,0-1,0.1-1.4,0.3c-0.3,0.2-0.6,0.4-0.9,0.6c0-0.1,0-0.1,0-0.2c0-0.2-0.1-0.4-0.1-0.6c0-1,0-1.8,0.1-2.5
			c0.1-0.7,0.2-1.4,0.4-2.2l0.1-0.4c0.2-0.8,0.3-1.7,0.3-2.8c0-0.8,0-1.7-0.1-2.7c0.2-0.5,0.3-1,0.4-1.6c0.1-0.6,0.2-1.2,0.2-1.8
			c0.1-0.9,0.1-1.8,0.1-2.8c0.6,0,1.2,0,1.8-0.1c0.6-0.1,1.3-0.2,1.9-0.4c0,1,0,2.1,0.1,3.2c0.1,1.2,0.2,2.5,0.4,3.9
			C53.8,92,53.7,92.8,53.6,93.8z M58.6,112.1C58.6,112.1,58.6,112.1,58.6,112.1c-0.8,0.7-1.6,1.2-2.4,1.5c-0.9,0.4-1.7,0.6-2.6,0.6
			c-0.6,0-1.2-0.1-1.9-0.3c0.8-0.7,1.6-1.6,2.2-2.6c0.5-0.8,0.8-1.6,0.9-2.4c0.1-0.6,0.1-1.2,0.1-1.8l0.1,0c0.3,0.1,0.5,0.2,0.7,0.4
			c0.1,0.1,0.3,0.2,0.3,0.2c0,0,0.1,0.1,0.1,0.2c0,0.1,0.1,0.2,0.1,0.3c0.1,0.2,0.2,0.5,0.4,0.7c0.1,0.1,0.2,0.2,0.3,0.3
			c0,0,0.1,0.1,0.1,0.1l0.2,0.1c0.2,0.1,0.3,0.2,0.5,0.3c0.3,0.2,0.7,0.3,1.1,0.4c0.4,0.1,0.8,0.2,1.1,0.3c0,0,0.1,0,0.1,0
			C59.7,111.1,59.2,111.6,58.6,112.1z M61.2,108.9c0,0.1,0,0.1,0,0.1l0,0c0,0,0,0-0.1,0.1c0,0-0.1,0-0.1,0c0,0,0,0-0.1,0l0,0
			c-0.1,0-0.3,0-0.4-0.1c-0.3-0.1-0.6-0.1-0.9-0.3c-0.3-0.1-0.6-0.2-0.9-0.4c-0.1-0.1-0.3-0.1-0.4-0.2c-0.1,0-0.1-0.1-0.1-0.1
			l-0.1-0.1c-0.1-0.1-0.2-0.3-0.3-0.5c-0.1-0.1-0.1-0.2-0.2-0.4l0-0.1c-0.1-0.2-0.2-0.3-0.4-0.6c-0.2-0.2-0.4-0.3-0.5-0.4l0,0
			c-0.3-0.2-0.7-0.3-1-0.5l-0.5-0.2c-0.2-0.1-0.3-0.1-0.4-0.2l0,0c0,0-0.1,0-0.1-0.1c0-0.1-0.1-0.2-0.1-0.3c0-0.2,0-0.5,0-0.9
			c0.1-0.3,0.1-0.6,0.2-1c0.1-0.2,0.1-0.3,0.2-0.5L55,102c0-0.1,0-0.1,0-0.2c0-0.8,0-1.7-0.1-2.7l-0.3-2.6c-0.1-1-0.1-1.8-0.1-2.6
			c0-0.9,0.2-1.8,0.3-2.5c0,0,0,0,0,0c0-0.1,0-0.1,0-0.2c-0.1-0.6-0.3-1.3-0.4-1.9c-0.1-0.7-0.2-1.4-0.3-1.9c-0.1-0.6-0.2-1.3-0.2-2
			c0-0.4-0.1-0.8-0.1-1.2c0.5-0.1,1-0.3,1.5-0.4c1.4-0.4,2.6-1,3.7-1.6c0.3-0.2,0.5-0.3,0.8-0.5c0,0.6,0.1,1.3,0.1,2.1
			c0,1-0.1,2-0.2,3.1c-0.1,0.9-0.2,1.8-0.5,3c-0.2,0.9-0.5,1.8-0.9,2.9c0,0.1,0,0.1,0,0.2c-0.1,1.5-0.2,3.2-0.6,5.2
			c-0.2,1-0.3,1.8-0.4,2.6c-0.2,1-0.3,1.8-0.5,2.6c-0.1,0.3,0,0.6,0.3,0.7c0.6,0.5,1.1,0.9,1.6,1.3c0.1,0.1,0.3,0.2,0.4,0.3
			c0.1,0.1,0.2,0.2,0.3,0.3c0.2,0.2,0.4,0.5,0.7,0.8c0.2,0.3,0.4,0.5,0.6,0.8c0.1,0.2,0.2,0.3,0.2,0.4c0.1,0.1,0.1,0.2,0.1,0.3
			C61.2,108.3,61.2,108.6,61.2,108.9z M62.8,105.6c-0.1,0.5-0.3,0.9-0.5,1.4c-0.1-0.2-0.2-0.3-0.3-0.4c-0.2-0.3-0.4-0.6-0.7-0.9
			c-0.2-0.3-0.5-0.6-0.7-0.8c-0.1-0.1-0.3-0.3-0.4-0.4c-0.1-0.1-0.2-0.1-0.2-0.2c0.2-0.2,0.4-0.4,0.6-0.6c0.3-0.3,0.5-0.7,0.8-1.1
			c0.4-0.7,0.8-1.6,1.2-2.5c0.3-0.8,0.5-1.6,0.8-2.6l0.2-0.7c0-0.1,0.1-0.3,0.1-0.4c0-0.1,0-0.2,0.1-0.2c0-0.1,0-0.2,0.1-0.2
			c0-0.1,0.1-0.2,0.1-0.4l0.2-0.6c0.6-1.5,1.6-2.9,2.9-4c1.1-0.9,2.4-1.6,4.2-2.4c0.1,0.4,0.2,0.7,0.3,1.1l0.1,0.2
			c-0.8,0.1-1.6,0.4-2.3,0.7c0,0,0,0,0,0c-0.9,0.4-1.7,1-2.4,1.7c-0.7,0.7-1.2,1.5-1.7,2.5c-0.4,0.8-0.7,1.8-0.9,2.8
			c-0.1,0.6-0.2,1.1-0.2,1.7c0,0.4-0.1,0.8-0.2,1.1c-0.1,0.9-0.3,1.8-0.5,2.7C63.3,103.9,63,104.8,62.8,105.6z"/>
		<polygon points="86.4,77.2 87.6,76.8 86.4,77.2 		"/>
		<path d="M90.3,77l-5.5-3.1c0,0-0.1,0-0.1,0c0,0-0.1,0.1-0.1,0.1l-0.1,0.6c0,0.1,0,0.1,0.1,0.1l1.6,0.9l-0.2,2l-1.7,0.6
			c-0.1,0-0.1,0.1-0.1,0.1l-0.1,1c0,0,0,0.1,0.1,0.1c0,0,0.1,0,0.1,0c0,0,0,0,0,0l6.2-2.1c0.1,0,0.1-0.1,0.1-0.1
			c0-0.1,0-0.1-0.1-0.1L90.3,77z M86.8,77.4l0.1-1.3l0.4,0.2l1.1,0.6L86.8,77.4z"/>
		<path d="M6,75l5.9,2.1c0,0,0.1,0,0.1,0c0,0,0.1-0.1,0.1-0.1l0-0.6c0-0.1,0-0.1-0.1-0.1l-1.7-0.6l-0.2-2l1.6-0.9
			c0,0,0.1-0.1,0.1-0.1l-0.1-1c0,0,0-0.1-0.1-0.1c0,0-0.1,0-0.1,0c0,0,0,0,0,0l-5.8,3.1c0,0-0.1,0.1-0.1,0.1c0,0.1,0,0.1,0.1,0.1
			L6,75z M9.4,74l0.1,1.3l-0.4-0.1l-1.2-0.4L9.4,74z"/>
		<path d="M6.2,57.6l5.4,3.2c0,0,0.1,0,0.1,0c0,0,0.1-0.1,0.1-0.1l0.1-0.6c0-0.1,0-0.1-0.1-0.1L10.3,59l0.2-2l1.7-0.5
			c0.1,0,0.1-0.1,0.1-0.1l0.1-1c0,0,0-0.1-0.1-0.1c0,0-0.1,0-0.1,0c0,0,0,0,0,0l-6.2,2c-0.1,0-0.1,0.1-0.1,0.1c0,0.1,0,0.1,0.1,0.1
			L6.2,57.6z M9.7,57.3l-0.2,1.3l-0.4-0.2l-1.1-0.6L9.7,57.3z"/>
	</g>
	<g>
		<path d="M122.2,82.8c-6.9,0-9.5-4.2-9.5-10.5V51.1h3.5v20.4c0,4.5,0.7,8.3,6.1,8.3c5.7,0,6.5-3.5,6.5-8.3V51.1h3.5v21.1
			C132.3,79.2,129.6,82.8,122.2,82.8z"/>
		<path d="M150,82.3V70.4c0-2.4,0.4-7-3.2-7c-4.3,0-6.1,6.7-6.1,10.1v8.8h-3.1V60.8h3.1v5h0.1c1.1-3.3,3-5.5,6.7-5.5
			c3.8,0,5.5,3.3,5.5,6.6v15.3H150z"/>
		<path d="M157.6,55.2v-4.1h4.1v4.1H157.6z M158.1,82.3V60.8h3.1v21.5H158.1z"/>
		<path d="M176.3,82.3h-3.1l-8.1-21.5h3.3l6.3,17h0.1l5.5-17h3.3L176.3,82.3z"/>
		<path d="M188.7,69.5v1.3c0,4.7,2.3,9.4,7.6,9.4c1.5,0,2.8-0.2,4.2-0.6v2.5c-1.6,0.5-3.3,0.6-4.9,0.6c-7.4,0-10.5-5-10.5-12
			c0-5.6,2.1-10.5,8.4-10.5c5,0,7.5,3.4,7.5,8.2v1H188.7z M193.4,62.9c-2.5,0-4.1,1.7-4.5,4.1h8.6C197.6,64.6,195.8,62.9,193.4,62.9
			z"/>
		<path d="M208.8,73.4v8.9h-3.1V60.8h3.1V65h0.1c1.4-3.1,3.7-4.6,7.2-4.6v3.3C210.6,63.6,208.8,68.7,208.8,73.4z"/>
		<path d="M225.3,82.8c-2,0-4-0.3-5.9-0.9v-2.8c1.8,0.6,3.7,1.1,5.6,1.1c2.3,0,5.2-0.6,5.2-3.5c0-2.1-2.3-3-3.9-3.9l-1.9-1
			c-2.5-1.4-4.9-2.5-4.9-5.8c0-4.2,3.7-5.7,7.4-5.7c1.8,0,3.4,0.3,5.1,0.7v2.8c-1.5-0.6-3.4-1-5-1c-1.7,0-4.3,0.7-4.3,2.8
			c0,1.8,2.6,2.6,3.9,3.4l1.8,1.1c2.6,1.6,5,2.6,5,6.1C233.3,81.1,229.6,82.8,225.3,82.8z"/>
		<path d="M236.9,55.2v-4.1h4.1v4.1H236.9z M237.4,82.3V60.8h3.1v21.5H237.4z"/>
		<path d="M258.6,82.3v-3.7h-0.1c-0.7,2.5-3,4.2-5.6,4.2c-6.2,0-7.4-6-7.4-11.1c0-4.6,1.4-11.4,7.3-11.4c2.8,0,4.7,1.4,5.6,4h0.1
			V51.1h3.1v31.1H258.6z M253.6,62.9c-4.2,0-4.6,6.5-4.6,9.4s0.5,7.9,4.5,7.9c3.8,0,5.1-5.6,5.1-8.6
			C258.6,68.6,257.7,62.9,253.6,62.9z"/>
		<path d="M278.7,82.3v-2.8h-0.1c-1.2,2.3-4.2,3.3-6.6,3.3c-3.7,0-5.8-2.3-5.8-6c0-4.9,6.3-6.7,10.2-6.7c0.7,0,1.4,0,2.1-0.1v-0.5
			c0-3.2,0.2-6.6-4.1-6.6c-2.5,0-4.1,0.9-4.4,3.4h-3.4c0.1-4.3,3.9-6,7.7-6c4.9,0,7.2,2.1,7.2,6.9v15.1H278.7z M276.8,72.5
			c-2.8,0-7,1.1-7,4.6c0,1.8,1.2,3.1,3,3.1c2.2,0,4.1-1.4,5-3.3c0.7-1.6,0.8-2.5,0.8-4.3H276.8z"/>
		<path d="M299.4,82.3v-3.7h-0.1c-0.7,2.5-3,4.2-5.6,4.2c-6.2,0-7.4-6-7.4-11.1c0-4.6,1.4-11.4,7.3-11.4c2.8,0,4.7,1.4,5.6,4h0.1
			V51.1h3.1v31.1H299.4z M294.4,62.9c-4.2,0-4.6,6.5-4.6,9.4s0.5,7.9,4.5,7.9c3.8,0,5.1-5.6,5.1-8.6
			C299.4,68.6,298.5,62.9,294.4,62.9z"/>
		<path d="M124.2,123.8v-3.7h-0.1c-0.7,2.5-3,4.2-5.6,4.2c-6.2,0-7.4-6-7.4-11.1c0-4.6,1.4-11.4,7.3-11.4c2.8,0,4.7,1.4,5.6,4h0.1
			V92.6h3.1v31.1H124.2z M119.2,104.4c-4.2,0-4.6,6.5-4.6,9.4c0,3,0.5,7.9,4.5,7.9c3.8,0,5.1-5.6,5.1-8.6
			C124.2,110.1,123.3,104.4,119.2,104.4z"/>
		<path d="M135.3,111v1.3c0,4.7,2.3,9.4,7.6,9.4c1.5,0,2.8-0.2,4.2-0.6v2.5c-1.6,0.5-3.3,0.6-4.9,0.6c-7.4,0-10.5-5-10.5-12
			c0-5.6,2.1-10.5,8.4-10.5c5,0,7.5,3.4,7.5,8.2v1H135.3z M140,104.4c-2.5,0-4.1,1.7-4.5,4.1h8.6C144.1,106.1,142.4,104.4,140,104.4
			z"/>
		<path d="M179.6,123.8l-12.8-26.2h-0.1v26.2h-3.3V92.6h4.5l12.8,26.3h0.1V92.6h3.3v31.1H179.6z"/>
		<path d="M200.7,123.8v-2.8h-0.1c-1.2,2.3-4.2,3.3-6.6,3.3c-3.7,0-5.8-2.3-5.8-6c0-4.9,6.3-6.7,10.2-6.7c0.7,0,1.4,0,2.1-0.1V111
			c0-3.2,0.2-6.6-4.1-6.6c-2.5,0-4.1,0.9-4.4,3.4h-3.4c0.1-4.3,3.9-6,7.7-6c4.9,0,7.2,2.1,7.2,6.9v15.1H200.7z M198.8,114
			c-2.8,0-7,1.1-7,4.6c0,1.8,1.2,3.1,3,3.1c2.2,0,4.1-1.4,5-3.3c0.7-1.6,0.8-2.5,0.8-4.3H198.8z"/>
		<path d="M217.5,123.8h-3.1l-8.1-21.5h3.3l6.3,17h0.1l5.5-17h3.3L217.5,123.8z"/>
		<path d="M239,123.8v-2.8h-0.1c-1.2,2.3-4.2,3.3-6.6,3.3c-3.7,0-5.8-2.3-5.8-6c0-4.9,6.3-6.7,10.2-6.7c0.7,0,1.4,0,2.1-0.1V111
			c0-3.2,0.2-6.6-4.1-6.6c-2.5,0-4.1,0.9-4.4,3.4H227c0.1-4.3,3.9-6,7.7-6c4.9,0,7.2,2.1,7.2,6.9v15.1H239z M237.1,114
			c-2.8,0-7,1.1-7,4.6c0,1.8,1.2,3.1,3,3.1c2.2,0,4.1-1.4,5-3.3c0.7-1.6,0.8-2.5,0.8-4.3H237.1z"/>
		<path d="M249.8,114.9v8.9h-3.1v-21.5h3.1v4.2h0.1c1.4-3.1,3.7-4.6,7.2-4.6v3.3C251.5,105.1,249.8,110.2,249.8,114.9z"/>
		<path d="M264.1,114.9v8.9h-3.1v-21.5h3.1v4.2h0.1c1.4-3.1,3.7-4.6,7.2-4.6v3.3C265.9,105.1,264.1,110.2,264.1,114.9z"/>
		<path d="M286.3,123.8v-2.8h-0.1c-1.2,2.3-4.2,3.3-6.6,3.3c-3.7,0-5.8-2.3-5.8-6c0-4.9,6.3-6.7,10.2-6.7c0.7,0,1.4,0,2.1-0.1V111
			c0-3.2,0.2-6.6-4.1-6.6c-2.5,0-4.1,0.9-4.4,3.4h-3.4c0.1-4.3,3.9-6,7.7-6c4.9,0,7.2,2.1,7.2,6.9v15.1H286.3z M284.4,114
			c-2.8,0-7,1.1-7,4.6c0,1.8,1.2,3.1,3,3.1c2.2,0,4.1-1.4,5-3.3c0.7-1.6,0.8-2.5,0.8-4.3H284.4z"/>
	</g>
</g>
</svg>
